<?xml version="1.0" standalone="no"?>
<!DOCTYPE svg PUBLIC "-//W3C//DTD SVG 1.1//EN" "http://www.w3.org/Graphics/SVG/1.1/DTD/svg11.dtd" >
<svg xmlns="http://www.w3.org/2000/svg" xmlns:xlink="http://www.w3.org/1999/xlink" version="1.1">
<metadata>
Created by FontForge 20161013 at Mon Nov 25 03:54:57 2013
 By ,,,
Copyright (c) 2012 by Toni Hurme. All rights reserved.
</metadata>
<defs>
<font id="HurmeGeometricSans1-Black" horiz-adv-x="619" >
  <font-face 
    font-family="Hurme Geometric Sans 1"
    font-weight="900"
    font-stretch="normal"
    units-per-em="1000"
    panose-1="2 11 10 0 2 0 0 0 0 0"
    ascent="767"
    descent="-233"
    x-height="504"
    cap-height="697"
    bbox="-67 -250 1276 1052"
    underline-thickness="50"
    underline-position="-290"
    unicode-range="U+000D-FB04"
  />
<missing-glyph horiz-adv-x="712" 
d="M712 0h-712v697h712v-697zM119 585v-473h474v473h-474zM239 147l-84 84l117 117l-117 117l84 84l117 -117l117 117l84 -84l-117 -117l117 -117l-84 -84l-117 117z" />
    <glyph glyph-name="ff" unicode="ff" horiz-adv-x="757" 
d="M456 504v1q0 206 219 206q28 0 70 -6v-145q-17 5 -43 5q-63 0 -63 -52v-9h97v-161h-95v-343h-185v343h-166v-343h-185v343h-84v161h84v1q0 206 209 206q28 0 70 -6v-145q-15 5 -38 5q-30 0 -44 -12t-14 -40v-9h168z" />
    <glyph glyph-name="fi" unicode="fi" horiz-adv-x="679" 
d="M291 0h-185v343h-84v161h84v1q0 62 15 100t48 65q67 41 206 41q40 0 100 -6v-145q-28 5 -73 5q-60 0 -86.5 -12t-26.5 -40v-9h344v-504h-185v343h-157v-343z" />
    <glyph glyph-name="fl" unicode="fl" horiz-adv-x="683" 
d="M290 0h-185v343h-84v161h84v1q0 62 15 100t48 65q50 41 156 41q28 0 70 -6v-145q-17 5 -43 5q-63 0 -63 -52v-9h97v-161h-95v-343zM637 0h-185v697h185v-697z" />
    <glyph glyph-name="ffi" unicode="ffi" horiz-adv-x="1020" 
d="M290 0h-185v343h-84v161h84v1q0 206 209 206q28 0 70 -6v-145q-15 5 -38 5q-30 0 -44 -12t-14 -40v-9h159v1q0 62 15 100t48 65q67 41 206 41q40 0 100 -6v-145q-28 5 -73 5q-60 0 -86.5 -12t-26.5 -40v-9h344v-504h-185v343h-157v-343h-185v343h-157v-343z" />
    <glyph glyph-name="ffl" unicode="ffl" horiz-adv-x="1023" 
d="M290 0h-185v343h-84v161h84v1q0 206 209 206q28 0 70 -6v-145q-15 5 -38 5q-30 0 -44 -12t-14 -40v-9h168v1q0 206 219 206q28 0 70 -6v-145q-17 5 -43 5q-63 0 -63 -52v-9h97v-161h-95v-343h-185v343h-166v-343zM977 0h-174v697h174v-697z" />
    <glyph glyph-name="fj" unicode="fj" horiz-adv-x="675" 
d="M291 0h-185v343h-84v161h84v1q0 62 15 100t48 65q67 41 206 41q40 0 100 -6v-145q-28 5 -73 5q-60 0 -86.5 -12t-26.5 -40v-9h344v-534q0 -191 -188 -191q-50 0 -83 5v158q30 -2 31 -2q29 0 42 13t13 44v346h-157v-343z" />
    <glyph glyph-name="ffj" unicode="ffj" horiz-adv-x="1016" 
d="M290 0h-185v343h-84v161h84v1q0 206 209 206q28 0 70 -6v-145q-15 5 -38 5q-30 0 -44 -12t-14 -40v-9h159v1q0 62 15 100t48 65q67 41 206 41q40 0 100 -6v-145q-28 5 -73 5q-60 0 -86.5 -12t-26.5 -40v-9h344v-534q0 -191 -188 -191q-50 0 -83 5v158q30 -2 31 -2
q29 0 42 13t13 44v346h-157v-343h-185v343h-157v-343z" />
    <glyph glyph-name=".notdef" horiz-adv-x="712" 
d="M712 0h-712v697h712v-697zM119 585v-473h474v473h-474zM239 147l-84 84l117 117l-117 117l84 84l117 -117l117 117l84 -84l-117 -117l117 -117l-84 -84l-117 117z" />
    <glyph glyph-name=".null" horiz-adv-x="0" 
 />
    <glyph glyph-name="nonmarkingreturn" horiz-adv-x="333" 
 />
    <glyph glyph-name="NULL" horiz-adv-x="0" 
 />
    <glyph glyph-name="NULL" horiz-adv-x="0" 
 />
    <glyph glyph-name="CR.001" unicode="&#xd;" horiz-adv-x="0" 
 />
    <glyph glyph-name="space" unicode=" " horiz-adv-x="400" 
 />
    <glyph glyph-name="exclam" unicode="!" horiz-adv-x="312" 
d="M236 207h-161l-28 490h217zM87 18q-28 28 -28 68t28 68q29 28 69 28t68 -28q29 -28 29 -68t-29 -68q-28 -28 -68 -28t-69 28z" />
    <glyph glyph-name="quotedbl" unicode="&#x22;" horiz-adv-x="447" 
d="M393 445h-121l-22 252h166zM174 445h-121l-22 252h166z" />
    <glyph glyph-name="numbersign" unicode="#" horiz-adv-x="701" 
d="M245 63h-149l22 89h-87v156h125l18 73h-86v156h125l21 85h148l-21 -85h80l21 85h149l-21 -85h83v-156h-122l-18 -73h83v-156h-121l-22 -89h-149l22 89h-79zM323 381l-18 -73h79l18 73h-79z" />
    <glyph glyph-name="dollar" unicode="$" horiz-adv-x="604" 
d="M-8 138l134 99q50 -71 152 -81v118q-99 27 -164 72q-72 54 -72 152q0 93 67 147q67 55 167 61v101h79v-105q121 -18 201 -110l-121 -99q-31 34 -82 45v-107q135 -38 184 -91q51 -52 51 -129q0 -94 -59 -151.5t-174 -67.5v-98h-79v97q-196 11 -284 147zM278 452v90
q-55 -7 -55 -41q0 -20 12 -30t43 -19zM353 252v-93q50 9 50 46q0 29 -50 47z" />
    <glyph glyph-name="percent" unicode="%" horiz-adv-x="776" 
d="M295 446q-47 -44 -113 -44q-67 0 -114 44q-47 45 -47 109t47 108t114 44q66 0 113 -44t47 -108t-47 -109zM225 0h-163l486 697h163zM182 522q13 0 21.5 9t8.5 24q0 20 -15 28t-30 0t-15 -28q0 -33 30 -33zM481 34q-47 45 -47 109t47 108t114 44q66 0 113 -44t47 -108
t-47 -109q-47 -44 -113 -44q-67 0 -114 44zM565 143q0 -33 30 -33q13 0 21.5 9t8.5 24q0 20 -15 28t-30 0t-15 -28z" />
    <glyph glyph-name="ampersand" unicode="&#x26;" horiz-adv-x="872" 
d="M30 223q0 151 139 221q-12 24 -12 55q0 95 68 155q67 61 179 61q94 0 152 -48q59 -48 59 -120q0 -27 -11 -43h249v-170h-122v-39q0 -88 -65 -156l142 -139h-234l-35 34q-79 -49 -227 -49q-126 0 -204 66t-78 172zM365 422l69 -69v98q16 4 26.5 20t10.5 37q0 28 -20 46.5
t-49 18.5q-30 0 -51 -21.5t-21 -57.5q0 -37 35 -72zM215 223q0 -36 25.5 -56t71.5 -20q55 0 77 13q-85 85 -103 101q-13 12 -28 30q-43 -24 -43 -68zM561 325v9h-108l80 -80q28 16 28 71z" />
    <glyph glyph-name="quotesingle" unicode="'" horiz-adv-x="228" 
d="M174 445h-121l-22 252h166z" />
    <glyph glyph-name="parenleft" unicode="(" horiz-adv-x="342" 
d="M33 309q0 277 231 479l81 -89q-77 -89 -114 -179q-38 -91 -38 -211q0 -127 37 -214q38 -90 115 -180l-81 -88q-231 190 -231 482z" />
    <glyph glyph-name="parenright" unicode=")" horiz-adv-x="342" 
d="M78 -173l-81 88q77 90 115 180q37 87 37 214q0 120 -38 211q-37 90 -114 179l81 89q231 -202 231 -479q0 -292 -231 -482z" />
    <glyph glyph-name="asterisk" unicode="*" horiz-adv-x="366" 
d="M182 464l-44 -86l-95 68l68 73l-97 18l34 108l90 -46l-15 98h119l-14 -97l89 45l35 -108l-96 -18l67 -73l-96 -68z" />
    <glyph glyph-name="plus" unicode="+" horiz-adv-x="590" 
d="M382 98h-174v173h-165v156h165v173h174v-173h165v-156h-165v-173z" />
    <glyph glyph-name="comma" unicode="," horiz-adv-x="266" 
d="M-23 -128l87 239h171l-126 -239h-132z" />
    <glyph glyph-name="hyphen" unicode="-" horiz-adv-x="460" 
d="M423 209h-386v156h386v-156z" />
    <glyph glyph-name="period" unicode="." horiz-adv-x="226" 
d="M44 18q-28 28 -28 68t28 68q29 28 69 28t68 -28q29 -28 29 -68t-29 -68q-28 -28 -68 -28t-69 28z" />
    <glyph glyph-name="slash" unicode="/" horiz-adv-x="469" 
d="M131 -136h-164l334 859h164z" />
    <glyph glyph-name="zero" unicode="0" horiz-adv-x="612" 
d="M41 204q-3 32 -3 145t3 144q10 91 85 153q73 61 175 61q106 0 182 -61q78 -62 88 -153q3 -31 3 -144t-3 -145q-10 -91 -88 -153q-76 -61 -182 -61q-102 0 -175 61q-75 62 -85 153zM220 225q3 -31 27 -51.5t59 -20.5q32 0 57 20.5t29 51.5q3 23 3 124q0 95 -3 118
q-4 31 -29 51.5t-57 20.5q-35 0 -59 -20.5t-27 -51.5q-3 -23 -3 -118q0 -101 3 -124z" />
    <glyph glyph-name="one" unicode="1" horiz-adv-x="386" 
d="M325 0h-190v525h-104v172h294v-697z" />
    <glyph glyph-name="two" unicode="2" horiz-adv-x="560" 
d="M538 0h-545l323 399q34 43 34 81q0 28 -21 47.5t-51 19.5q-34 0 -57.5 -26t-23.5 -64h-167q0 103 72 177q73 73 176 73q99 0 169 -67q70 -66 70 -160q0 -84 -52 -146l-134 -162h207v-172z" />
    <glyph glyph-name="three" unicode="3" horiz-adv-x="568" 
d="M-4 124l146 99q40 -60 112 -60q42 0 70.5 21.5t28.5 56.5q0 76 -123 76q-74 0 -123 -10l150 218h-199v172h492l-173 -246h1q71 -10 117 -70q46 -58 46 -134q0 -108 -76 -181t-206 -73q-85 0 -154 35t-109 96z" />
    <glyph glyph-name="four" unicode="4" horiz-adv-x="641" 
d="M399 118h-388l257 579h193l-181 -413h119v122h185v-406h-185v118z" />
    <glyph glyph-name="five" unicode="5" horiz-adv-x="562" 
d="M4 133l151 94q14 -30 42.5 -47t64.5 -17q37 0 61.5 20.5t24.5 53.5q0 78 -121 78q-95 0 -169 -15l64 397h363v-172h-227l-9 -61q13 4 41 4q100 0 173 -68q73 -67 73 -163q0 -101 -80 -173q-80 -71 -194 -71q-84 0 -153 38t-105 102z" />
    <glyph glyph-name="six" unicode="6" horiz-adv-x="581" 
d="M17 252q0 55 23 106q25 53 78 134l134 205h205l-137 -202q5 1 13 1q70 0 147 -59q38 -28 61 -77.5t23 -105.5q0 -105 -81 -180q-80 -74 -195 -74q-112 0 -192 74q-79 73 -79 178zM226 314q-25 -25 -25 -60t25 -60q26 -24 62 -24t62 25t26 59t-26 59q-26 26 -61.5 26
t-62.5 -25z" />
    <glyph glyph-name="seven" unicode="7" horiz-adv-x="557" 
d="M254 0h-191l240 525h-281v172h546z" />
    <glyph glyph-name="eight" unicode="8" horiz-adv-x="591" 
d="M27 237q0 50 24 93t66 70q-43 37 -43 100q0 86 65 146q64 61 156 61t156 -61q65 -62 65 -146q0 -63 -43 -100q42 -27 66.5 -70t24.5 -93q0 -101 -79 -173q-79 -71 -190 -71q-110 0 -190 71q-78 72 -78 173zM349 500q0 20 -16 33.5t-38 13.5t-38 -13.5t-16 -33.5
q0 -22 15.5 -37t38.5 -15t38.5 15t15.5 37zM215 237q0 -31 24 -52.5t56 -21.5q51 -2 73.5 46.5t-16.5 79.5q-26 23 -57 23t-56.5 -22.5t-23.5 -52.5z" />
    <glyph glyph-name="nine" unicode="9" horiz-adv-x="587" 
d="M326 0h-205l141 209q-5 -1 -13 -1q-68 0 -145 59q-36 29 -59 78t-23 105q0 105 80 179q79 75 194 75q111 0 190 -74q79 -73 79 -178q0 -56 -24 -107q-23 -50 -77 -133zM235 390q26 -25 61 -25t60 25t25 60t-25 59q-25 25 -60 25t-61 -25q-25 -25 -25 -59t25 -60z" />
    <glyph glyph-name="colon" unicode=":" horiz-adv-x="246" 
d="M191 317q-28 -28 -68 -28t-69 28q-28 28 -28 68t28 68q29 28 69 28t68 -28q29 -28 29 -68t-29 -68zM191 55q-28 -28 -68 -28t-69 28q-28 28 -28 68t28 68q29 28 69 28t68 -28q29 -28 29 -68t-29 -68z" />
    <glyph glyph-name="semicolon" unicode=";" horiz-adv-x="266" 
d="M205 315q-28 -28 -68 -28t-69 28q-28 28 -28 68t28 68q29 28 69 28t68 -28q29 -28 29 -68t-29 -68zM-23 -128l87 239h171l-126 -239h-132z" />
    <glyph glyph-name="less" unicode="&#x3c;" horiz-adv-x="495" 
d="M448 65l-441 291l441 291v-190l-158 -101l158 -103v-188z" />
    <glyph glyph-name="equal" unicode="=" horiz-adv-x="600" 
d="M552 392h-504v156h504v-156zM552 148h-504v156h504v-156z" />
    <glyph glyph-name="greater" unicode="&#x3e;" horiz-adv-x="495" 
d="M488 356l-441 -291v188l158 103l-158 101v190z" />
    <glyph glyph-name="question" unicode="?" horiz-adv-x="457" 
d="M241 179q-75 0 -124 44q-48 43 -48 113q0 98 114 151q5 2 15 6.5t15 7t11.5 6.5t9 7.5t2.5 7.5q0 15 -37 15q-84 0 -161 -74v189q73 55 172 55q97 0 155 -46q59 -45 59 -119q0 -59 -26.5 -96.5t-94.5 -66.5l-36 -15q-22 -12 -22 -25q0 -21 37 -21q44 0 76 20v-133
q-58 -26 -117 -26zM156 9q-27 27 -27 65t27 64q28 27 67 27t66 -27q28 -26 28 -64t-28 -65q-27 -26 -66 -26t-67 26z" />
    <glyph glyph-name="at" unicode="@" horiz-adv-x="803" 
d="M30 292q0 107 55 192t139.5 129t178.5 45q157 0 264 -104t107 -246q0 -108 -52 -167.5t-145 -59.5q-50 0 -85 23t-45 61q-16 -31 -79 -31q-62 0 -103 47q-40 46 -40 113t40 113q41 47 103 47q56 0 69 -31v27h131v-220q0 -14 7 -24t17 -10q47 0 47 112q0 91 -70 155
q-70 65 -166 65q-97 0 -166 -69t-69 -167q0 -97 69 -166t167 -69q51 0 93 19l50 -115q-69 -34 -143 -34q-110 0 -198 54q-85 53 -130.5 135t-45.5 176zM374 319q-11 -10 -11 -25t11 -26q11 -10 27 -10t27 10q24 20 5 44q-17 23 -41 18q-11 -4 -18 -11z" />
    <glyph glyph-name="A" unicode="A" horiz-adv-x="770" 
d="M197 0h-198l386 744l386 -744h-198l-45 91h-286zM385 399l-79 -161h158z" />
    <glyph glyph-name="B" unicode="B" horiz-adv-x="645" 
d="M407 0h-350v697h324q79 0 133 -51q54 -50 54 -127q0 -103 -89 -140q67 -14 103.5 -59.5t36.5 -113.5q0 -90 -61 -148q-59 -58 -151 -58zM247 543v-124h92q26 0 42.5 17.5t16.5 45.5q0 26 -17 43.5t-42 17.5h-92zM247 289v-133h118q31 0 51 19.5t20 48.5q0 28 -20 46.5
t-52 18.5h-117z" />
    <glyph glyph-name="C" unicode="C" horiz-adv-x="674" 
d="M410 707q120 0 214 -71v-195q-94 96 -214 96q-80 0 -135 -54t-55 -135t55 -135q56 -53 135 -53q120 0 214 96v-195q-94 -71 -214 -71q-159 0 -270 102q-110 102 -110 256t110 256q110 103 270 103z" />
    <glyph glyph-name="D" unicode="D" horiz-adv-x="744" 
d="M341 0h-284v697h283q181 0 277 -97q97 -97 97 -253q0 -159 -96 -253q-94 -94 -277 -94zM247 517v-345h82q122 0 160 53q34 44 34 122q0 77 -34 119q-42 51 -161 51h-81z" />
    <glyph glyph-name="E" unicode="E" 
d="M579 0h-522v697h514v-171h-324v-96h302v-156h-302v-106h332v-168z" />
    <glyph glyph-name="F" unicode="F" horiz-adv-x="594" 
d="M247 0h-190v697h504v-171h-314v-108h285v-161h-285v-257z" />
    <glyph glyph-name="G" unicode="G" horiz-adv-x="754" 
d="M410 707q123 0 214 -56v-180q-92 66 -214 66q-80 0 -135 -54t-55 -135t55 -135q56 -53 135 -53q92 0 145 60v47h-180v158h344v-280q-50 -71 -132 -113t-177 -42q-159 0 -270 102q-110 102 -110 256t110 256q110 103 270 103z" />
    <glyph glyph-name="H" unicode="H" horiz-adv-x="756" 
d="M247 0h-190v697h190v-242h262v242h190v-697h-190v281h-262v-281z" />
    <glyph glyph-name="I" unicode="I" horiz-adv-x="312" 
d="M251 0h-190v697h190v-697z" />
    <glyph glyph-name="J" unicode="J" horiz-adv-x="391" 
d="M6 -3v168q22 -5 64 -5q50 0 69 21.5t19 66.5v449h190v-436q0 -96 -22 -153q-19 -57 -73.5 -86t-155.5 -32q-49 0 -91 7z" />
    <glyph glyph-name="K" unicode="K" horiz-adv-x="699" 
d="M247 0h-190v697h190v-312l221 312h228l-259 -345l270 -352h-235l-225 306v-306z" />
    <glyph glyph-name="L" unicode="L" horiz-adv-x="532" 
d="M512 0h-455v697h190v-525h265v-172z" />
    <glyph glyph-name="M" unicode="M" horiz-adv-x="878" 
d="M234 0h-177v724l382 -381l382 381v-724h-177v315l-205 -208l-205 208v-315z" />
    <glyph glyph-name="N" unicode="N" horiz-adv-x="758" 
d="M239 0h-182v725l462 -377v349h182v-725l-462 380v-352z" />
    <glyph glyph-name="O" unicode="O" horiz-adv-x="829" 
d="M799 346q0 -148 -113 -255q-112 -105 -272 -105t-272 105q-112 106 -112 255t112 255t272 106t272 -106q113 -105 113 -255zM224 346q0 -80 55 -135t135 -55q78 0 134 56q57 57 57 134t-57 134q-55 57 -134 57q-78 0 -134 -57q-56 -56 -56 -134z" />
    <glyph glyph-name="P" unicode="P" horiz-adv-x="651" 
d="M247 0h-190v697h327q85 0 160 -61q38 -30 61.5 -79.5t23.5 -107.5q0 -106 -77 -177q-76 -70 -168 -70h-137v-202zM247 525v-151h129q14 0 35 10q31 13 31 65q0 54 -31 67q-21 9 -36 9h-128z" />
    <glyph glyph-name="Q" unicode="Q" horiz-adv-x="827" 
d="M413 707q159 0 272 -105q112 -105 112 -254q0 -127 -92 -225l111 -123h-202l-32 36q-77 -46 -169 -46q-158 0 -271 104q-112 105 -112 254t112 254t271 105zM224 348q0 -79 55 -134q55 -54 134 -54q16 0 41 5l-131 144h202l52 -57q26 35 26 96q0 76 -56 132
q-55 57 -134 57q-78 0 -134 -56q-55 -55 -55 -133z" />
    <glyph glyph-name="R" unicode="R" horiz-adv-x="680" 
d="M247 0h-190v697h317q104 0 177 -70t73 -170q0 -66 -32.5 -120t-86.5 -79l174 -258h-218l-142 217h-2h-70v-217zM247 525v-156h106q38 0 60 21.5t22 60.5q0 33 -19 53.5t-47 20.5h-122z" />
    <glyph glyph-name="S" unicode="S" horiz-adv-x="594" 
d="M34 46v190q100 -76 246 -76q113 0 113 51q0 19 -25 32q-23 12 -87 31q-50 15 -91 29q-151 55 -151 196q0 97 78 153q79 55 190 55q120 0 209 -47v-177q-79 55 -199 55q-97 0 -97 -38q0 -27 44 -45q14 -7 40 -16l51 -14q37 -10 46 -13q103 -32 139 -77q38 -47 38 -124
q0 -104 -73.5 -162.5t-216.5 -58.5q-150 0 -254 56z" />
    <glyph glyph-name="T" unicode="T" horiz-adv-x="572" 
d="M383 0h-190v525h-188v172h562v-172h-184v-525z" />
    <glyph glyph-name="U" unicode="U" horiz-adv-x="724" 
d="M49 300v397h190v-377q0 -84 31 -121t92 -37t92 37t31 121v377h190v-397q0 -151 -89 -231q-88 -79 -224 -79t-224 79q-89 80 -89 231z" />
    <glyph glyph-name="V" unicode="V" horiz-adv-x="774" 
d="M773 697l-387 -735l-385 735h205l180 -355l182 355h205z" />
    <glyph glyph-name="W" unicode="W" horiz-adv-x="995" 
d="M498 362l-220 -392l-265 727h195l116 -317l174 313l172 -313l118 317h194l-265 -728z" />
    <glyph glyph-name="X" unicode="X" horiz-adv-x="692" 
d="M209 0h-207l231 356l-219 341h210l122 -193l122 193h210l-219 -341l231 -356h-207l-137 213z" />
    <glyph glyph-name="Y" unicode="Y" horiz-adv-x="716" 
d="M452 0h-188v247l-263 450h204l153 -271l153 271h204l-263 -450v-247z" />
    <glyph glyph-name="Z" unicode="Z" horiz-adv-x="656" 
d="M630 0h-629l339 525h-272v172h577l-331 -525h316v-172z" />
    <glyph glyph-name="bracketleft" unicode="[" horiz-adv-x="408" 
d="M230 541v-635h172v-156h-346v947h346v-156h-172z" />
    <glyph glyph-name="backslash" unicode="\" horiz-adv-x="469" 
d="M502 -136h-164l-334 859h164z" />
    <glyph glyph-name="bracketright" unicode="]" horiz-adv-x="408" 
d="M6 -250v156h172v635h-172v156h346v-947h-346z" />
    <glyph glyph-name="asciicircum" unicode="^" horiz-adv-x="536" 
d="M181 350h-176l263 375l263 -375h-176l-87 125z" />
    <glyph glyph-name="underscore" unicode="_" horiz-adv-x="482" 
d="M-12 -167v137h506v-137h-506z" />
    <glyph glyph-name="grave" unicode="`" horiz-adv-x="510" 
d="M357 552h-136l-103 145h190z" />
    <glyph glyph-name="a" unicode="a" horiz-adv-x="639" 
d="M24 252q0 106 71 182q70 76 178 76q109 0 139 -59v53h181v-504h-181v53q-30 -59 -139 -59q-107 0 -178 75q-71 76 -71 183zM207 252q0 -40 31 -68t74 -28t74 28t31 68q0 39 -31 67.5t-74 28.5t-74 -28.5t-31 -67.5z" />
    <glyph glyph-name="b" unicode="b" horiz-adv-x="639" 
d="M227 0h-181v697h181v-246q29 59 139 59q108 0 178 -76q71 -76 71 -182q0 -107 -71 -183q-70 -75 -178 -75q-110 0 -139 59v-53zM222 252q0 -40 31 -68t74 -28t74 28t31 68q0 39 -31 67.5t-74 28.5t-74 -28.5t-31 -67.5z" />
    <glyph glyph-name="c" unicode="c" horiz-adv-x="500" 
d="M310 520q95 0 151 -41v-171q-49 42 -133 42q-53 0 -87 -27t-34 -69t34 -69t87 -27q83 0 133 41v-170q-56 -41 -151 -41q-125 0 -206 75q-80 77 -80 191q0 115 80 190q80 76 206 76z" />
    <glyph glyph-name="d" unicode="d" horiz-adv-x="639" 
d="M24 252q0 106 71 182q70 76 178 76q109 0 139 -59v246h181v-697h-181v53q-30 -59 -139 -59q-107 0 -178 75q-71 76 -71 183zM207 252q0 -40 31 -68t74 -28t74 28t31 68q0 39 -31 67.5t-74 28.5t-74 -28.5t-31 -67.5z" />
    <glyph glyph-name="e" unicode="e" horiz-adv-x="582" 
d="M24 249v5q0 118 77 190q78 72 198 72q117 0 191 -75q74 -74 74 -184q0 -29 -3 -56h-352q1 -27 31 -43t79 -16q99 0 176 33v-146q-71 -40 -187 -40q-126 0 -206 71q-78 72 -78 189zM209 313h172q0 24 -24.5 43t-57.5 19q-35 0 -61.5 -18.5t-28.5 -43.5z" />
    <glyph glyph-name="f" unicode="f" horiz-adv-x="406" 
d="M290 0h-185v343h-84v161h84v1q0 62 15 100t48 65q50 41 156 41q28 0 70 -6v-145q-17 5 -43 5q-63 0 -63 -52v-9h97v-161h-95v-343z" />
    <glyph glyph-name="g" unicode="g" horiz-adv-x="635" 
d="M73 -171v158q82 -56 194 -56q75 0 109 19q44 24 44 85v17q-32 -54 -147 -54q-107 0 -178 74t-71 180t71 182q70 76 178 76q109 0 139 -59v53h181v-420q0 -100 -16 -154q-16 -56 -75 -97q-76 -53 -193 -53q-139 0 -236 49zM207 252q0 -40 30.5 -67.5t74.5 -27.5
q43 0 74 27.5t31 67.5q0 39 -31 67.5t-74 28.5t-74 -28.5t-31 -67.5z" />
    <glyph glyph-name="h" unicode="h" horiz-adv-x="597" 
d="M231 0h-185v697h185v-255q42 74 135 74q92 0 140.5 -56.5t48.5 -161.5v-298h-185v279q0 37 -17 58t-49 21t-52.5 -23t-20.5 -58v-277z" />
    <glyph glyph-name="i" unicode="i" horiz-adv-x="277" 
d="M210 556q-30 -29 -72 -29t-72 29q-30 30 -30 72t30 71q30 30 72 30t72 -30q30 -29 30 -71t-30 -72zM231 0h-185v504h185v-504z" />
    <glyph glyph-name="j" unicode="j" horiz-adv-x="272" 
d="M35 628q0 42 30 71.5t72 29.5t72 -29.5t30 -71.5q0 -41 -30 -71t-72 -30t-72 30t-30 71zM45 -3v507h185v-534q0 -191 -188 -191q-50 0 -83 5v158q30 -2 31 -2q29 0 42 13t13 44z" />
    <glyph glyph-name="k" unicode="k" horiz-adv-x="563" 
d="M231 0h-185v697h185v-400l125 207h202l-152 -246l162 -258h-206l-131 215v-215z" />
    <glyph glyph-name="l" unicode="l" horiz-adv-x="277" 
d="M231 0h-185v697h185v-697z" />
    <glyph glyph-name="m" unicode="m" horiz-adv-x="886" 
d="M231 0h-185v504h185v-62q41 74 126 74q102 0 138 -78q53 78 169 78q87 0 133.5 -56.5t46.5 -161.5v-298h-185v276q0 36 -15 57t-42 21q-28 0 -46 -22.5t-18 -58.5v-273h-185v276q0 36 -15.5 57t-42.5 21t-45.5 -22.5t-18.5 -58.5v-273z" />
    <glyph glyph-name="n" unicode="n" horiz-adv-x="609" 
d="M231 0h-185v504h185v-62q44 74 141 74q95 0 145 -56.5t50 -161.5v-298h-185v276q0 36 -19 57t-53 21q-35 0 -57 -22.5t-22 -58.5v-273z" />
    <glyph glyph-name="o" unicode="o" horiz-adv-x="620" 
d="M310 519q119 0 202 -79q84 -78 84 -188t-84 -189q-84 -78 -202 -78q-119 0 -203 78q-83 80 -83 189q0 110 83 188q83 79 203 79zM310 154q41 0 73 29q31 28 31 69t-31 69q-32 29 -73 29q-43 0 -73.5 -29t-30.5 -69t30.5 -69t73.5 -29z" />
    <glyph glyph-name="p" unicode="p" horiz-adv-x="639" 
d="M227 -193h-181v697h181v-53q29 59 139 59q108 0 178 -76q71 -76 71 -182q0 -107 -71 -183q-70 -75 -178 -75q-110 0 -139 59v-246zM222 252q0 -40 31 -68t74 -28t74 28t31 68q0 39 -31 67.5t-74 28.5t-74 -28.5t-31 -67.5z" />
    <glyph glyph-name="q" unicode="q" horiz-adv-x="633" 
d="M24 252q0 106 71 182q70 76 178 76q109 0 139 -59v53h181v-697h-181v246q-30 -59 -139 -59q-107 0 -178 75q-71 76 -71 183zM207 252q0 -40 31 -68t74 -28t74 28t31 68q0 39 -31 67.5t-74 28.5t-74 -28.5t-31 -67.5z" />
    <glyph glyph-name="r" unicode="r" horiz-adv-x="431" 
d="M231 0h-185v504h185v-62q44 74 142 74q6 0 23.5 -1.5t19.5 -1.5v-168q-28 5 -50 5q-66 0 -100.5 -33t-34.5 -93v-224z" />
    <glyph glyph-name="s" unicode="s" horiz-adv-x="498" 
d="M38 29v157q105 -51 206 -51q23 0 35 1t21 6.5t9 15.5q0 9 -33 15l-85 17q-52 12 -85 33q-65 41 -65 126q0 81 65 125q66 45 152 45q96 0 166 -36v-150q-72 34 -163 34q-55 0 -55 -20q0 -13 13 -17q18 -6 52 -10q28 -3 59 -10q75 -16 112.5 -50.5t37.5 -97.5
q0 -175 -242 -175q-92 0 -200 42z" />
    <glyph glyph-name="t" unicode="t" horiz-adv-x="376" 
d="M263 0h-185v343h-69v161h69v193h185v-193h104v-161h-104v-343z" />
    <glyph glyph-name="u" unicode="u" horiz-adv-x="602" 
d="M42 209v295h187v-278q0 -68 72 -68t72 68v278h187v-295q0 -109 -75 -165q-76 -56 -184 -56t-184 56q-75 57 -75 165z" />
    <glyph glyph-name="v" unicode="v" horiz-adv-x="596" 
d="M610 504l-312 -531l-312 531h194l118 -201l118 201h194z" />
    <glyph glyph-name="w" unicode="w" horiz-adv-x="750" 
d="M375 231l-171 -258l-207 531h176l79 -201l123 182l123 -182l79 201h176l-207 -531z" />
    <glyph glyph-name="x" unicode="x" horiz-adv-x="573" 
d="M194 0h-202l189 264l-169 240h201l74 -105l74 105h201l-169 -240l189 -264h-202l-93 128z" />
    <glyph glyph-name="y" unicode="y" horiz-adv-x="629" 
d="M136 -194l79 188l-214 510h191l117 -292l121 292h193l-298 -698h-189z" />
    <glyph glyph-name="z" unicode="z" horiz-adv-x="546" 
d="M541 0h-553l261 343h-212v161h518l-256 -343h242v-161z" />
    <glyph glyph-name="braceleft" unicode="{" horiz-adv-x="390" 
d="M105 -43v186q0 51 -40 69q-21 8 -39 10h-6v82q24 2 45 10q40 18 40 69v186q0 56 34 92t86 36h130v-149h-34q-49 0 -49 -44v-115q0 -69 -48 -100q-27 -18 -59 -26q32 -8 59 -26q48 -31 48 -100v-115q0 -44 49 -44h34v-149h-130q-52 0 -86 36t-34 92z" />
    <glyph glyph-name="bar" unicode="|" horiz-adv-x="296" 
d="M235 -28h-174v753h174v-753z" />
    <glyph glyph-name="braceright" unicode="}" horiz-adv-x="390" 
d="M35 -171v149h34q49 0 49 44v115q0 69 48 100q27 18 59 26q-32 8 -59 26q-48 31 -48 100v115q0 44 -49 44h-34v149h130q52 0 86 -36t34 -92v-186q0 -51 40 -69q21 -8 39 -10h6v-82q-24 -2 -45 -10q-40 -18 -40 -69v-186q0 -56 -34 -92t-86 -36h-130z" />
    <glyph glyph-name="asciitilde" unicode="~" horiz-adv-x="492" 
d="M122 270l-98 16q9 77 48 122.5t100 45.5q39 0 84 -22t70 -22q34 0 44 42l98 -16q-21 -175 -150 -175q-39 0 -86 22t-70 22q-34 0 -40 -35z" />
    <glyph glyph-name="exclamdown" unicode="&#xa1;" horiz-adv-x="312" 
d="M224 350q-28 -28 -68 -28t-69 28q-28 28 -28 68t28 68q29 28 69 28t68 -28q29 -28 29 -68t-29 -68zM264 -193h-217l28 490h161z" />
    <glyph glyph-name="cent" unicode="&#xa2;" horiz-adv-x="537" 
d="M281 0h-88l20 101q-84 25 -137 94q-52 67 -52 158q0 114 82 190t200 76h5l14 78h88l-17 -92q70 -23 127 -85l-111 -107q-24 23 -46 34l-38 -199h1q46 5 83 45l111 -107q-91 -99 -217 -99h-9zM247 262l37 195h-1q-39 -8 -63 -36.5t-24 -67.5q0 -59 51 -91z" />
    <glyph glyph-name="sterling" unicode="&#xa3;" horiz-adv-x="603" 
d="M583 0h-557v127h9q83 0 121.5 27.5t38.5 72.5q0 16 -15 50h-119v117h54q-33 64 -33 108q0 87 70 148q71 62 170 62q95 0 159 -64q66 -64 66 -156h-157q0 20 -19.5 34t-47.5 14q-25 0 -44 -17.5t-19 -40.5q0 -30 41 -88h168v-117h-105q14 -31 14 -50q0 -53 -39 -75h244
v-152z" />
    <glyph glyph-name="currency" unicode="&#xa4;" horiz-adv-x="678" 
d="M140 27l-110 110l88 77q-33 55 -33 119t33 119l-88 77l110 110l81 -93q53 28 118 28q64 0 117 -28l82 93l110 -110l-88 -77q33 -55 33 -119t-33 -119l88 -77l-110 -110l-82 92q-56 -27 -117 -27q-63 0 -118 27zM277 272q26 -25 62 -25t61 25q26 26 26 61t-26 60
q-25 26 -61 26t-62 -26q-25 -25 -25 -60t25 -61z" />
    <glyph glyph-name="yen" unicode="&#xa5;" horiz-adv-x="716" 
d="M452 0h-188v129h-212v120h211l-43 73h-168v120h98l-149 255h204l153 -271l153 271h204l-150 -255h99v-120h-169l-42 -73h211v-120h-212v-129z" />
    <glyph glyph-name="brokenbar" unicode="&#xa6;" horiz-adv-x="296" 
d="M235 415h-174v282h174v-282zM235 0h-174v294h174v-294z" />
    <glyph glyph-name="section" unicode="&#xa7;" horiz-adv-x="575" 
d="M42 9h176q6 -35 20 -51.5t45 -16.5q25 0 43 14.5t18 35.5q0 26 -18 43q-21 20 -60 31l-37 12l-29 10q-173 54 -173 180q0 83 63 132q-42 43 -42 107q0 94 72 149q74 57 166 57q115 0 180 -62t65 -155h-176q-6 35 -20 51.5t-45 16.5q-25 0 -43 -14.5t-18 -35.5
q0 -35 21 -48q20 -15 123 -48q173 -56 173 -180q0 -84 -63 -132q42 -45 42 -107q0 -94 -73 -149q-72 -57 -165 -57q-116 0 -181 62q-64 61 -64 155zM327 190l19 -6q23 20 23 50q0 32 -44 52q-39 17 -80 28l-18 5q-23 -20 -23 -49q0 -34 44 -52q42 -17 79 -28z" />
    <glyph glyph-name="dieresis" unicode="&#xa8;" horiz-adv-x="510" 
d="M360 698q35 0 59 -23t24 -56q2 -32 -24.5 -55.5t-58.5 -23.5t-59 23q-19 17 -23 41t5.5 45t30 35.5t46.5 13.5zM150 698q35 0 59 -23t24 -56q2 -32 -24.5 -55.5t-58.5 -23.5t-59 23q-19 17 -23 41t5.5 45t30 35.5t46.5 13.5z" />
    <glyph glyph-name="copyright" unicode="&#xa9;" horiz-adv-x="807" 
d="M30 348q0 148 106 258q106 112 267 112q95 0 181 -47q87 -47 139 -132q54 -85 54 -191q0 -148 -108 -259q-107 -111 -266 -111q-95 0 -180 45q-83 46 -139 132q-54 85 -54 193zM403 108q102 0 172 70q72 70 72 170q0 99 -72 169q-71 71 -172 71q-99 0 -172 -71
q-71 -71 -71 -169q0 -99 71 -170q71 -70 172 -70zM204 347q0 83 60 138q61 56 147 56q89 0 158 -79l-94 -88q-28 28 -64 28q-24 0 -41 -16t-17 -39q0 -24 17 -40t41 -16q37 0 64 29l94 -88q-70 -79 -158 -79t-147 55q-60 56 -60 139z" />
    <glyph glyph-name="ordfeminine" unicode="&#xaa;" horiz-adv-x="477" 
d="M443 414v-93q-19 -9 -49 -9q-43 0 -63 14q-12 9 -21 26q-34 -43 -128 -43q-63 0 -102 31.5t-39 83.5q0 55 40 85t132 41q49 10 56 16q4 4 4 10q0 14 -32 14q-59 0 -100 -44l-76 72q61 84 174 84q86 0 132.5 -35t46.5 -99v-125q0 -29 25 -29zM272 476v2q-3 -2 -12.5 -4
t-23.5 -4.5t-20 -3.5q-30 -8 -30 -23q0 -14 23 -14q63 0 63 47z" />
    <glyph glyph-name="guillemotleft" unicode="&#xab;" horiz-adv-x="643" 
d="M616 61h-190l-126 192l126 192h190l-130 -192zM345 61h-190l-126 192l126 192h190l-130 -192z" />
    <glyph glyph-name="logicalnot" unicode="&#xac;" horiz-adv-x="662" 
d="M441 389h-394v156h568v-327h-174v171z" />
    <glyph glyph-name="registered" unicode="&#xae;" horiz-adv-x="424" 
d="M212 349q-78 0 -134 54q-55 54 -55 128q0 76 55 128q56 53 134 53t133 -54q56 -53 56 -127q0 -75 -57 -129q-56 -53 -132 -53zM324 531q0 45 -32.5 76.5t-79.5 31.5t-79.5 -31.5t-32.5 -76.5q0 -46 32.5 -77.5t79.5 -31.5t79.5 31.5t32.5 77.5zM203 460h-53v146h72
q22 0 38 -16t16 -38q0 -28 -22 -40l34 -52h-62l-22 38h-1v-38zM202 560v-22h14q7 0 10 5.5t0.5 11t-8.5 5.5h-16z" />
    <glyph glyph-name="overscore" unicode="&#xaf;" horiz-adv-x="510" 
d="M419 557h-328v109h328v-109z" />
    <glyph glyph-name="degree" unicode="&#xb0;" horiz-adv-x="444" 
d="M223 345q-79 0 -134 52t-55 127q0 73 55 125t134 52q77 0 132 -52t55 -125q0 -75 -55 -127t-132 -52zM223 460q26 0 45 19t19 45q0 25 -19 43.5t-45 18.5q-27 0 -46 -18.5t-19 -43.5q0 -26 19 -45t46 -19z" />
    <glyph glyph-name="plusminus" unicode="&#xb1;" horiz-adv-x="600" 
d="M387 195h-174v173h-165v156h165v173h174v-173h165v-156h-165v-173zM552 0h-504v156h504v-156z" />
    <glyph glyph-name="twosuperior" unicode="&#xb2;" horiz-adv-x="340" 
d="M326 328h-318l177 206q14 17 14 31t-7.5 23t-18.5 9q-14 0 -24 -12t-10 -30h-115q0 63 43 106t105 43q59 0 100 -38t41 -93q0 -43 -28 -75l-46 -53h87v-117z" />
    <glyph glyph-name="threesuperior" unicode="&#xb3;" horiz-adv-x="333" 
d="M1 388l95 71q24 -21 46 -21q16 0 27.5 7.5t11.5 19.5q0 15 -11 21t-37 6q-29 0 -66 -4l65 92h-99v117h284l-90 -129h1q38 -8 61.5 -36.5t23.5 -65.5q0 -62 -46 -102.5t-123 -40.5q-90 0 -143 65z" />
    <glyph glyph-name="acute" unicode="&#xb4;" horiz-adv-x="510" 
d="M286 552h-136l49 145h190z" />
    <glyph glyph-name="mu" unicode="&#xb5;" horiz-adv-x="599" 
d="M220 64v-314h-174v754h174v-276q0 -38 24 -62.5t61 -24.5t57.5 22.5t20.5 61.5v279h174v-300q0 -103 -50.5 -159.5t-143.5 -56.5q-97 0 -143 76z" />
    <glyph glyph-name="paragraph" unicode="&#xb6;" horiz-adv-x="799" 
d="M450 0h-189v195q-101 4 -176 76q-72 71 -72 172q0 106 76 179q77 75 184 75h514v-172h-68v-525h-187v525h-82v-525z" />
    <glyph glyph-name="middot" unicode="&#xb7;" horiz-adv-x="228" 
d="M181 185q-28 -28 -68 -28t-69 28q-28 28 -28 68t28 68q29 28 69 28t68 -28q29 -28 29 -68t-29 -68z" />
    <glyph glyph-name="cedilla" unicode="&#xb8;" horiz-adv-x="510" 
d="M190 -76l32 76h96l-21 -46q28 0 47 -21.5t19 -54.5q0 -50 -34.5 -78t-94.5 -28q-62 0 -103 30l34 72q19 -12 44 -12q15 0 24.5 7.5t9.5 20.5q0 34 -53 34z" />
    <glyph glyph-name="onesuperior" unicode="&#xb9;" horiz-adv-x="248" 
d="M212 328h-133v252h-59v117h192v-369z" />
    <glyph glyph-name="ordmasculine" unicode="&#xba;" horiz-adv-x="473" 
d="M236 312q-89 0 -150 58q-62 59 -62 140q0 79 62 138t150 59q86 0 150 -59q63 -58 63 -138q0 -82 -63 -140q-62 -58 -150 -58zM236 466q18 0 33 13.5t15 30.5q0 16 -15 29.5t-33 13.5t-33 -13.5t-15 -29.5q0 -17 14.5 -30.5t33.5 -13.5z" />
    <glyph glyph-name="guillemotright" unicode="&#xbb;" horiz-adv-x="643" 
d="M488 61h-190l130 192l-130 192h190l126 -192zM217 61h-190l130 192l-130 192h190l126 -192z" />
    <glyph glyph-name="onequarter" unicode="&#xbc;" horiz-adv-x="766" 
d="M623 59h-212l128 311h122l-84 -207h46v70h115v-233h-115v59zM202 0h-163l486 697h163zM212 328h-133v252h-59v117h192v-369z" />
    <glyph glyph-name="onehalf" unicode="&#xbd;" horiz-adv-x="745" 
d="M731 0h-318l177 206q14 17 14 31t-7.5 23t-18.5 9q-14 0 -24 -12t-10 -30h-115q0 63 43 106t105 43q59 0 100 -38t41 -93q0 -43 -28 -75l-46 -53h87v-117zM183 0h-163l486 697h163zM212 328h-133v252h-59v117h192v-369z" />
    <glyph glyph-name="threequarters" unicode="&#xbe;" horiz-adv-x="780" 
d="M226 0h-163l486 697h163zM144 323q-90 0 -143 65l95 71q24 -21 46 -21q16 0 27.5 7.5t11.5 19.5q0 15 -11 21t-37 6q-29 0 -66 -4l65 92h-99v117h284l-90 -129h1q38 -8 61.5 -36.5t23.5 -65.5q0 -62 -46 -102.5t-123 -40.5zM637 59h-212l128 311h122l-84 -207h46v70h115
v-233h-115v59z" />
    <glyph glyph-name="questiondown" unicode="&#xbf;" horiz-adv-x="457" 
d="M293 358q-27 -26 -66 -26t-67 26q-27 27 -27 65t27 64q28 27 67 27t66 -27q28 -26 28 -64t-28 -65zM26 -45q0 59 26.5 96.5t94.5 66.5q3 1 11.5 4.5t15 6.5t8.5 4q23 9 23 25q0 21 -37 21q-44 0 -76 -20v133q58 26 117 26q75 0 124 -44q48 -43 48 -113q0 -98 -114 -151
q-5 -2 -15 -6.5t-15 -7t-11.5 -6.5t-9 -7.5t-2.5 -7.5q0 -15 37 -15q84 0 161 74v-189q-73 -55 -172 -55q-97 0 -155 46q-59 45 -59 119z" />
    <glyph glyph-name="Agrave" unicode="&#xc0;" horiz-adv-x="770" 
d="M197 0h-198l386 744l386 -744h-198l-45 91h-286zM385 399l-79 -161h158zM457 745h-136l-103 145h190z" />
    <glyph glyph-name="Aacute" unicode="&#xc1;" horiz-adv-x="770" 
d="M197 0h-198l386 744l386 -744h-198l-45 91h-286zM385 399l-79 -161h158zM451 745h-136l49 145h190z" />
    <glyph glyph-name="Acircumflex" unicode="&#xc2;" horiz-adv-x="770" 
d="M197 0h-198l386 744l386 -744h-198l-45 91h-286zM385 399l-79 -161h158zM338 756h-155l202 159l203 -159h-155l-48 46z" />
    <glyph glyph-name="Atilde" unicode="&#xc3;" horiz-adv-x="770" 
d="M255 745l-98 16q9 68 48 108t100 40q41 0 89 -22q50 -22 75 -22q33 0 44 42l98 -16q-21 -155 -150 -155q-41 0 -91 22t-75 22q-34 0 -40 -35zM197 0h-198l386 744l386 -744h-198l-45 91h-286zM385 399l-79 -161h158z" />
    <glyph glyph-name="Adieresis" unicode="&#xc4;" horiz-adv-x="770" 
d="M530 843q35 0 59 -23t24 -56q2 -32 -24.5 -55.5t-58.5 -23.5t-59 23q-19 17 -23 41t5.5 45t30 35.5t46.5 13.5zM241 843q35 0 59 -23t24 -56q2 -32 -24.5 -55.5t-58.5 -23.5t-59 23q-19 17 -23 41t5.5 45t30 35.5t46.5 13.5zM197 0h-198l386 744l386 -744h-198l-45 91
h-286zM385 399l-79 -161h158z" />
    <glyph glyph-name="Aring" unicode="&#xc5;" horiz-adv-x="770" 
d="M197 0h-198l322 623q-32 16 -51 45t-19 64q0 51 39 87q40 37 95 37q56 0 93 -37q39 -36 39 -87q0 -35 -19 -64t-50 -45l323 -623h-198l-45 91h-286zM360 708q16 -14 34.5 -7.5t23 23t-8.5 32.5q-14 16 -33 9t-24.5 -24t8.5 -33zM385 399l-79 -161h158z" />
    <glyph glyph-name="AE" unicode="&#xc6;" horiz-adv-x="960" 
d="M167 0h-213l574 697h384v-171h-244v-96h225v-156h-225v-106h252v-168h-439v91h-237zM481 384l-121 -146h121v146z" />
    <glyph glyph-name="Ccedilla" unicode="&#xc7;" horiz-adv-x="674" 
d="M30 348q0 154 110 256q110 103 270 103q120 0 214 -71v-195q-94 96 -214 96q-80 0 -135 -54t-55 -135t55 -135q56 -53 135 -53q120 0 214 96v-195q-74 -57 -169 -68h-1l-16 -39q28 0 47 -21.5t19 -54.5q0 -50 -34.5 -78t-94.5 -28q-63 0 -103 30l34 72q20 -12 44 -12
q15 0 24.5 7.5t9.5 20.5q0 34 -53 34l29 69q-140 16 -236 115q-94 98 -94 240z" />
    <glyph glyph-name="Egrave" unicode="&#xc8;" 
d="M404 745h-130l-93 145h170zM579 0h-522v697h514v-171h-324v-96h302v-156h-302v-106h332v-168z" />
    <glyph glyph-name="Eacute" unicode="&#xc9;" 
d="M579 0h-522v697h514v-171h-324v-96h302v-156h-302v-106h332v-168zM375 745h-136l49 145h190z" />
    <glyph glyph-name="Ecircumflex" unicode="&#xca;" 
d="M579 0h-522v697h514v-171h-324v-96h302v-156h-302v-106h332v-168zM270 756h-155l202 159l203 -159h-155l-48 46z" />
    <glyph glyph-name="Edieresis" unicode="&#xcb;" 
d="M420 891q35 0 59 -23t24 -56q2 -32 -24.5 -55.5t-58.5 -23.5t-59 23q-19 17 -23 41t5.5 45t30 35.5t46.5 13.5zM210 891q35 0 59 -23t24 -56q2 -32 -24.5 -55.5t-58.5 -23.5t-59 23q-19 17 -23 41t5.5 45t30 35.5t46.5 13.5zM579 0h-522v697h514v-171h-324v-96h302v-156
h-302v-106h332v-168z" />
    <glyph glyph-name="Igrave" unicode="&#xcc;" horiz-adv-x="312" 
d="M247 745h-136l-103 145h190zM251 0h-190v697h190v-697z" />
    <glyph glyph-name="Iacute" unicode="&#xcd;" horiz-adv-x="312" 
d="M201 745h-136l49 145h190zM251 0h-190v697h190v-697z" />
    <glyph glyph-name="Icircumflex" unicode="&#xce;" horiz-adv-x="312" 
d="M109 745h-155l202 170l203 -170h-155l-48 53zM251 0h-190v697h190v-697z" />
    <glyph glyph-name="Idieresis" unicode="&#xcf;" horiz-adv-x="312" 
d="M261 891q35 0 59 -23t24 -56q2 -32 -24.5 -55.5t-58.5 -23.5t-59 23q-19 17 -23 41t5.5 45t30 35.5t46.5 13.5zM51 891q35 0 59 -23t24 -56q3 -50 -52 -72t-89 16q-20 17 -24 41t5.5 45t30.5 35.5t46 13.5zM251 0h-190v697h190v-697z" />
    <glyph glyph-name="Eth" unicode="&#xd0;" horiz-adv-x="757" 
d="M354 0h-284v261h-75v172h75v264h283q181 0 277 -97q97 -97 97 -253q0 -159 -96 -253q-94 -94 -277 -94zM260 261v-89h82q122 0 160 53q34 44 34 122q0 77 -34 119q-42 51 -161 51h-81v-84h132v-172h-132z" />
    <glyph glyph-name="Ntilde" unicode="&#xd1;" horiz-adv-x="758" 
d="M249 745l-98 16q9 68 48 108t100 40q41 0 89 -22q50 -22 75 -22q33 0 44 42l98 -16q-21 -155 -150 -155q-41 0 -91 22t-75 22q-34 0 -40 -35zM239 0h-182v725l462 -377v349h182v-725l-462 380v-352z" />
    <glyph glyph-name="Ograve" unicode="&#xd2;" horiz-adv-x="829" 
d="M799 346q0 -148 -113 -255q-112 -105 -272 -105t-272 105q-112 106 -112 255t112 255t272 106t272 -106q113 -105 113 -255zM224 346q0 -80 55 -135t135 -55q78 0 134 56q57 57 57 134t-57 134q-55 57 -134 57q-78 0 -134 -57q-56 -56 -56 -134zM479 745h-136l-103 145
h190z" />
    <glyph glyph-name="Oacute" unicode="&#xd3;" horiz-adv-x="829" 
d="M799 346q0 -148 -113 -255q-112 -105 -272 -105t-272 105q-112 106 -112 255t112 255t272 106t272 -106q113 -105 113 -255zM224 346q0 -80 55 -135t135 -55q78 0 134 56q57 57 57 134t-57 134q-55 57 -134 57q-78 0 -134 -57q-56 -56 -56 -134zM481 745h-136l49 145h190
z" />
    <glyph glyph-name="Ocircumflex" unicode="&#xd4;" horiz-adv-x="829" 
d="M368 745h-155l202 170l203 -170h-155l-48 53zM799 346q0 -148 -113 -255q-112 -105 -272 -105t-272 105q-112 106 -112 255t112 255t272 106t272 -106q113 -105 113 -255zM224 346q0 -80 55 -135t135 -55q78 0 134 56q57 57 57 134t-57 134q-55 57 -134 57
q-78 0 -134 -57q-56 -56 -56 -134z" />
    <glyph glyph-name="Otilde" unicode="&#xd5;" horiz-adv-x="829" 
d="M286 745l-98 16q9 68 48 108t100 40q41 0 89 -22q50 -22 75 -22q34 0 44 42l98 -16q-21 -155 -150 -155q-41 0 -91 22t-75 22q-34 0 -40 -35zM799 346q0 -148 -113 -255q-112 -105 -272 -105t-272 105q-112 106 -112 255t112 255t272 106t272 -106q113 -105 113 -255z
M224 346q0 -80 55 -135t135 -55q78 0 134 56q57 57 57 134t-57 134q-55 57 -134 57q-78 0 -134 -57q-56 -56 -56 -134z" />
    <glyph glyph-name="Odieresis" unicode="&#xd6;" horiz-adv-x="829" 
d="M799 346q0 -148 -113 -255q-112 -105 -272 -105t-272 105q-112 106 -112 255t112 255t272 106t272 -106q113 -105 113 -255zM224 346q0 -80 55 -135t135 -55q78 0 134 56q57 57 57 134t-57 134q-55 57 -134 57q-78 0 -134 -57q-56 -56 -56 -134zM520 891q35 0 59 -23
t24 -56q2 -32 -24.5 -55.5t-58.5 -23.5t-59 23q-19 17 -23 41t5.5 45t30 35.5t46.5 13.5zM310 891q35 0 59 -23t24 -56q2 -32 -24.5 -55.5t-58.5 -23.5t-59 23q-19 17 -23 41t5.5 45t30 35.5t46.5 13.5z" />
    <glyph glyph-name="multiply" unicode="&#xd7;" horiz-adv-x="506" 
d="M253 223l-105 -104l-110 111l104 104l-104 104l110 111l105 -105l105 105l110 -111l-104 -104l104 -104l-110 -111z" />
    <glyph glyph-name="Oslash" unicode="&#xd8;" horiz-adv-x="827" 
d="M189 -66l-122 97l60 76q-97 101 -97 241q0 149 112 254t271 105q85 0 162 -33l64 81l122 -97l-58 -73q96 -101 96 -237q0 -149 -113 -256q-112 -106 -273 -106q-80 0 -158 32zM246 258l215 272q-24 7 -48 7q-78 0 -134 -56q-55 -55 -55 -133q0 -49 22 -90zM582 432
l-211 -268q15 -4 42 -4q77 0 133 56q57 56 57 132q0 42 -21 84z" />
    <glyph glyph-name="Ugrave" unicode="&#xd9;" horiz-adv-x="724" 
d="M49 300v397h190v-377q0 -84 31 -121t92 -37t92 37t31 121v377h190v-397q0 -151 -89 -231q-88 -79 -224 -79t-224 79q-89 80 -89 231zM447 745h-136l-103 145h190z" />
    <glyph glyph-name="Uacute" unicode="&#xda;" horiz-adv-x="724" 
d="M49 300v397h190v-377q0 -84 31 -121t92 -37t92 37t31 121v377h190v-397q0 -151 -89 -231q-88 -79 -224 -79t-224 79q-89 80 -89 231zM426 745h-136l49 145h190z" />
    <glyph glyph-name="Ucircumflex" unicode="&#xdb;" horiz-adv-x="724" 
d="M315 745h-155l202 170l203 -170h-155l-48 53zM49 300v397h190v-377q0 -84 31 -121t92 -37t92 37t31 121v377h190v-397q0 -151 -89 -231q-88 -79 -224 -79t-224 79q-89 80 -89 231z" />
    <glyph glyph-name="Udieresis" unicode="&#xdc;" horiz-adv-x="724" 
d="M467 891q35 0 59 -23t24 -56q2 -32 -24.5 -55.5t-58.5 -23.5t-59 23q-19 17 -23 41t5.5 45t30 35.5t46.5 13.5zM257 891q35 0 59 -23t24 -56q2 -32 -24.5 -55.5t-58.5 -23.5t-59 23q-19 17 -23 41t5.5 45t30 35.5t46.5 13.5zM49 300v397h190v-377q0 -84 31 -121t92 -37
t92 37t31 121v377h190v-397q0 -151 -89 -231q-88 -79 -224 -79t-224 79q-89 80 -89 231z" />
    <glyph glyph-name="Yacute" unicode="&#xdd;" horiz-adv-x="716" 
d="M452 0h-188v247l-263 450h204l153 -271l153 271h204l-263 -450v-247zM419 745h-136l49 145h190z" />
    <glyph glyph-name="Thorn" unicode="&#xde;" horiz-adv-x="583" 
d="M247 0h-190v697h190v-114h61q106 0 179 -69q74 -69 74 -167t-74 -167q-73 -69 -179 -69h-61v-111zM247 413v-132h61q27 0 46.5 19.5t19.5 46.5t-19.5 46.5t-46.5 19.5h-61z" />
    <glyph glyph-name="germandbls" unicode="&#xdf;" 
d="M231 0h-185v518q0 82 62 138t154 56t153 -55q63 -54 63 -132q0 -33 -16 -58q60 -27 96.5 -85t36.5 -129q0 -113 -75 -189q-73 -76 -188 -76q-39 0 -71 5v165q15 -4 51 -4q44 0 75.5 29t31.5 70q0 39 -32 68t-75 29q-21 0 -51 -5v112q51 5 51 49q0 16 -12 27.5t-29 11.5
t-28.5 -13t-11.5 -31v-501z" />
    <glyph glyph-name="agrave" unicode="&#xe0;" horiz-adv-x="639" 
d="M24 252q0 106 71 182q70 76 178 76q109 0 139 -59v53h181v-504h-181v53q-30 -59 -139 -59q-107 0 -178 75q-71 76 -71 183zM207 252q0 -40 31 -68t74 -28t74 28t31 68q0 39 -31 67.5t-74 28.5t-74 -28.5t-31 -67.5zM427 552h-136l-103 145h190z" />
    <glyph glyph-name="aacute" unicode="&#xe1;" horiz-adv-x="639" 
d="M24 252q0 106 71 182q70 76 178 76q109 0 139 -59v53h181v-504h-181v53q-30 -59 -139 -59q-107 0 -178 75q-71 76 -71 183zM207 252q0 -40 31 -68t74 -28t74 28t31 68q0 39 -31 67.5t-74 28.5t-74 -28.5t-31 -67.5zM401 552h-136l49 145h190z" />
    <glyph glyph-name="acircumflex" unicode="&#xe2;" horiz-adv-x="639" 
d="M24 252q0 106 71 182q70 76 178 76q109 0 139 -59v53h181v-504h-181v53q-30 -59 -139 -59q-107 0 -178 75q-71 76 -71 183zM207 252q0 -40 31 -68t74 -28t74 28t31 68q0 39 -31 67.5t-74 28.5t-74 -28.5t-31 -67.5zM297 552h-155l202 159l203 -159h-155l-48 46z" />
    <glyph glyph-name="atilde" unicode="&#xe3;" horiz-adv-x="639" 
d="M24 252q0 106 71 182q70 76 178 76q109 0 139 -59v53h181v-504h-181v53q-30 -59 -139 -59q-107 0 -178 75q-71 76 -71 183zM207 252q0 -40 31 -68t74 -28t74 28t31 68q0 39 -31 67.5t-74 28.5t-74 -28.5t-31 -67.5zM203 557l-98 16q9 65 48.5 104t99.5 39q41 0 89 -22
q50 -22 75 -22q33 0 44 42l98 -16q-23 -150 -150 -150q-41 0 -91 22t-75 22q-34 0 -40 -35z" />
    <glyph glyph-name="adieresis" unicode="&#xe4;" horiz-adv-x="639" 
d="M24 252q0 106 71 182q70 76 178 76q109 0 139 -59v53h181v-504h-181v53q-30 -59 -139 -59q-107 0 -178 75q-71 76 -71 183zM207 252q0 -40 31 -68t74 -28t74 28t31 68q0 39 -31 67.5t-74 28.5t-74 -28.5t-31 -67.5zM448 698q35 0 59 -23t24 -56q2 -32 -24.5 -55.5
t-58.5 -23.5t-59 23q-19 17 -23 41t5.5 45t30 35.5t46.5 13.5zM238 698q35 0 59 -23t24 -56q2 -32 -24.5 -55.5t-58.5 -23.5t-59 23q-19 17 -23 41t5.5 45t30 35.5t46.5 13.5z" />
    <glyph glyph-name="aring" unicode="&#xe5;" horiz-adv-x="639" 
d="M24 252q0 106 71 182q70 76 178 76q109 0 139 -59v53h181v-504h-181v53q-30 -59 -139 -59q-107 0 -178 75q-71 76 -71 183zM207 252q0 -40 31 -68t74 -28t74 28t31 68q0 39 -31 67.5t-74 28.5t-74 -28.5t-31 -67.5zM435 579q-37 -36 -93 -36q-54 0 -95 36q-39 37 -39 88
t39 87q40 37 95 37q56 0 93 -37q39 -36 39 -87t-39 -88zM317 643q16 -14 34.5 -7.5t23 23t-8.5 32.5q-14 16 -33 9t-24.5 -24t8.5 -33z" />
    <glyph glyph-name="ae" unicode="&#xe6;" horiz-adv-x="861" 
d="M25 143q0 83 55.5 127t176.5 48q49 1 71 4q26 5 26 23q0 29 -74 29q-75 0 -128 -59l-102 88q83 110 228 110q115 0 165 -59q63 60 156 60q107 0 175 -74t68 -182q0 -33 -4 -56h-326q2 -27 30.5 -43.5t73.5 -16.5q53 0 89 39l104 -100q-82 -91 -197 -91q-108 0 -176 62
q-64 -64 -202 -64q-97 0 -153 42t-56 113zM203 171q0 -34 50 -34q100 0 100 59v19q-26 -8 -74 -9l-41 -3q-13 -1 -24 -9.5t-11 -22.5zM515 318h146q0 23 -18 39t-45 16q-33 0 -57.5 -16.5t-25.5 -38.5z" />
    <glyph glyph-name="ccedilla" unicode="&#xe7;" horiz-adv-x="500" 
d="M24 254q0 115 80 190q80 76 206 76q95 0 151 -41v-171q-49 42 -133 42q-53 0 -87 -27t-34 -69t34 -69t87 -27q83 0 133 41v-170q-50 -35 -134 -41h-1l-15 -34q28 0 47 -21.5t19 -54.5q0 -50 -34.5 -78t-94.5 -28q-62 0 -103 30l34 72q19 -12 44 -12q15 0 24.5 7.5
t9.5 20.5q0 34 -53 34l30 73q-95 21 -153 91q-57 71 -57 166z" />
    <glyph glyph-name="egrave" unicode="&#xe8;" horiz-adv-x="582" 
d="M24 249v5q0 118 77 190q78 72 198 72q117 0 191 -75q74 -74 74 -184q0 -29 -3 -56h-352q1 -27 31 -43t79 -16q99 0 176 33v-146q-71 -40 -187 -40q-126 0 -206 71q-78 72 -78 189zM209 313h172q0 24 -24.5 43t-57.5 19q-35 0 -61.5 -18.5t-28.5 -43.5zM382 552h-136
l-103 145h190z" />
    <glyph glyph-name="eacute" unicode="&#xe9;" horiz-adv-x="582" 
d="M24 249v5q0 118 77 190q78 72 198 72q117 0 191 -75q74 -74 74 -184q0 -29 -3 -56h-352q1 -27 31 -43t79 -16q99 0 176 33v-146q-71 -40 -187 -40q-126 0 -206 71q-78 72 -78 189zM209 313h172q0 24 -24.5 43t-57.5 19q-35 0 -61.5 -18.5t-28.5 -43.5zM353 552h-136
l49 145h190z" />
    <glyph glyph-name="ecircumflex" unicode="&#xea;" horiz-adv-x="582" 
d="M24 249v5q0 118 77 190q78 72 198 72q117 0 191 -75q74 -74 74 -184q0 -29 -3 -56h-352q1 -27 31 -43t79 -16q99 0 176 33v-146q-71 -40 -187 -40q-126 0 -206 71q-78 72 -78 189zM209 313h172q0 24 -24.5 43t-57.5 19q-35 0 -61.5 -18.5t-28.5 -43.5zM252 552h-155
l202 159l203 -159h-155l-48 46z" />
    <glyph glyph-name="edieresis" unicode="&#xeb;" horiz-adv-x="582" 
d="M24 249v5q0 118 77 190q78 72 198 72q117 0 191 -75q74 -74 74 -184q0 -29 -3 -56h-352q1 -27 31 -43t79 -16q99 0 176 33v-146q-71 -40 -187 -40q-126 0 -206 71q-78 72 -78 189zM209 313h172q0 24 -24.5 43t-57.5 19q-35 0 -61.5 -18.5t-28.5 -43.5zM403 698
q35 0 59 -23t24 -56q2 -32 -24.5 -55.5t-58.5 -23.5t-59 23q-19 17 -23 41t5.5 45t30 35.5t46.5 13.5zM193 698q35 0 59 -23t24 -56q2 -32 -24.5 -55.5t-58.5 -23.5t-59 23q-19 17 -23 41t5.5 45t30 35.5t46.5 13.5z" />
    <glyph glyph-name="igrave" unicode="&#xec;" horiz-adv-x="266" 
d="M217 552h-136l-97 145h190zM232 0h-185v504h185v-504z" />
    <glyph glyph-name="iacute" unicode="&#xed;" horiz-adv-x="266" 
d="M185 552h-136l43 145h190zM232 0h-185v504h185v-504z" />
    <glyph glyph-name="icircumflex" unicode="&#xee;" horiz-adv-x="343" 
d="M171 604l-35 -52h-149l184 159l185 -159h-149zM264 0h-185v504h185v-504z" />
    <glyph glyph-name="idieresis" unicode="&#xef;" horiz-adv-x="329" 
d="M313 568q-23 -22 -56 -22t-57 22q-23 23 -23 54t23 53q24 23 57 23t56 -23q24 -22 24 -53t-24 -54zM127 568q-23 -22 -56 -22t-57 22q-23 23 -23 54t23 53q24 23 57 23t56 -23q24 -22 24 -53t-24 -54zM257 0h-185v504h185v-504z" />
    <glyph glyph-name="eth" unicode="&#xf0;" horiz-adv-x="547" 
d="M24 223q0 91 66 155q67 65 163 65q58 0 93 -32q-27 46 -68 84l-46 -52l-105 89l36 43q-34 16 -97 32l52 142q78 -19 147 -59l59 69l104 -91l-52 -60q85 -79 122 -182q25 -69 25 -140q0 -138 -72 -217q-71 -78 -188 -78q-98 0 -169 68q-70 67 -70 164zM201 223
q0 -28 21 -47.5t52 -19.5q30 0 51.5 19.5t21.5 47.5q0 27 -21.5 46.5t-51.5 19.5q-31 0 -52 -19.5t-21 -46.5z" />
    <glyph glyph-name="ntilde" unicode="&#xf1;" horiz-adv-x="609" 
d="M231 0h-185v504h185v-62q44 74 141 74q95 0 145 -56.5t50 -161.5v-298h-185v276q0 36 -19 57t-53 21q-35 0 -57 -22.5t-22 -58.5v-273zM177 557l-98 16q9 65 48.5 104t99.5 39q41 0 89 -22q50 -22 75 -22q33 0 44 42l98 -16q-23 -150 -150 -150q-41 0 -91 22t-75 22
q-34 0 -40 -35z" />
    <glyph glyph-name="ograve" unicode="&#xf2;" horiz-adv-x="620" 
d="M310 519q119 0 202 -79q84 -78 84 -188t-84 -189q-84 -78 -202 -78q-119 0 -203 78q-83 80 -83 189q0 110 83 188q83 79 203 79zM310 154q41 0 73 29q31 28 31 69t-31 69q-32 29 -73 29q-43 0 -73.5 -29t-30.5 -69t30.5 -69t73.5 -29zM392 552h-136l-103 145h190z" />
    <glyph glyph-name="oacute" unicode="&#xf3;" horiz-adv-x="620" 
d="M310 519q119 0 202 -79q84 -78 84 -188t-84 -189q-84 -78 -202 -78q-119 0 -203 78q-83 80 -83 189q0 110 83 188q83 79 203 79zM310 154q41 0 73 29q31 28 31 69t-31 69q-32 29 -73 29q-43 0 -73.5 -29t-30.5 -69t30.5 -69t73.5 -29zM371 552h-136l49 145h190z" />
    <glyph glyph-name="ocircumflex" unicode="&#xf4;" horiz-adv-x="620" 
d="M310 519q119 0 202 -79q84 -78 84 -188t-84 -189q-84 -78 -202 -78q-119 0 -203 78q-83 80 -83 189q0 110 83 188q83 79 203 79zM310 154q41 0 73 29q31 28 31 69t-31 69q-32 29 -73 29q-43 0 -73.5 -29t-30.5 -69t30.5 -69t73.5 -29zM263 552h-155l202 159l203 -159
h-155l-48 46z" />
    <glyph glyph-name="otilde" unicode="&#xf5;" horiz-adv-x="620" 
d="M310 519q119 0 202 -79q84 -78 84 -188t-84 -189q-84 -78 -202 -78q-119 0 -203 78q-83 80 -83 189q0 110 83 188q83 79 203 79zM310 154q41 0 73 29q31 28 31 69t-31 69q-32 29 -73 29q-43 0 -73.5 -29t-30.5 -69t30.5 -69t73.5 -29zM179 557l-98 16q9 65 48.5 104
t99.5 39q41 0 89 -22q50 -22 75 -22q33 0 44 42l98 -16q-23 -150 -150 -150q-41 0 -91 22t-75 22q-34 0 -40 -35z" />
    <glyph glyph-name="odieresis" unicode="&#xf6;" horiz-adv-x="620" 
d="M310 519q119 0 202 -79q84 -78 84 -188t-84 -189q-84 -78 -202 -78q-119 0 -203 78q-83 80 -83 189q0 110 83 188q83 79 203 79zM310 154q41 0 73 29q31 28 31 69t-31 69q-32 29 -73 29q-43 0 -73.5 -29t-30.5 -69t30.5 -69t73.5 -29zM414 698q35 0 59 -23t24 -56
q2 -32 -24.5 -55.5t-58.5 -23.5t-59 23q-19 17 -23 41t5.5 45t30 35.5t46.5 13.5zM204 698q35 0 59 -23t24 -56q2 -32 -24.5 -55.5t-58.5 -23.5t-59 23q-19 17 -23 41t5.5 45t30 35.5t46.5 13.5z" />
    <glyph glyph-name="divide" unicode="&#xf7;" horiz-adv-x="590" 
d="M363 485q-28 -28 -68 -28t-69 28q-28 28 -28 68t28 68q29 28 69 28t68 -28q29 -28 29 -68t-29 -68zM363 77q-28 -28 -68 -28t-69 28q-28 28 -28 68t28 68q29 28 69 28t68 -28q29 -28 29 -68t-29 -68zM547 271h-504v156h504v-156z" />
    <glyph glyph-name="oslash" unicode="&#xf8;" horiz-adv-x="620" 
d="M151 -60l-98 74l44 59q-73 77 -73 179q0 110 83 188q83 79 203 79q55 0 109 -20l44 58l98 -74l-40 -52q75 -78 75 -179q0 -110 -84 -189q-84 -78 -202 -78q-58 0 -110 20zM212 218l99 132h-1q-43 0 -73.5 -29t-30.5 -69q0 -17 6 -34zM407 286l-100 -132h3q41 0 73 29
q31 28 31 69q0 16 -7 34z" />
    <glyph glyph-name="ugrave" unicode="&#xf9;" horiz-adv-x="602" 
d="M42 209v295h187v-278q0 -68 72 -68t72 68v278h187v-295q0 -109 -75 -165q-76 -56 -184 -56t-184 56q-75 57 -75 165zM382 552h-136l-103 145h190z" />
    <glyph glyph-name="uacute" unicode="&#xfa;" horiz-adv-x="602" 
d="M42 209v295h187v-278q0 -68 72 -68t72 68v278h187v-295q0 -109 -75 -165q-76 -56 -184 -56t-184 56q-75 57 -75 165zM350 552h-136l49 145h190z" />
    <glyph glyph-name="ucircumflex" unicode="&#xfb;" horiz-adv-x="602" 
d="M42 209v295h187v-278q0 -68 72 -68t72 68v278h187v-295q0 -109 -75 -165q-76 -56 -184 -56t-184 56q-75 57 -75 165zM254 552h-155l202 159l203 -159h-155l-48 46z" />
    <glyph glyph-name="udieresis" unicode="&#xfc;" horiz-adv-x="602" 
d="M406 698q35 0 59 -23t24 -56q2 -32 -24.5 -55.5t-58.5 -23.5t-59 23q-19 17 -23 41t5.5 45t30 35.5t46.5 13.5zM196 698q35 0 59 -23t24 -56q2 -32 -24.5 -55.5t-58.5 -23.5t-59 23q-19 17 -23 41t5.5 45t30 35.5t46.5 13.5zM42 209v295h187v-278q0 -68 72 -68t72 68v278
h187v-295q0 -109 -75 -165q-76 -56 -184 -56t-184 56q-75 57 -75 165z" />
    <glyph glyph-name="yacute" unicode="&#xfd;" horiz-adv-x="629" 
d="M136 -194l79 188l-214 510h191l117 -292l121 292h193l-298 -698h-189zM362 552h-136l49 145h190z" />
    <glyph glyph-name="thorn" unicode="&#xfe;" horiz-adv-x="639" 
d="M227 -193h-181v890h181v-246q29 59 139 59q108 0 178 -76q71 -76 71 -182q0 -107 -71 -183q-70 -75 -178 -75q-110 0 -139 59v-246zM222 252q0 -40 31 -68t74 -28t74 28t31 68q0 39 -31 67.5t-74 28.5t-74 -28.5t-31 -67.5z" />
    <glyph glyph-name="ydieresis" unicode="&#xff;" horiz-adv-x="629" 
d="M136 -194l79 188l-214 510h191l117 -292l121 292h193l-298 -698h-189zM413 698q35 0 59 -23t24 -56q2 -32 -24.5 -55.5t-58.5 -23.5t-59 23q-19 17 -23 41t5.5 45t30 35.5t46.5 13.5zM203 698q35 0 59 -23t24 -56q2 -32 -24.5 -55.5t-58.5 -23.5t-59 23q-19 17 -23 41
t5.5 45t30 35.5t46.5 13.5z" />
    <glyph glyph-name="Amacron" unicode="&#x100;" horiz-adv-x="770" 
d="M197 0h-198l386 744l386 -744h-198l-45 91h-286zM385 399l-79 -161h158zM549 750h-328v109h328v-109z" />
    <glyph glyph-name="amacron" unicode="&#x101;" horiz-adv-x="639" 
d="M24 252q0 106 71 182q70 76 178 76q109 0 139 -59v53h181v-504h-181v53q-30 -59 -139 -59q-107 0 -178 75q-71 76 -71 183zM207 252q0 -40 31 -68t74 -28t74 28t31 68q0 39 -31 67.5t-74 28.5t-74 -28.5t-31 -67.5zM519 557h-328v109h328v-109z" />
    <glyph glyph-name="Abreve" unicode="&#x102;" horiz-adv-x="770" 
d="M199 892h124q14 -35 62 -35t62 35h124q-9 -61 -58 -104q-47 -43 -128 -43q-80 0 -129 43q-48 43 -57 104zM197 0h-198l386 744l386 -744h-198l-45 91h-286zM385 399l-79 -161h158z" />
    <glyph glyph-name="abreve" unicode="&#x103;" horiz-adv-x="639" 
d="M159 699h124q14 -35 62 -35t62 35h124q-9 -61 -58 -104q-47 -43 -128 -43q-80 0 -129 43q-48 43 -57 104zM24 252q0 106 71 182q70 76 178 76q109 0 139 -59v53h181v-504h-181v53q-30 -59 -139 -59q-107 0 -178 75q-71 76 -71 183zM207 252q0 -40 31 -68t74 -28t74 28
t31 68q0 39 -31 67.5t-74 28.5t-74 -28.5t-31 -67.5z" />
    <glyph glyph-name="Aogonek" unicode="&#x104;" horiz-adv-x="825" 
d="M197 0h-198l386 744l386 -744q-66 -44 -66 -85q0 -30 50 -30q28 0 58 10l-23 -109q-30 -14 -57 -14q-55 0 -99 33q-42 33 -42 86q0 63 75 109h-94l-45 91h-286zM385 399l-79 -161h158z" />
    <glyph glyph-name="aogonek" unicode="&#x105;" horiz-adv-x="639" 
d="M24 252q0 106 71 182q70 76 178 76q109 0 139 -59v53h181v-504q-66 -44 -66 -85q0 -30 50 -30q28 0 58 10l-23 -109q-30 -14 -57 -14q-55 0 -99 33q-42 33 -42 86q0 63 75 109h-77v53q-30 -59 -139 -59q-107 0 -178 75q-71 76 -71 183zM207 252q0 -40 31 -68t74 -28
t74 28t31 68q0 39 -31 67.5t-74 28.5t-74 -28.5t-31 -67.5z" />
    <glyph glyph-name="Cacute" unicode="&#x106;" horiz-adv-x="674" 
d="M410 707q120 0 214 -71v-195q-94 96 -214 96q-80 0 -135 -54t-55 -135t55 -135q56 -53 135 -53q120 0 214 96v-195q-94 -71 -214 -71q-159 0 -270 102q-110 102 -110 256t110 256q110 103 270 103zM466 745h-136l49 145h190z" />
    <glyph glyph-name="cacute" unicode="&#x107;" horiz-adv-x="500" 
d="M310 520q95 0 151 -41v-171q-49 42 -133 42q-53 0 -87 -27t-34 -69t34 -69t87 -27q83 0 133 41v-170q-56 -41 -151 -41q-125 0 -206 75q-80 77 -80 191q0 115 80 190q80 76 206 76zM364 552h-136l49 145h190z" />
    <glyph glyph-name="Ccircumflex" unicode="&#x108;" horiz-adv-x="674" 
d="M365 745h-155l202 170l203 -170h-155l-48 53zM410 707q120 0 214 -71v-195q-94 96 -214 96q-80 0 -135 -54t-55 -135t55 -135q56 -53 135 -53q120 0 214 96v-195q-94 -71 -214 -71q-159 0 -270 102q-110 102 -110 256t110 256q110 103 270 103z" />
    <glyph glyph-name="ccircumflex" unicode="&#x109;" horiz-adv-x="500" 
d="M310 520q95 0 151 -41v-171q-49 42 -133 42q-53 0 -87 -27t-34 -69t34 -69t87 -27q83 0 133 41v-170q-56 -41 -151 -41q-125 0 -206 75q-80 77 -80 191q0 115 80 190q80 76 206 76zM261 552h-155l202 159l203 -159h-155l-48 46z" />
    <glyph glyph-name="Cdotaccent" unicode="&#x10a;" horiz-adv-x="674" 
d="M410 707q120 0 214 -71v-195q-94 96 -214 96q-80 0 -135 -54t-55 -135t55 -135q56 -53 135 -53q120 0 214 96v-195q-94 -71 -214 -71q-159 0 -270 102q-110 102 -110 256t110 256q110 103 270 103zM466 757q-25 -24 -60 -24t-60 24t-25 57t25 57t60 24t60 -24t25 -57
t-25 -57z" />
    <glyph glyph-name="cdotaccent" unicode="&#x10b;" horiz-adv-x="500" 
d="M310 520q95 0 151 -41v-171q-49 42 -133 42q-53 0 -87 -27t-34 -69t34 -69t87 -27q83 0 133 41v-170q-56 -41 -151 -41q-125 0 -206 75q-80 77 -80 191q0 115 80 190q80 76 206 76zM373 564q-25 -24 -60 -24t-60 24t-25 57t25 57t60 24t60 -24t25 -57t-25 -57z" />
    <glyph glyph-name="Ccaron" unicode="&#x10c;" horiz-adv-x="674" 
d="M410 707q120 0 214 -71v-195q-94 96 -214 96q-80 0 -135 -54t-55 -135t55 -135q56 -53 135 -53q120 0 214 96v-195q-94 -71 -214 -71q-159 0 -270 102q-110 102 -110 256t110 256q110 103 270 103zM613 890l-203 -159l-202 159h155l47 -46l48 46h155z" />
    <glyph glyph-name="ccaron" unicode="&#x10d;" horiz-adv-x="500" 
d="M310 520q95 0 151 -41v-171q-49 42 -133 42q-53 0 -87 -27t-34 -69t34 -69t87 -27q83 0 133 41v-170q-56 -41 -151 -41q-125 0 -206 75q-80 77 -80 191q0 115 80 190q80 76 206 76zM515 704l-203 -159l-202 159h155l47 -46l48 46h155z" />
    <glyph glyph-name="Dcaron" unicode="&#x10e;" horiz-adv-x="744" 
d="M341 0h-284v697h283q181 0 277 -97q97 -97 97 -253q0 -159 -96 -253q-94 -94 -277 -94zM247 517v-345h82q122 0 160 53q34 44 34 122q0 77 -34 119q-42 51 -161 51h-81zM549 890l-203 -159l-202 159h155l47 -46l48 46h155z" />
    <glyph glyph-name="dcaron" unicode="&#x10f;" horiz-adv-x="840" 
d="M24 252q0 106 71 182q70 76 178 76q109 0 139 -59v246h181v-697h-181v53q-30 -59 -139 -59q-107 0 -178 75q-71 76 -71 183zM207 252q0 -40 31 -68t74 -28t74 28t31 68q0 39 -31 67.5t-74 28.5t-74 -28.5t-31 -67.5zM744 552h-136l49 145h190z" />
    <glyph glyph-name="Dcroat" unicode="&#x110;" horiz-adv-x="757" 
d="M354 0h-284v261h-73v172h73v264h283q181 0 277 -97q97 -97 97 -253q0 -159 -96 -253q-94 -94 -277 -94zM260 261v-89h82q122 0 160 53q34 44 34 122q0 77 -34 119q-42 51 -161 51h-81v-84h132v-172h-132z" />
    <glyph glyph-name="dslash" unicode="&#x111;" horiz-adv-x="640" 
d="M412 536h-113v112h113v49h181v-49h43v-112h-43v-536h-181v53q-30 -59 -139 -59q-107 0 -178 75q-71 76 -71 183q0 106 71 182q70 76 178 76q109 0 139 -59v85zM207 252q0 -40 31 -68t74 -28t74 28t31 68q0 39 -31 67.5t-74 28.5t-74 -28.5t-31 -67.5z" />
    <glyph glyph-name="Emacron" unicode="&#x112;" 
d="M579 0h-522v697h514v-171h-324v-96h302v-156h-302v-106h332v-168zM478 750h-328v109h328v-109z" />
    <glyph glyph-name="emacron" unicode="&#x113;" horiz-adv-x="582" 
d="M24 249v5q0 118 77 190q78 72 198 72q117 0 191 -75q74 -74 74 -184q0 -29 -3 -56h-352q1 -27 31 -43t79 -16q99 0 176 33v-146q-71 -40 -187 -40q-126 0 -206 71q-78 72 -78 189zM209 313h172q0 24 -24.5 43t-57.5 19q-35 0 -61.5 -18.5t-28.5 -43.5zM465 557h-328v109
h328v-109z" />
    <glyph glyph-name="Ebreve" unicode="&#x114;" 
d="M128 892h124q14 -35 62 -35t62 35h124q-9 -61 -58 -104q-47 -43 -128 -43q-80 0 -129 43q-48 43 -57 104zM579 0h-522v697h514v-171h-324v-96h302v-156h-302v-106h332v-168z" />
    <glyph glyph-name="ebreve" unicode="&#x115;" horiz-adv-x="582" 
d="M113 699h124q14 -35 62 -35t62 35h124q-9 -61 -58 -104q-47 -43 -128 -43q-80 0 -129 43q-48 43 -57 104zM24 249v5q0 118 77 190q78 72 198 72q117 0 191 -75q74 -74 74 -184q0 -29 -3 -56h-352q1 -27 31 -43t79 -16q99 0 176 33v-146q-71 -40 -187 -40q-126 0 -206 71
q-78 72 -78 189zM209 313h172q0 24 -24.5 43t-57.5 19q-35 0 -61.5 -18.5t-28.5 -43.5z" />
    <glyph glyph-name="Edotaccent" unicode="&#x116;" 
d="M579 0h-522v697h514v-171h-324v-96h302v-156h-302v-106h332v-168zM372 757q-25 -24 -60 -24t-60 24t-25 57t25 57t60 24t60 -24t25 -57t-25 -57z" />
    <glyph glyph-name="edotaccent" unicode="&#x117;" horiz-adv-x="582" 
d="M24 249v5q0 118 77 190q78 72 198 72q117 0 191 -75q74 -74 74 -184q0 -29 -3 -56h-352q1 -27 31 -43t79 -16q99 0 176 33v-146q-71 -40 -187 -40q-126 0 -206 71q-78 72 -78 189zM209 313h172q0 24 -24.5 43t-57.5 19q-35 0 -61.5 -18.5t-28.5 -43.5zM358 564
q-25 -24 -60 -24t-60 24t-25 57t25 57t60 24t60 -24t25 -57t-25 -57z" />
    <glyph glyph-name="Eogonek" unicode="&#x118;" 
d="M475 0h-418v697h514v-171h-324v-96h302v-156h-302v-106h332v-168q-66 -44 -66 -85q0 -30 50 -30q28 0 58 10l-23 -109q-30 -14 -57 -14q-55 0 -99 33q-42 33 -42 86q0 63 75 109z" />
    <glyph glyph-name="eogonek" unicode="&#x119;" horiz-adv-x="582" 
d="M24 249v5q0 118 77 190q78 72 198 72q117 0 191 -75q74 -74 74 -184q0 -29 -3 -56h-352q1 -27 31 -43t79 -16q99 0 176 33v-146q-18 -11 -36 -18q-36 -17 -66 -43q-30 -27 -30 -56q0 -30 50 -30q28 0 58 10l-23 -109q-30 -14 -57 -14q-55 0 -99 33q-42 33 -42 86
q0 56 62 101h-2q-127 0 -207 71q-79 72 -79 189zM209 313h172q0 24 -24.5 43t-57.5 19q-35 0 -61.5 -18.5t-28.5 -43.5z" />
    <glyph glyph-name="Ecaron" unicode="&#x11a;" 
d="M579 0h-522v697h514v-171h-324v-96h302v-156h-302v-106h332v-168zM520 890l-203 -159l-202 159h155l47 -46l48 46h155z" />
    <glyph glyph-name="ecaron" unicode="&#x11b;" horiz-adv-x="582" 
d="M24 249v5q0 118 77 190q78 72 198 72q117 0 191 -75q74 -74 74 -184q0 -29 -3 -56h-352q1 -27 31 -43t79 -16q99 0 176 33v-146q-71 -40 -187 -40q-126 0 -206 71q-78 72 -78 189zM209 313h172q0 24 -24.5 43t-57.5 19q-35 0 -61.5 -18.5t-28.5 -43.5zM505 704l-203 -159
l-202 159h155l47 -46l48 46h155z" />
    <glyph glyph-name="Gcircumflex" unicode="&#x11c;" horiz-adv-x="759" 
d="M410 707q123 0 214 -56v-180q-92 66 -214 66q-80 0 -135 -54t-55 -135t55 -135q56 -53 135 -53q92 0 145 60v47h-180v158h344v-280q-50 -71 -132 -113t-177 -42q-159 0 -270 102q-110 102 -110 256t110 256q110 103 270 103zM358 756h-155l202 159l203 -159h-155l-48 46z
" />
    <glyph glyph-name="gcircumflex" unicode="&#x11d;" horiz-adv-x="635" 
d="M73 -171v158q82 -56 194 -56q75 0 109 19q44 24 44 85v17q-32 -54 -147 -54q-107 0 -178 74t-71 180t71 182q70 76 178 76q109 0 139 -59v53h181v-420q0 -100 -16 -154q-16 -56 -75 -97q-76 -53 -193 -53q-139 0 -236 49zM207 252q0 -40 30.5 -67.5t74.5 -27.5
q43 0 74 27.5t31 67.5q0 39 -31 67.5t-74 28.5t-74 -28.5t-31 -67.5zM290 552h-155l202 159l203 -159h-155l-48 46z" />
    <glyph glyph-name="Gbreve" unicode="&#x11e;" horiz-adv-x="759" 
d="M223 892h124q14 -35 62 -35t62 35h124q-9 -61 -58 -104q-47 -43 -128 -43q-80 0 -129 43q-48 43 -57 104zM410 707q123 0 214 -56v-180q-92 66 -214 66q-80 0 -135 -54t-55 -135t55 -135q56 -53 135 -53q92 0 145 60v47h-180v158h344v-280q-50 -71 -132 -113t-177 -42
q-159 0 -270 102q-110 102 -110 256t110 256q110 103 270 103z" />
    <glyph glyph-name="gbreve" unicode="&#x11f;" horiz-adv-x="635" 
d="M149 699h124q14 -35 62 -35t62 35h124q-9 -61 -58 -104q-47 -43 -128 -43q-80 0 -129 43q-48 43 -57 104zM73 -171v158q82 -56 194 -56q75 0 109 19q44 24 44 85v17q-32 -54 -147 -54q-107 0 -178 74t-71 180t71 182q70 76 178 76q109 0 139 -59v53h181v-420
q0 -100 -16 -154q-16 -56 -75 -97q-76 -53 -193 -53q-139 0 -236 49zM207 252q0 -40 30.5 -67.5t74.5 -27.5q43 0 74 27.5t31 67.5q0 39 -31 67.5t-74 28.5t-74 -28.5t-31 -67.5z" />
    <glyph glyph-name="Gdotaccent" unicode="&#x120;" horiz-adv-x="759" 
d="M410 707q123 0 214 -56v-180q-92 66 -214 66q-80 0 -135 -54t-55 -135t55 -135q56 -53 135 -53q92 0 145 60v47h-180v158h344v-280q-50 -71 -132 -113t-177 -42q-159 0 -270 102q-110 102 -110 256t110 256q110 103 270 103zM461 757q-25 -24 -60 -24t-60 24t-25 57
t25 57t60 24t60 -24t25 -57t-25 -57z" />
    <glyph glyph-name="gdotaccent" unicode="&#x121;" horiz-adv-x="635" 
d="M73 -171v158q82 -56 194 -56q75 0 109 19q44 24 44 85v17q-32 -54 -147 -54q-107 0 -178 74t-71 180t71 182q70 76 178 76q109 0 139 -59v53h181v-420q0 -100 -16 -154q-16 -56 -75 -97q-76 -53 -193 -53q-139 0 -236 49zM207 252q0 -40 30.5 -67.5t74.5 -27.5
q43 0 74 27.5t31 67.5q0 39 -31 67.5t-74 28.5t-74 -28.5t-31 -67.5zM394 564q-25 -24 -60 -24t-60 24t-25 57t25 57t60 24t60 -24t25 -57t-25 -57z" />
    <glyph glyph-name="Gcommaaccent" unicode="&#x122;" horiz-adv-x="759" 
d="M410 707q123 0 214 -56v-180q-92 66 -214 66q-80 0 -135 -54t-55 -135t55 -135q56 -53 135 -53q92 0 145 60v47h-180v158h344v-280q-50 -71 -132 -113t-177 -42q-159 0 -270 102q-110 102 -110 256t110 256q110 103 270 103zM407 -193h-136l49 145h190z" />
    <glyph glyph-name="gcommaaccent" unicode="&#x123;" horiz-adv-x="635" 
d="M73 -171v158q82 -56 194 -56q75 0 109 19q44 24 44 85v17q-32 -54 -147 -54q-107 0 -178 74t-71 180t71 182q70 76 178 76q109 0 139 -59v53h181v-420q0 -100 -16 -154q-16 -56 -75 -97q-76 -53 -193 -53q-139 0 -236 49zM207 252q0 -40 30.5 -67.5t74.5 -27.5
q43 0 74 27.5t31 67.5q0 39 -31 67.5t-74 28.5t-74 -28.5t-31 -67.5zM401 552h-136l49 145h190z" />
    <glyph glyph-name="Hcircumflex" unicode="&#x124;" horiz-adv-x="756" 
d="M247 0h-190v697h190v-242h262v242h190v-697h-190v281h-262v-281zM338 756h-155l202 159l203 -159h-155l-48 46z" />
    <glyph glyph-name="hcircumflex" unicode="&#x125;" horiz-adv-x="597" 
d="M91 745h-155l202 170l203 -170h-155l-48 53zM231 0h-185v697h185v-255q42 74 135 74q92 0 140.5 -56.5t48.5 -161.5v-298h-185v279q0 37 -17 58t-49 21t-52.5 -23t-20.5 -58v-277z" />
    <glyph glyph-name="Hbar" unicode="&#x126;" horiz-adv-x="766" 
d="M252 0h-190v499h-45v141h45v57h190v-57h262v57h190v-57h45v-141h-45v-499h-190v281h-262v-281zM252 499v-44h262v44h-262z" />
    <glyph glyph-name="hbar" unicode="&#x127;" horiz-adv-x="606" 
d="M55 534h-49v114h49v49h185v-49h94v-114h-94v-92q42 74 135 74q92 0 140.5 -56.5t48.5 -161.5v-298h-185v279q0 37 -17 58t-49 21t-52.5 -23t-20.5 -58v-277h-185v534z" />
    <glyph glyph-name="Itilde" unicode="&#x128;" horiz-adv-x="312" 
d="M31 745l-98 16q9 68 48 108t100 40q38 0 85 -22t71 -22q33 0 44 42l98 -16q-21 -155 -150 -155q-38 0 -86 22t-72 22q-35 0 -40 -35zM251 0h-190v697h190v-697z" />
    <glyph glyph-name="itilde" unicode="&#x129;" horiz-adv-x="349" 
d="M75 557l-98 16q8 65 42 104t86 39q34 0 72 -22t52 -22q33 0 44 42l98 -16q-18 -150 -130 -150q-33 0 -73 22t-53 22q-34 0 -40 -35zM267 0h-185v504h185v-504z" />
    <glyph glyph-name="Imacron" unicode="&#x12a;" horiz-adv-x="312" 
d="M320 750h-328v109h328v-109zM251 0h-190v697h190v-697z" />
    <glyph glyph-name="imacron" unicode="&#x12b;" horiz-adv-x="299" 
d="M292 557h-286v109h286v-109zM242 0h-185v504h185v-504z" />
    <glyph glyph-name="Ibreve" unicode="&#x12c;" horiz-adv-x="312" 
d="M-30 892h124q14 -35 62 -35t62 35h124q-9 -61 -58 -104q-47 -43 -128 -43q-80 0 -129 43q-48 43 -57 104zM251 0h-190v697h190v-697z" />
    <glyph glyph-name="ibreve" unicode="&#x12d;" horiz-adv-x="319" 
d="M-17 699h124q12 -35 52 -35t52 35h124q-8 -60 -54 -103q-47 -44 -122 -44t-122 44q-46 43 -54 103zM252 0h-185v504h185v-504z" />
    <glyph glyph-name="Iogonek" unicode="&#x12e;" horiz-adv-x="312" 
d="M147 0h-86v697h190v-697q-66 -44 -66 -85q0 -30 50 -30q28 0 58 10l-23 -109q-30 -14 -57 -14q-55 0 -99 33q-42 33 -42 86q0 63 75 109z" />
    <glyph glyph-name="iogonek" unicode="&#x12f;" horiz-adv-x="277" 
d="M210 556q-30 -29 -72 -29t-72 29q-30 30 -30 72t30 71q30 30 72 30t72 -30q30 -29 30 -71t-30 -72zM127 0h-81v504h185v-504q-66 -44 -66 -85q0 -30 50 -30q28 0 58 10l-23 -109q-30 -14 -57 -14q-55 0 -99 33q-42 33 -42 86q0 63 75 109z" />
    <glyph glyph-name="Idot" unicode="&#x130;" horiz-adv-x="312" 
d="M216 757q-25 -24 -60 -24t-60 24t-25 57t25 57t60 24t60 -24t25 -57t-25 -57zM251 0h-190v697h190v-697z" />
    <glyph glyph-name="dotlessi" unicode="&#x131;" horiz-adv-x="277" 
d="M231 0h-185v504h185v-504z" />
    <glyph glyph-name="IJ" unicode="&#x132;" horiz-adv-x="562" 
d="M68 7v170q56 -15 154 -15q51 0 69.5 18.5t18.5 57.5v459h190v-466q0 -84 -22 -136q-19 -51 -73.5 -76.5t-155.5 -28.5q-90 0 -181 17zM258 212h-190v485h190v-485z" />
    <glyph glyph-name="ij" unicode="&#x133;" horiz-adv-x="496" 
d="M435 561q-28 -28 -68 -28t-69 28q-28 28 -28 68t28 68q29 28 69 28t68 -28q29 -28 29 -68t-29 -68zM201 561q-28 -28 -68 -28t-69 28q-28 28 -28 68t28 68q29 28 69 28t68 -28q29 -28 29 -68t-29 -68zM47 3v149q60 -10 142 -10q48 0 69.5 18t21.5 60v284h174v-318
q0 -78 -36 -125q-55 -73 -198 -73q-114 0 -173 15zM220 191h-174v313h174v-313z" />
    <glyph glyph-name="Jcircumflex" unicode="&#x134;" horiz-adv-x="391" 
d="M201 745h-155l202 170l203 -170h-155l-48 53zM6 -3v168q22 -5 64 -5q50 0 69 21.5t19 66.5v449h190v-436q0 -96 -22 -153q-19 -57 -73.5 -86t-155.5 -32q-49 0 -91 7z" />
    <glyph glyph-name="jcircumflex" unicode="&#x135;" horiz-adv-x="303" 
d="M130 552h-150l189 159l190 -159h-150l-40 49zM76 -3v507h185v-534q0 -191 -188 -191q-50 0 -83 5v158q30 -2 31 -2q29 0 42 13t13 44z" />
    <glyph glyph-name="Kcommaaccent" unicode="&#x136;" horiz-adv-x="699" 
d="M247 0h-190v697h190v-312l221 312h228l-259 -345l270 -352h-235l-225 306v-306zM220 -193l49 145h190l-103 -145h-136z" />
    <glyph glyph-name="kcommaaccent" unicode="&#x137;" horiz-adv-x="563" 
d="M231 0h-185v697h185v-400l125 207h202l-152 -246l162 -258h-206l-131 215v-215zM155 -193l49 145h190l-103 -145h-136z" />
    <glyph glyph-name="Lacute" unicode="&#x139;" horiz-adv-x="532" 
d="M512 0h-455v697h190v-525h265v-172zM197 745h-136l49 145h190z" />
    <glyph glyph-name="lacute" unicode="&#x13a;" horiz-adv-x="277" 
d="M185 722h-136l49 145h190zM231 0h-185v697h185v-697z" />
    <glyph glyph-name="Lcommaaccent" unicode="&#x13b;" horiz-adv-x="532" 
d="M512 0h-455v697h190v-525h265v-172zM144 -193l49 145h190l-103 -145h-136z" />
    <glyph glyph-name="lcommaaccent" unicode="&#x13c;" horiz-adv-x="277" 
d="M231 0h-185v697h185v-697zM-3 -193l49 145h190l-103 -145h-136z" />
    <glyph glyph-name="Lcaron" unicode="&#x13d;" horiz-adv-x="532" 
d="M512 0h-455v697h190v-525h265v-172zM422 552h-136l49 145h190z" />
    <glyph glyph-name="lcaron" unicode="&#x13e;" horiz-adv-x="483" 
d="M385 552h-136l49 145h190zM231 0h-185v697h185v-697z" />
    <glyph glyph-name="Ldot" unicode="&#x13f;" horiz-adv-x="532" 
d="M457 362q-25 -24 -60 -24t-60 24t-25 57t25 57t60 24t60 -24t25 -57t-25 -57zM512 0h-455v697h190v-525h265v-172z" />
    <glyph glyph-name="ldot" unicode="&#x140;" horiz-adv-x="454" 
d="M402 303q-25 -24 -60 -24t-60 24t-25 57t25 57t60 24t60 -24t25 -57t-25 -57zM231 0h-185v697h185v-697z" />
    <glyph glyph-name="Lslash" unicode="&#x141;" horiz-adv-x="555" 
d="M535 0h-455v215l-63 -29v174l63 29v308h190v-232l133 62v-174l-133 -62v-119h265v-172z" />
    <glyph glyph-name="lslash" unicode="&#x142;" horiz-adv-x="340" 
d="M252 0h-184v230l-69 -36v175l69 36v292h184v-206l89 46v-175l-89 -46v-316z" />
    <glyph glyph-name="Nacute" unicode="&#x143;" horiz-adv-x="758" 
d="M239 0h-182v725l462 -377v349h182v-725l-462 380v-352zM425 745h-136l49 145h190z" />
    <glyph glyph-name="nacute" unicode="&#x144;" horiz-adv-x="609" 
d="M231 0h-185v504h185v-62q44 74 141 74q95 0 145 -56.5t50 -161.5v-298h-185v276q0 36 -19 57t-53 21q-35 0 -57 -22.5t-22 -58.5v-273zM351 552h-136l49 145h190z" />
    <glyph glyph-name="Ncommaaccent" unicode="&#x145;" horiz-adv-x="758" 
d="M239 0h-182v725l462 -377v349h182v-725l-462 380v-352zM401 -193h-136l49 145h190z" />
    <glyph glyph-name="ncommaaccent" unicode="&#x146;" horiz-adv-x="609" 
d="M231 0h-185v504h185v-62q44 74 141 74q95 0 145 -56.5t50 -161.5v-298h-185v276q0 36 -19 57t-53 21q-35 0 -57 -22.5t-22 -58.5v-273zM175 -193l49 145h190l-103 -145h-136z" />
    <glyph glyph-name="Ncaron" unicode="&#x147;" horiz-adv-x="758" 
d="M576 890l-203 -164l-202 164h155l47 -51l48 51h155zM239 0h-182v725l462 -377v349h182v-725l-462 380v-352z" />
    <glyph glyph-name="ncaron" unicode="&#x148;" horiz-adv-x="609" 
d="M231 0h-185v504h185v-62q44 74 141 74q95 0 145 -56.5t50 -161.5v-298h-185v276q0 36 -19 57t-53 21q-35 0 -57 -22.5t-22 -58.5v-273zM505 704l-203 -159l-202 159h155l47 -46l48 46h155z" />
    <glyph glyph-name="Eng" unicode="&#x14a;" horiz-adv-x="744" 
d="M375 -201v168q22 -5 64 -5q43 0 61 20.5t19 60.5v2l-280 263v-308h-182v725l462 -430v402h182v-634q0 -96 -21 -153q-19 -57 -71.5 -86t-150.5 -32q-45 0 -83 7z" />
    <glyph glyph-name="eng" unicode="&#x14b;" horiz-adv-x="610" 
d="M231 0h-185v504h185v-62q44 74 142 74q95 0 145 -56.5t50 -161.5v-317q0 -105 -52 -154q-50 -48 -147 -48q-57 0 -94 5v158q38 -2 43 -2q65 0 65 68v268q0 36 -19 57t-54 21q-34 0 -56.5 -22.5t-22.5 -58.5v-273z" />
    <glyph glyph-name="Omacron" unicode="&#x14c;" horiz-adv-x="829" 
d="M799 346q0 -148 -113 -255q-112 -105 -272 -105t-272 105q-112 106 -112 255t112 255t272 106t272 -106q113 -105 113 -255zM224 346q0 -80 55 -135t135 -55q78 0 134 56q57 57 57 134t-57 134q-55 57 -134 57q-78 0 -134 -57q-56 -56 -56 -134zM579 750h-328v109h328
v-109z" />
    <glyph glyph-name="omacron" unicode="&#x14d;" horiz-adv-x="620" 
d="M310 519q119 0 202 -79q84 -78 84 -188t-84 -189q-84 -78 -202 -78q-119 0 -203 78q-83 80 -83 189q0 110 83 188q83 79 203 79zM310 154q41 0 73 29q31 28 31 69t-31 69q-32 29 -73 29q-43 0 -73.5 -29t-30.5 -69t30.5 -69t73.5 -29zM474 557h-328v109h328v-109z" />
    <glyph glyph-name="Obreve" unicode="&#x14e;" horiz-adv-x="829" 
d="M227 892h124q14 -35 62 -35t62 35h124q-9 -61 -58 -104q-47 -43 -128 -43q-80 0 -129 43q-48 43 -57 104zM799 346q0 -148 -113 -255q-112 -105 -272 -105t-272 105q-112 106 -112 255t112 255t272 106t272 -106q113 -105 113 -255zM224 346q0 -80 55 -135t135 -55
q78 0 134 56q57 57 57 134t-57 134q-55 57 -134 57q-78 0 -134 -57q-56 -56 -56 -134z" />
    <glyph glyph-name="obreve" unicode="&#x14f;" horiz-adv-x="620" 
d="M124 699h124q14 -35 62 -35t62 35h124q-9 -61 -58 -104q-47 -43 -128 -43q-80 0 -129 43q-48 43 -57 104zM310 519q119 0 202 -79q84 -78 84 -188t-84 -189q-84 -78 -202 -78q-119 0 -203 78q-83 80 -83 189q0 110 83 188q83 79 203 79zM310 154q41 0 73 29q31 28 31 69
t-31 69q-32 29 -73 29q-43 0 -73.5 -29t-30.5 -69t30.5 -69t73.5 -29z" />
    <glyph glyph-name="Ohungarumlaut" unicode="&#x150;" horiz-adv-x="829" 
d="M799 346q0 -148 -113 -255q-112 -105 -272 -105t-272 105q-112 106 -112 255t112 255t272 106t272 -106q113 -105 113 -255zM224 346q0 -80 55 -135t135 -55q78 0 134 56q57 57 57 134t-57 134q-55 57 -134 57q-78 0 -134 -57q-56 -56 -56 -134zM569 745h-127l74 145h179
zM374 745h-127l74 145h179z" />
    <glyph glyph-name="ohungarumlaut" unicode="&#x151;" horiz-adv-x="620" 
d="M310 519q119 0 202 -79q84 -78 84 -188t-84 -189q-84 -78 -202 -78q-119 0 -203 78q-83 80 -83 189q0 110 83 188q83 79 203 79zM310 154q41 0 73 29q31 28 31 69t-31 69q-32 29 -73 29q-43 0 -73.5 -29t-30.5 -69t30.5 -69t73.5 -29zM456 552h-127l74 145h179zM261 552
h-127l74 145h179z" />
    <glyph glyph-name="OE" unicode="&#x152;" horiz-adv-x="1061" 
d="M28 348q0 149 109 254t264 105q104 0 181 -58v48h431v-171h-244v-96h225v-156h-225v-106h252v-168h-439v47q-76 -57 -181 -57q-155 0 -264 105t-109 253zM222 348q0 -78 56 -134q56 -54 135 -54q77 0 135 56q57 56 57 132t-57 132q-57 57 -135 57q-77 0 -135 -56
q-56 -56 -56 -133z" />
    <glyph glyph-name="oe" unicode="&#x153;" horiz-adv-x="964" 
d="M310 519q109 0 180 -74q71 74 197 74q116 0 186 -76q72 -75 72 -186q0 -29 -3 -56h-363q2 -29 31 -45.5t76 -16.5q64 0 108 39l105 -100q-93 -93 -223 -93q-122 0 -187 69q-71 -69 -179 -69q-119 0 -203 78q-83 80 -83 189q0 110 83 188q83 79 203 79zM580 313h181
q0 24 -26 42t-62 18q-37 0 -64 -17.5t-29 -42.5zM310 154q41 0 73 29q31 28 31 69t-31 69q-32 29 -73 29q-43 0 -73.5 -29t-30.5 -69t30.5 -69t73.5 -29z" />
    <glyph glyph-name="Racute" unicode="&#x154;" horiz-adv-x="680" 
d="M378 745h-136l49 145h190zM247 0h-190v697h317q104 0 177 -70t73 -170q0 -66 -32.5 -120t-86.5 -79l174 -258h-218l-142 217h-1h-71v-217zM247 525v-156h106q38 0 60 21.5t22 60.5q0 33 -19 53.5t-47 20.5h-122z" />
    <glyph glyph-name="racute" unicode="&#x155;" horiz-adv-x="431" 
d="M231 0h-185v504h185v-62q44 74 142 74q6 0 23.5 -1.5t19.5 -1.5v-168q-28 5 -50 5q-66 0 -100.5 -33t-34.5 -93v-224zM258 552h-136l49 145h190z" />
    <glyph glyph-name="Rcommaaccent" unicode="&#x156;" horiz-adv-x="680" 
d="M247 0h-190v697h317q104 0 177 -70t73 -170q0 -66 -32.5 -120t-86.5 -79l174 -258h-218l-142 217h-1h-71v-217zM247 525v-156h106q38 0 60 21.5t22 60.5q0 33 -19 53.5t-47 20.5h-122zM209 -193l49 145h190l-103 -145h-136z" />
    <glyph glyph-name="rcommaaccent" unicode="&#x157;" horiz-adv-x="431" 
d="M231 0h-185v504h185v-62q44 74 142 74q6 0 23.5 -1.5t19.5 -1.5v-168q-28 5 -50 5q-66 0 -100.5 -33t-34.5 -93v-224zM-3 -193l49 145h190l-103 -145h-136z" />
    <glyph glyph-name="Rcaron" unicode="&#x158;" horiz-adv-x="680" 
d="M523 890l-203 -159l-202 159h155l47 -46l48 46h155zM247 0h-190v697h317q104 0 177 -70t73 -170q0 -66 -32.5 -120t-86.5 -79l174 -258h-218l-142 217h-1h-71v-217zM247 525v-156h106q38 0 60 21.5t22 60.5q0 33 -19 53.5t-47 20.5h-122z" />
    <glyph glyph-name="rcaron" unicode="&#x159;" horiz-adv-x="431" 
d="M231 0h-185v504h185v-62q44 74 142 74q6 0 23.5 -1.5t19.5 -1.5v-168q-28 5 -50 5q-66 0 -100.5 -33t-34.5 -93v-224zM430 704l-203 -159l-202 159h155l47 -46l48 46h155z" />
    <glyph glyph-name="Sacute" unicode="&#x15a;" horiz-adv-x="594" 
d="M34 46v190q100 -76 246 -76q113 0 113 51q0 19 -25 32q-23 12 -87 31q-50 15 -91 29q-151 55 -151 196q0 97 78 153q79 55 190 55q120 0 209 -47v-177q-79 55 -199 55q-97 0 -97 -38q0 -27 44 -45q14 -7 40 -16l51 -14q37 -10 46 -13q103 -32 139 -77q38 -47 38 -124
q0 -104 -73.5 -162.5t-216.5 -58.5q-150 0 -254 56zM364 745h-136l49 145h190z" />
    <glyph glyph-name="sacute" unicode="&#x15b;" horiz-adv-x="498" 
d="M38 29v157q105 -51 206 -51q23 0 35 1t21 6.5t9 15.5q0 9 -33 15l-85 17q-52 12 -85 33q-65 41 -65 126q0 81 65 125q66 45 152 45q96 0 166 -36v-150q-72 34 -163 34q-55 0 -55 -20q0 -13 13 -17q18 -6 52 -10q28 -3 59 -10q75 -16 112.5 -50.5t37.5 -97.5
q0 -175 -242 -175q-92 0 -200 42zM304 552h-136l49 145h190z" />
    <glyph glyph-name="Scircumflex" unicode="&#x15c;" horiz-adv-x="594" 
d="M260 745h-155l202 170l203 -170h-155l-48 53zM34 46v190q100 -76 246 -76q113 0 113 51q0 19 -25 32q-23 12 -87 31q-50 15 -91 29q-151 55 -151 196q0 97 78 153q79 55 190 55q120 0 209 -47v-177q-79 55 -199 55q-97 0 -97 -38q0 -27 44 -45q14 -7 40 -16l51 -14
q37 -10 46 -13q103 -32 139 -77q38 -47 38 -124q0 -104 -73.5 -162.5t-216.5 -58.5q-150 0 -254 56z" />
    <glyph glyph-name="scircumflex" unicode="&#x15d;" horiz-adv-x="498" 
d="M38 29v157q105 -51 206 -51q23 0 35 1t21 6.5t9 15.5q0 9 -33 15l-85 17q-52 12 -85 33q-65 41 -65 126q0 81 65 125q66 45 152 45q96 0 166 -36v-150q-72 34 -163 34q-55 0 -55 -20q0 -13 13 -17q18 -6 52 -10q28 -3 59 -10q75 -16 112.5 -50.5t37.5 -97.5
q0 -175 -242 -175q-92 0 -200 42zM208 552h-155l202 159l203 -159h-155l-48 46z" />
    <glyph glyph-name="Scedilla" unicode="&#x15e;" horiz-adv-x="594" 
d="M34 46v190q100 -76 246 -76q113 0 113 51q0 19 -25 32q-23 12 -87 31q-50 15 -91 29q-151 55 -151 196q0 97 78 153q79 55 190 55q120 0 209 -47v-177q-79 55 -199 55q-97 0 -97 -38q0 -27 44 -45q14 -7 40 -16l51 -14q37 -10 46 -13q103 -32 139 -77q38 -47 38 -124
q0 -94 -61 -151.5t-179 -67.5l-17 -38q28 0 47 -21.5t19 -54.5q0 -50 -34.5 -78t-94.5 -28q-62 0 -103 30l34 72q19 -12 44 -12q15 0 24.5 7.5t9.5 20.5q0 34 -53 34l28 68q-122 7 -208 54z" />
    <glyph glyph-name="scedilla" unicode="&#x15f;" horiz-adv-x="498" 
d="M38 29v157q105 -51 206 -51q23 0 35 1t21 6.5t9 15.5q0 9 -33 15l-85 17q-52 12 -85 33q-65 41 -65 126q0 81 65 125q66 45 152 45q96 0 166 -36v-150q-72 34 -163 34q-55 0 -55 -20q0 -13 13 -17q18 -6 52 -10q28 -3 59 -10q75 -16 112.5 -50.5t37.5 -97.5
q0 -156 -190 -172l-16 -36q28 0 47 -21.5t19 -54.5q0 -50 -34.5 -78t-94.5 -28q-63 0 -103 30l34 72q20 -12 44 -12q15 0 24.5 7.5t9.5 20.5q0 34 -53 34l27 65q-70 7 -156 40z" />
    <glyph glyph-name="Scaron" unicode="&#x160;" horiz-adv-x="594" 
d="M34 46v190q100 -76 246 -76q113 0 113 51q0 19 -25 32q-23 12 -87 31q-50 15 -91 29q-151 55 -151 196q0 97 78 153q79 55 190 55q120 0 209 -47v-177q-79 55 -199 55q-97 0 -97 -38q0 -27 44 -45q14 -7 40 -16l51 -14q37 -10 46 -13q103 -32 139 -77q38 -47 38 -124
q0 -104 -73.5 -162.5t-216.5 -58.5q-150 0 -254 56zM517 890l-203 -159l-202 159h155l47 -46l48 46h155z" />
    <glyph glyph-name="scaron" unicode="&#x161;" horiz-adv-x="498" 
d="M38 29v157q105 -51 206 -51q23 0 35 1t21 6.5t9 15.5q0 9 -33 15l-85 17q-52 12 -85 33q-65 41 -65 126q0 81 65 125q66 45 152 45q96 0 166 -36v-150q-72 34 -163 34q-55 0 -55 -20q0 -13 13 -17q18 -6 52 -10q28 -3 59 -10q75 -16 112.5 -50.5t37.5 -97.5
q0 -175 -242 -175q-92 0 -200 42zM455 704l-203 -159l-202 159h155l47 -46l48 46h155z" />
    <glyph glyph-name="Tcommaaccent" unicode="&#x162;" horiz-adv-x="572" 
d="M383 0h-190v525h-188v172h562v-172h-184v-525zM143 -193l49 145h190l-103 -145h-136z" />
    <glyph glyph-name="tcommaaccent" unicode="&#x163;" horiz-adv-x="376" 
d="M263 0h-185v343h-69v161h69v193h185v-193h104v-161h-104v-343zM25 -193l49 145h190l-103 -145h-136z" />
    <glyph glyph-name="Tcaron" unicode="&#x164;" horiz-adv-x="572" 
d="M383 0h-190v525h-188v172h562v-172h-184v-525zM489 890l-203 -159l-202 159h155l47 -46l48 46h155z" />
    <glyph glyph-name="tcaron" unicode="&#x165;" horiz-adv-x="510" 
d="M263 0h-185v343h-69v161h69v193h185v-193h104v-161h-104v-343zM411 552h-136l49 145h190z" />
    <glyph glyph-name="Tbar" unicode="&#x166;" horiz-adv-x="572" 
d="M383 0h-190v264h-104v156h104v105h-188v172h562v-172h-184v-105h100v-156h-100v-264z" />
    <glyph glyph-name="tbar" unicode="&#x167;" horiz-adv-x="376" 
d="M263 0h-185v178h-69v137h69v52h-69v137h69v193h185v-193h93v-137h-93v-52h93v-137h-93v-178z" />
    <glyph glyph-name="Utilde" unicode="&#x168;" horiz-adv-x="724" 
d="M238 745l-98 16q9 68 48 108t100 40q41 0 89 -22q50 -22 75 -22q34 0 44 42l98 -16q-21 -155 -150 -155q-41 0 -91 22t-75 22q-34 0 -40 -35zM49 300v397h190v-377q0 -84 31 -121t92 -37t92 37t31 121v377h190v-397q0 -151 -89 -231q-88 -79 -224 -79t-224 79
q-89 80 -89 231z" />
    <glyph glyph-name="utilde" unicode="&#x169;" horiz-adv-x="602" 
d="M42 209v295h187v-278q0 -68 72 -68t72 68v278h187v-295q0 -109 -75 -165q-76 -56 -184 -56t-184 56q-75 57 -75 165zM171 557l-98 16q9 65 48.5 104t99.5 39q41 0 89 -22q50 -22 75 -22q33 0 44 42l98 -16q-23 -150 -150 -150q-41 0 -91 22t-75 22q-34 0 -40 -35z" />
    <glyph glyph-name="Umacron" unicode="&#x16a;" horiz-adv-x="724" 
d="M49 300v397h190v-377q0 -84 31 -121t92 -37t92 37t31 121v377h190v-397q0 -151 -89 -231q-88 -79 -224 -79t-224 79q-89 80 -89 231zM526 750h-328v109h328v-109z" />
    <glyph glyph-name="umacron" unicode="&#x16b;" horiz-adv-x="602" 
d="M42 209v295h187v-278q0 -68 72 -68t72 68v278h187v-295q0 -109 -75 -165q-76 -56 -184 -56t-184 56q-75 57 -75 165zM465 557h-328v109h328v-109z" />
    <glyph glyph-name="Ubreve" unicode="&#x16c;" horiz-adv-x="724" 
d="M176 892h124q14 -35 62 -35t62 35h124q-9 -61 -58 -104q-47 -43 -128 -43q-80 0 -129 43q-48 43 -57 104zM49 300v397h190v-377q0 -84 31 -121t92 -37t92 37t31 121v377h190v-397q0 -151 -89 -231q-88 -79 -224 -79t-224 79q-89 80 -89 231z" />
    <glyph glyph-name="ubreve" unicode="&#x16d;" horiz-adv-x="602" 
d="M115 699h124q14 -35 62 -35t62 35h124q-9 -61 -58 -104q-47 -43 -128 -43q-80 0 -129 43q-48 43 -57 104zM42 209v295h187v-278q0 -68 72 -68t72 68v278h187v-295q0 -109 -75 -165q-76 -56 -184 -56t-184 56q-75 57 -75 165z" />
    <glyph glyph-name="Uring" unicode="&#x16e;" horiz-adv-x="724" 
d="M455 747q-37 -36 -93 -36q-54 0 -95 36q-39 38 -39 88q0 51 39 87q40 37 95 37q56 0 93 -37q39 -36 39 -87t-39 -88zM337 811q16 -14 34.5 -7.5t23 23t-8.5 32.5q-14 16 -33 9t-24.5 -24t8.5 -33zM49 300v397h190v-377q0 -84 31 -121t92 -37t92 37t31 121v377h190v-397
q0 -151 -89 -231q-88 -79 -224 -79t-224 79q-89 80 -89 231z" />
    <glyph glyph-name="uring" unicode="&#x16f;" horiz-adv-x="602" 
d="M394 579q-38 -36 -93 -36q-54 0 -95 36q-39 37 -39 88t39 87q40 37 95 37q56 0 93 -37q39 -36 39 -87t-39 -88zM276 643q16 -14 34.5 -7.5t23 23t-8.5 32.5q-14 16 -33 9t-24.5 -24t8.5 -33zM42 209v295h187v-278q0 -68 72 -68t72 68v278h187v-295q0 -109 -75 -165
q-76 -56 -184 -56t-184 56q-75 57 -75 165z" />
    <glyph glyph-name="Uhungarumlaut" unicode="&#x170;" horiz-adv-x="724" 
d="M49 300v397h190v-377q0 -84 31 -121t92 -37t92 37t31 121v377h190v-397q0 -151 -89 -231q-88 -79 -224 -79t-224 79q-89 80 -89 231zM516 745h-127l74 145h179zM321 745h-127l74 145h179z" />
    <glyph glyph-name="uhungarumlaut" unicode="&#x171;" horiz-adv-x="602" 
d="M42 209v295h187v-278q0 -68 72 -68t72 68v278h187v-295q0 -109 -75 -165q-76 -56 -184 -56t-184 56q-75 57 -75 165zM444 552h-127l74 145h179zM249 552h-127l74 145h179z" />
    <glyph glyph-name="Uogonek" unicode="&#x172;" horiz-adv-x="724" 
d="M49 300v397h190v-377q0 -84 31 -121t92 -37t92 37t31 121v377h190v-397q0 -167 -115 -252q-18 -14 -59 -37q-39 -22 -53 -36.5t-14 -39.5q0 -36 50 -36q28 0 58 10l-23 -109q-30 -14 -57 -14q-56 0 -99 33q-42 33 -42 86q0 47 45 85h-4q-136 0 -224 79q-89 80 -89 231z
" />
    <glyph glyph-name="uogonek" unicode="&#x173;" horiz-adv-x="602" 
d="M42 209v295h187v-278q0 -68 72 -68t72 68v278h187v-295q0 -71 -33.5 -120t-104.5 -89q-30 -17 -54 -35q-30 -23 -30 -49q0 -30 50 -30q28 0 58 10l-23 -109q-30 -14 -57 -14q-56 0 -99 33q-42 33 -42 86q0 28 17.5 54t43.5 42h-1q-102 4 -173 60q-70 57 -70 161z" />
    <glyph glyph-name="Wcircumflex" unicode="&#x174;" horiz-adv-x="995" 
d="M451 745h-155l202 170l203 -170h-155l-48 53zM498 362l-220 -392l-265 727h195l116 -317l174 313l172 -313l118 317h194l-265 -728z" />
    <glyph glyph-name="wcircumflex" unicode="&#x175;" horiz-adv-x="750" 
d="M375 231l-171 -258l-207 531h176l79 -201l123 182l123 -182l79 201h176l-207 -531zM328 552h-155l202 159l203 -159h-155l-48 46z" />
    <glyph glyph-name="Ycircumflex" unicode="&#x176;" horiz-adv-x="716" 
d="M311 745h-155l202 170l203 -170h-155l-48 53zM452 0h-188v247l-263 450h204l153 -271l153 271h204l-263 -450v-247z" />
    <glyph glyph-name="ycircumflex" unicode="&#x177;" horiz-adv-x="629" 
d="M136 -194l79 188l-214 510h191l117 -292l121 292h193l-298 -698h-189zM262 552h-155l202 159l203 -159h-155l-48 46z" />
    <glyph glyph-name="Ydieresis" unicode="&#x178;" horiz-adv-x="716" 
d="M452 0h-188v247l-263 450h204l153 -271l153 271h204l-263 -450v-247zM463 891q35 0 59 -23t24 -56q2 -32 -24.5 -55.5t-58.5 -23.5t-59 23q-19 17 -23 41t5.5 45t30 35.5t46.5 13.5zM253 891q35 0 59 -23t24 -56q2 -32 -24.5 -55.5t-58.5 -23.5t-59 23q-19 17 -23 41
t5.5 45t30 35.5t46.5 13.5z" />
    <glyph glyph-name="Zacute" unicode="&#x179;" horiz-adv-x="656" 
d="M630 0h-629l339 525h-272v172h577l-331 -525h316v-172zM419 745h-136l49 145h190z" />
    <glyph glyph-name="zacute" unicode="&#x17a;" horiz-adv-x="546" 
d="M541 0h-553l261 343h-212v161h518l-256 -343h242v-161zM344 552h-136l49 145h190z" />
    <glyph glyph-name="Zdotaccent" unicode="&#x17b;" horiz-adv-x="656" 
d="M630 0h-629l339 525h-272v172h577l-331 -525h316v-172zM426 757q-25 -24 -60 -24t-60 24t-25 57t25 57t60 24t60 -24t25 -57t-25 -57z" />
    <glyph glyph-name="zdotaccent" unicode="&#x17c;" horiz-adv-x="546" 
d="M356 564q-25 -24 -60 -24t-60 24t-25 57t25 57t60 24t60 -24t25 -57t-25 -57zM541 0h-553l261 343h-212v161h518l-256 -343h242v-161z" />
    <glyph glyph-name="Zcaron" unicode="&#x17d;" horiz-adv-x="656" 
d="M630 0h-629l339 525h-272v172h577l-331 -525h316v-172zM569 890l-203 -159l-202 159h155l47 -46l48 46h155z" />
    <glyph glyph-name="zcaron" unicode="&#x17e;" horiz-adv-x="546" 
d="M541 0h-553l261 343h-212v161h518l-256 -343h242v-161zM499 704l-203 -159l-202 159h155l47 -46l48 46h155z" />
    <glyph glyph-name="florin" unicode="&#x192;" horiz-adv-x="494" 
d="M185 -101h-184l93 416h-69l32 145h69q0 2 3 14q13 56 29 93t45 72q61 75 201 75q48 0 90 -7l-36 -167q-17 4 -63 4q-68 0 -84 -70q-3 -12 -3 -14h97l-32 -145h-96z" />
    <glyph glyph-name="Aringacute" unicode="&#x1fa;" horiz-adv-x="770" 
d="M197 0h-198l322 623q-32 16 -51 45t-19 64q0 51 39 87q40 37 95 37q56 0 93 -37q39 -36 39 -87q0 -35 -19 -64t-50 -45l323 -623h-198l-45 91h-286zM360 708q16 -14 34.5 -7.5t23 23t-8.5 32.5q-14 16 -33 9t-24.5 -24t8.5 -33zM385 399l-79 -161h158zM460 907h-136
l49 145h190z" />
    <glyph glyph-name="aringacute" unicode="&#x1fb;" horiz-adv-x="639" 
d="M411 821h-136l49 145h190zM435 579q-37 -36 -93 -36q-54 0 -95 36q-39 37 -39 88t39 87q40 37 95 37q56 0 93 -37q39 -36 39 -87t-39 -88zM317 643q16 -14 34.5 -7.5t23 23t-8.5 32.5q-14 16 -33 9t-24.5 -24t8.5 -33zM24 252q0 106 71 182q70 76 178 76q109 0 139 -59
v53h181v-504h-181v53q-30 -59 -139 -59q-107 0 -178 75q-71 76 -71 183zM207 252q0 -40 31 -68t74 -28t74 28t31 68q0 39 -31 67.5t-74 28.5t-74 -28.5t-31 -67.5z" />
    <glyph glyph-name="AEacute" unicode="&#x1fc;" horiz-adv-x="960" 
d="M167 0h-213l574 697h384v-171h-244v-96h225v-156h-225v-106h252v-168h-439v91h-237zM481 384l-121 -146h121v146zM654 745h-136l49 145h190z" />
    <glyph glyph-name="aeacute" unicode="&#x1fd;" horiz-adv-x="861" 
d="M25 143q0 83 55.5 127t176.5 48q49 1 71 4q26 5 26 23q0 29 -74 29q-75 0 -128 -59l-102 88q83 110 228 110q115 0 165 -59q63 60 156 60q107 0 175 -74t68 -182q0 -33 -4 -56h-326q2 -27 30.5 -43.5t73.5 -16.5q53 0 89 39l104 -100q-82 -91 -197 -91q-108 0 -176 62
q-64 -64 -202 -64q-97 0 -153 42t-56 113zM203 171q0 -34 50 -34q100 0 100 59v19q-26 -8 -74 -9l-41 -3q-13 -1 -24 -9.5t-11 -22.5zM515 318h146q0 23 -18 39t-45 16q-33 0 -57.5 -16.5t-25.5 -38.5zM495 552h-136l49 145h190z" />
    <glyph glyph-name="Oslashacute" unicode="&#x1fe;" horiz-adv-x="827" 
d="M189 -66l-122 97l60 76q-97 101 -97 241q0 149 112 254t271 105q85 0 162 -33l64 81l122 -97l-58 -73q96 -101 96 -237q0 -149 -113 -256q-112 -106 -273 -106q-80 0 -158 32zM246 258l215 272q-24 7 -48 7q-78 0 -134 -56q-55 -55 -55 -133q0 -49 22 -90zM582 432
l-211 -268q15 -4 42 -4q77 0 133 56q57 56 57 132q0 42 -21 84zM481 745h-136l49 145h190z" />
    <glyph glyph-name="oslashacute" unicode="&#x1ff;" horiz-adv-x="604" 
d="M151 -60l-98 74l44 59q-73 77 -73 179q0 110 83 188q83 79 203 79q55 0 109 -20l44 58l98 -74l-40 -52q75 -78 75 -179q0 -110 -84 -189q-84 -78 -202 -78q-58 0 -110 20zM212 218l99 132h-1q-43 0 -73.5 -29t-30.5 -69q0 -17 6 -34zM407 286l-100 -132h3q41 0 73 29
q31 28 31 69q0 16 -7 34zM383 552h-136l49 145h190z" />
    <glyph glyph-name="Scommaaccent" unicode="&#x218;" horiz-adv-x="594" 
d="M164 -193l49 145h190l-103 -145h-136zM34 46v190q100 -76 246 -76q113 0 113 51q0 19 -25 32q-23 12 -87 31q-50 15 -91 29q-151 55 -151 196q0 97 78 153q79 55 190 55q120 0 209 -47v-177q-79 55 -199 55q-97 0 -97 -38q0 -27 44 -45q14 -7 40 -16l51 -14
q37 -10 46 -13q103 -32 139 -77q38 -47 38 -124q0 -104 -73.5 -162.5t-216.5 -58.5q-150 0 -254 56z" />
    <glyph glyph-name="scommaaccent" unicode="&#x219;" horiz-adv-x="498" 
d="M38 29v157q105 -51 206 -51q23 0 35 1t21 6.5t9 15.5q0 9 -33 15l-85 17q-52 12 -85 33q-65 41 -65 126q0 81 65 125q66 45 152 45q96 0 166 -36v-150q-72 34 -163 34q-55 0 -55 -20q0 -13 13 -17q18 -6 52 -10q28 -3 59 -10q75 -16 112.5 -50.5t37.5 -97.5
q0 -175 -242 -175q-92 0 -200 42zM114 -193l49 145h190l-103 -145h-136z" />
    <glyph glyph-name="circumflex" unicode="&#x2c6;" horiz-adv-x="510" 
d="M208 552h-155l202 159l203 -159h-155l-48 46z" />
    <glyph glyph-name="caron" unicode="&#x2c7;" horiz-adv-x="510" 
d="M457 704l-203 -159l-202 159h155l47 -46l48 46h155z" />
    <glyph glyph-name="breve" unicode="&#x2d8;" horiz-adv-x="510" 
d="M94 697h119q7 -24 42 -24t42 24h119q-8 -56 -50 -97q-41 -41 -111 -41q-69 0 -112 41q-41 42 -49 97z" />
    <glyph glyph-name="dotaccent" unicode="&#x2d9;" horiz-adv-x="510" 
d="M316 564q-25 -24 -60 -24t-60 24t-25 57t25 57t60 24t60 -24t25 -57t-25 -57z" />
    <glyph glyph-name="ring" unicode="&#x2da;" horiz-adv-x="510" 
d="M345 579q-37 -36 -93 -36q-54 0 -95 36q-39 37 -39 88t39 87q40 37 95 37q56 0 93 -37q39 -36 39 -87t-39 -88zM227 643q16 -14 34.5 -7.5t23 23t-8.5 32.5q-14 16 -33 9t-24.5 -24t8.5 -33z" />
    <glyph glyph-name="ogonek" unicode="&#x2db;" horiz-adv-x="510" 
d="M161 -109q0 63 75 109h104q-66 -44 -66 -85q0 -30 50 -30q28 0 58 10l-23 -109q-30 -14 -57 -14q-56 0 -99 33q-42 33 -42 86z" />
    <glyph glyph-name="tilde" unicode="&#x2dc;" horiz-adv-x="510" 
d="M126 557l-98 16q9 65 48.5 104t99.5 39q41 0 89 -22q50 -22 75 -22q34 0 44 42l98 -16q-22 -150 -150 -150q-41 0 -91 22t-75 22q-34 0 -40 -35z" />
    <glyph glyph-name="hungarumlaut" unicode="&#x2dd;" horiz-adv-x="510" 
d="M371 552h-127l74 145h179zM176 552h-127l74 145h179z" />
    <glyph glyph-name="pi" unicode="&#x3c0;" horiz-adv-x="689" 
d="M286 0h-189q40 81 57 152q16 68 16 180h-19q-18 0 -24 -16l-137 78q20 49 65.5 79.5t99.5 30.5h511l-42 -172h-47v-150q0 -24 10.5 -32t37.5 -8v-147q-25 -5 -61 -5q-163 0 -163 168v174h-54q-6 -232 -61 -332z" />
    <glyph glyph-name="Wgrave" unicode="&#x1e80;" horiz-adv-x="995" 
d="M498 362l-220 -392l-265 727h195l116 -317l174 313l172 -313l118 317h194l-265 -728zM578 745h-136l-103 145h190z" />
    <glyph glyph-name="wgrave" unicode="&#x1e81;" horiz-adv-x="750" 
d="M375 231l-171 -258l-207 531h176l79 -201l123 182l123 -182l79 201h176l-207 -531zM463 552h-136l-103 145h190z" />
    <glyph glyph-name="Wacute" unicode="&#x1e82;" horiz-adv-x="995" 
d="M498 362l-220 -392l-265 727h195l116 -317l174 313l172 -313l118 317h194l-265 -728zM536 745h-136l49 145h190z" />
    <glyph glyph-name="wacute" unicode="&#x1e83;" horiz-adv-x="750" 
d="M375 231l-171 -258l-207 531h176l79 -201l123 182l123 -182l79 201h176l-207 -531zM419 552h-136l49 145h190z" />
    <glyph glyph-name="Wdieresis" unicode="&#x1e84;" horiz-adv-x="995" 
d="M498 362l-220 -392l-265 727h195l116 -317l174 313l172 -313l118 317h194l-265 -728zM603 891q35 0 59 -23t24 -56q2 -32 -24.5 -55.5t-58.5 -23.5t-59 23q-19 17 -23 41t5.5 45t30 35.5t46.5 13.5zM393 891q35 0 59 -23t24 -56q2 -32 -24.5 -55.5t-58.5 -23.5t-59 23
q-19 17 -23 41t5.5 45t30 35.5t46.5 13.5z" />
    <glyph glyph-name="wdieresis" unicode="&#x1e85;" horiz-adv-x="750" 
d="M480 698q35 0 59 -23t24 -56q2 -32 -24.5 -55.5t-58.5 -23.5t-59 23q-19 17 -23 41t5.5 45t30 35.5t46.5 13.5zM270 698q35 0 59 -23t24 -56q2 -32 -24.5 -55.5t-58.5 -23.5t-59 23q-19 17 -23 41t5.5 45t30 35.5t46.5 13.5zM375 231l-171 -258l-207 531h176l79 -201
l123 182l123 -182l79 201h176l-207 -531z" />
    <glyph glyph-name="Ygrave" unicode="&#x1ef2;" horiz-adv-x="716" 
d="M452 0h-188v247l-263 450h204l153 -271l153 271h204l-263 -450v-247zM437 745h-136l-103 145h190z" />
    <glyph glyph-name="ygrave" unicode="&#x1ef3;" horiz-adv-x="629" 
d="M136 -194l79 188l-214 510h191l117 -292l121 292h193l-298 -698h-189zM395 552h-136l-103 145h190z" />
    <glyph glyph-name="endash" unicode="&#x2013;" horiz-adv-x="587" 
d="M550 209h-513v156h513v-156z" />
    <glyph glyph-name="emdash" unicode="&#x2014;" horiz-adv-x="738" 
d="M701 209h-664v156h664v-156z" />
    <glyph glyph-name="quoteleft" unicode="&#x2018;" horiz-adv-x="295" 
d="M193 458h-171l126 239h132z" />
    <glyph glyph-name="quoteright" unicode="&#x2019;" horiz-adv-x="296" 
d="M154 458h-132l87 239h171z" />
    <glyph glyph-name="quotesinglbase" unicode="&#x201a;" horiz-adv-x="266" 
d="M-23 -128l87 239h171l-126 -239h-132z" />
    <glyph glyph-name="quotedblleft" unicode="&#x201c;" horiz-adv-x="488" 
d="M386 458h-171l126 239h132zM193 458h-171l126 239h132z" />
    <glyph glyph-name="quotedblright" unicode="&#x201d;" horiz-adv-x="489" 
d="M348 458h-132l87 239h171zM154 458h-132l87 239h171z" />
    <glyph glyph-name="quotedblbase" unicode="&#x201e;" horiz-adv-x="460" 
d="M-23 -128l87 239h171l-126 -239h-132zM171 -128l87 239h171l-126 -239h-132z" />
    <glyph glyph-name="dagger" unicode="&#x2020;" horiz-adv-x="326" 
d="M223 301h-120l5 209l-81 -3v115l79 -3l-3 78h120l-3 -78l79 3v-115l-81 3z" />
    <glyph glyph-name="daggerdbl" unicode="&#x2021;" horiz-adv-x="326" 
d="M223 301h-120l3 73l-79 -3v110l81 -3v42l-81 -3v110l79 -3l-3 73h120l-3 -73l79 3v-110l-81 3v-42l81 3v-110l-79 3z" />
    <glyph glyph-name="bullet" unicode="&#x2022;" horiz-adv-x="406" 
d="M203 115q-56 0 -96 40q-41 41 -41 96q0 57 40 96q40 40 97 40q56 0 96 -40q41 -39 41 -96t-40 -97q-39 -39 -97 -39z" />
    <glyph glyph-name="ellipsis" unicode="&#x2026;" horiz-adv-x="698" 
d="M516 18q-28 28 -28 68t28 68q29 28 69 28t68 -28q29 -28 29 -68t-29 -68q-28 -28 -68 -28t-69 28zM280 18q-28 28 -28 68t28 68q29 28 69 28t68 -28q29 -28 29 -68t-29 -68q-28 -28 -68 -28t-69 28zM44 18q-28 28 -28 68t28 68q29 28 69 28t68 -28q29 -28 29 -68t-29 -68
q-28 -28 -68 -28t-69 28z" />
    <glyph glyph-name="perthousand" unicode="&#x2030;" horiz-adv-x="1149" 
d="M295 446q-47 -44 -113 -44q-67 0 -114 44q-47 45 -47 109t47 108t114 44q66 0 113 -44t47 -108t-47 -109zM225 0h-163l486 697h163zM182 522q13 0 21.5 9t8.5 24q0 20 -15 28t-30 0t-15 -28q0 -33 30 -33zM854 34q-47 45 -47 109t47 108t114 44q66 0 113 -44t47 -108
t-47 -109q-47 -44 -113 -44q-67 0 -114 44zM481 34q-47 45 -47 109t47 108t114 44q66 0 113 -44t47 -108t-47 -109q-47 -44 -113 -44q-67 0 -114 44zM938 143q0 -33 30 -33q13 0 21.5 9t8.5 24q0 20 -15 28t-30 0t-15 -28zM565 143q0 -33 30 -33q13 0 21.5 9t8.5 24
q0 20 -15 28t-30 0t-15 -28z" />
    <glyph glyph-name="guilsinglleft" unicode="&#x2039;" horiz-adv-x="372" 
d="M345 61h-190l-126 192l126 192h190l-130 -192z" />
    <glyph glyph-name="guilsinglright" unicode="&#x203a;" horiz-adv-x="372" 
d="M217 61h-190l130 192l-130 192h190l126 -192z" />
    <glyph glyph-name="fraction" unicode="&#x2044;" horiz-adv-x="637" 
d="M157 0h-163l486 697h163z" />
    <glyph glyph-name="zerosuperior" unicode="&#x2070;" horiz-adv-x="364" 
d="M31 437q-2 22 -2 76q0 53 2 75q6 50 49 83t102 33t102 -33t49 -83q2 -22 2 -75q0 -54 -2 -76q-6 -50 -50 -83q-43 -33 -101 -33t-102 33q-43 33 -49 83zM163 453q1 -22 23 -22t23 22q1 7 1 60q0 49 -1 56q-1 22 -23 22t-23 -22q-1 -7 -1 -56q0 -53 1 -60z" />
    <glyph glyph-name="foursuperior" unicode="&#x2074;" horiz-adv-x="356" 
d="M328 327h-115v59h-212l128 311h122l-84 -207h46v70h115v-233z" />
    <glyph glyph-name="fivesuperior" unicode="&#x2075;" horiz-adv-x="320" 
d="M0 397l94 63q12 -22 43 -22q35 0 35 25q0 15 -12 20t-41 5q-8 0 -90 -5l27 214h218v-117h-124l-3 -21q12 2 40 2q47 0 82 -32t35 -79q0 -53 -43 -90t-104 -37q-50 0 -92.5 20.5t-64.5 53.5z" />
    <glyph glyph-name="sixsuperior" unicode="&#x2076;" horiz-adv-x="342" 
d="M13 460q0 20 8 44q6 18 16 38l29 46l69 109h141l-74 -110h5q52 0 86 -37q36 -36 36 -88q0 -57 -47 -98t-113 -41q-65 0 -111 40q-45 41 -45 97zM140 463q0 -10 9 -18.5t20 -8.5t19.5 8t8.5 19q0 9 -8.5 17.5t-19.5 8.5t-20 -8.5t-9 -17.5z" />
    <glyph glyph-name="sevensuperior" unicode="&#x2077;" horiz-adv-x="328" 
d="M168 328h-131l116 252h-130v117h312z" />
    <glyph glyph-name="eightsuperior" unicode="&#x2078;" horiz-adv-x="340" 
d="M13 459q0 48 44 80q-19 16 -19 46q0 49 38 84q40 35 94 35t92 -35q39 -35 39 -84q0 -28 -19 -46q45 -31 45 -80q0 -56 -46 -96q-44 -40 -111 -40q-66 0 -112 40q-45 41 -45 96zM156 566q9 -8 19.5 -4t13 13t-5.5 18q-7 9 -18 5.5t-14 -13t5 -19.5zM144 461
q0 -16 16 -22.5t27 5.5q11 11 5 26.5t-22 15.5q-10 0 -18 -8t-8 -17z" />
    <glyph glyph-name="ninesuperior" unicode="&#x2079;" horiz-adv-x="342" 
d="M203 328h-141l74 107h-3q-49 0 -85 38q-35 38 -35 91q0 57 47 98q47 42 113 42q62 0 109 -41t47 -98q0 -29 -12 -56.5t-41 -70.5zM153 544q17 -19 38 -1q18 16 7 32q-2 3 -5 6q-12 12 -27 7t-19 -18t6 -26z" />
    <glyph glyph-name="zero.inferior" unicode="&#x2080;" horiz-adv-x="364" 
d="M31 109q-2 22 -2 76q0 53 2 75q6 50 49 83t102 33t102 -33t49 -83q2 -22 2 -75q0 -54 -2 -76q-6 -50 -50 -83q-43 -33 -101 -33t-102 33q-43 33 -49 83zM163 125q1 -22 23 -22t23 22q1 7 1 60q0 49 -1 56q-1 22 -23 22t-23 -22q-1 -7 -1 -56q0 -53 1 -60z" />
    <glyph glyph-name="one.inferior" unicode="&#x2081;" horiz-adv-x="248" 
d="M212 0h-133v252h-59v117h192v-369z" />
    <glyph glyph-name="two.inferior" unicode="&#x2082;" horiz-adv-x="340" 
d="M326 0h-318l177 206q14 17 14 31t-7.5 23t-18.5 9q-14 0 -24 -12t-10 -30h-115q0 63 43 106t105 43q59 0 100 -38t41 -93q0 -43 -28 -75l-46 -53h87v-117z" />
    <glyph glyph-name="three.inferior" unicode="&#x2083;" horiz-adv-x="333" 
d="M1 60l95 71q24 -21 46 -21q16 0 27.5 7.5t11.5 19.5q0 15 -11 21t-37 6q-29 0 -66 -4l65 92h-99v117h284l-90 -129h1q38 -8 61.5 -36.5t23.5 -65.5q0 -62 -46 -102.5t-123 -40.5q-90 0 -143 65z" />
    <glyph glyph-name="four.inferior" unicode="&#x2084;" horiz-adv-x="356" 
d="M213 59h-212l128 311h122l-84 -207h46v70h115v-233h-115v59z" />
    <glyph glyph-name="five.inferior" unicode="&#x2085;" horiz-adv-x="320" 
d="M0 69l94 63q12 -22 43 -22q35 0 35 25q0 15 -12 20t-41 5q-8 0 -90 -5l27 214h218v-117h-124l-3 -21q12 2 40 2q47 0 82 -32t35 -79q0 -53 -43 -90t-104 -37q-50 0 -92.5 20.5t-64.5 53.5z" />
    <glyph glyph-name="six.inferior" unicode="&#x2086;" horiz-adv-x="342" 
d="M13 132q0 20 8 44q6 18 16 38l29 46l69 109h141l-74 -110h5q52 0 86 -37q36 -36 36 -88q0 -57 -47 -98t-113 -41q-65 0 -111 40q-45 41 -45 97zM140 135q0 -10 9 -18.5t20 -8.5t19.5 8t8.5 19q0 9 -8.5 17.5t-19.5 8.5t-20 -8.5t-9 -17.5z" />
    <glyph glyph-name="seven.inferior" unicode="&#x2087;" horiz-adv-x="328" 
d="M168 0h-131l116 252h-130v117h312z" />
    <glyph glyph-name="eight.inferior" unicode="&#x2088;" horiz-adv-x="340" 
d="M13 131q0 48 44 80q-19 16 -19 46q0 49 38 84q40 35 94 35t92 -35q39 -35 39 -84q0 -28 -19 -46q45 -31 45 -80q0 -56 -46 -96q-44 -40 -111 -40q-66 0 -112 40q-45 41 -45 96zM156 238q9 -8 19.5 -4t13 13t-5.5 18q-7 9 -18 5.5t-14 -13t5 -19.5zM144 133
q0 -16 16 -22.5t27 5.5q11 11 5 26.5t-22 15.5q-10 0 -18 -8t-8 -17z" />
    <glyph glyph-name="nine.inferior" unicode="&#x2089;" horiz-adv-x="342" 
d="M203 0h-141l74 107h-3q-49 0 -85 38q-35 38 -35 91q0 57 47 98q46 42 113 42q62 0 109 -41t47 -98q0 -29 -12 -56.5t-41 -70.5zM153 216q17 -19 38 -1q18 16 7 32q-2 3 -5 6q-12 12 -27 7t-19 -18t6 -26z" />
    <glyph glyph-name="Euro" unicode="&#x20ac;" horiz-adv-x="768" 
d="M108 253h-104l35 77h57v18q0 27 1 35h-76l35 77h57q35 112 129 179q95 68 214 68q78 0 147.5 -35.5t121.5 -100.5l-129 -108q-56 74 -140 74q-87 0 -138 -77h224l-35 -77h-219q-2 -14 -2 -35v-18h196l-35 -77h-139q22 -43 61 -68t87 -25q84 0 140 74l129 -108
q-52 -65 -121.5 -100.5t-147.5 -35.5q-125 0 -221 72q-96 73 -127 191z" />
    <glyph glyph-name="uni2113" unicode="&#x2113;" horiz-adv-x="594" 
d="M119 122l-69 -34l-54 122q17 12 59 36q45 25 55 32v187q0 156 69 212q59 48 150 48q88 0 142 -61q54 -62 54 -153q0 -93 -56.5 -167.5t-174.5 -141.5v-5q0 -24 13 -37q9 -8 18.5 -11.5t15.5 -4t24 -0.5q51 0 104 45l100 -108q-95 -104 -243 -104q-84 0 -139 45
q-54 46 -68 100zM292 509v-136q59 44 59 134q0 53 -30 53q-29 0 -29 -51z" />
    <glyph glyph-name="uni2116" unicode="&#x2116;" horiz-adv-x="1342" 
d="M239 0h-182v725l421 -381v353h182v-725l-421 371v-343zM772 462q0 100 74 168q73 67 178 67t178 -67q74 -68 74 -168q0 -102 -74 -170q-73 -67 -178 -67t-178 67q-74 68 -74 170zM1097 462q0 28 -21 50t-52 22t-52 -22t-21 -50t21 -51t52 -23t52 22.5t21 51.5zM1274 0
h-495v156h495v-156z" />
    <glyph glyph-name="trademark" unicode="&#x2122;" horiz-adv-x="937" 
d="M599 326h-153v371h115l118 -143l120 143h113v-371h-153v139l-80 -89l-80 89v-139zM295 326h-167v216h-103v155h369v-155h-99v-216z" />
    <glyph glyph-name="Omega" unicode="&#x2126;" horiz-adv-x="838" 
d="M401 0h-370v172h70q-55 85 -55 186q0 144 109 246q109 103 264 103q154 0 263 -103q110 -102 110 -246q0 -98 -56 -186h72v-172h-371q66 37 113 118q48 82 48 180q0 102 -47 170q-47 69 -132 69q-87 0 -133 -69q-46 -67 -46 -170q0 -98 48 -180q47 -81 113 -118z" />
    <glyph glyph-name="estimated" unicode="&#x212e;" horiz-adv-x="881" 
d="M186 359v-257q110 -93 255 -93q86 0 162 33.5t128 93.5h30q-57 -69 -141.5 -108.5t-179.5 -39.5q-171 0 -290 112q-120 112 -120 270t120 270q119 112 290 112t290 -112q121 -112 121 -270v-11h-665zM186 637v-257h508v259q-109 91 -253 91q-145 0 -255 -93z" />
    <glyph glyph-name="onethird" unicode="&#x2153;" horiz-adv-x="783" 
d="M451 60l95 71q24 -21 46 -21q16 0 27.5 7.5t11.5 19.5q0 15 -11 21t-37 6q-29 0 -66 -4l65 92h-99v117h284l-90 -129h1q38 -8 61.5 -36.5t23.5 -65.5q0 -62 -46 -102.5t-123 -40.5q-90 0 -143 65zM187 0h-163l486 697h163zM212 328h-133v252h-59v117h192v-369z" />
    <glyph glyph-name="twothirds" unicode="&#x2154;" horiz-adv-x="886" 
d="M326 328h-318l177 206q14 17 14 31t-7.5 23t-18.5 9q-14 0 -24 -12t-10 -30h-115q0 63 43 106t105 43q59 0 100 -38t41 -93q0 -43 -28 -75l-46 -53h87v-117zM554 60l95 71q24 -21 46 -21q16 0 27.5 7.5t11.5 19.5q0 15 -11 21t-37 6q-29 0 -66 -4l65 92h-99v117h284
l-90 -129h1q38 -8 61.5 -36.5t23.5 -65.5q0 -62 -46 -102.5t-123 -40.5q-90 0 -143 65zM283 0h-163l486 697h163z" />
    <glyph glyph-name="arrowleft" unicode="&#x2190;" horiz-adv-x="718" 
d="M415 97l-119 -118l-275 277l275 276l119 -118l-76 -72h343v-172h-343z" />
    <glyph glyph-name="arrowup" unicode="&#x2191;" horiz-adv-x="798" 
d="M478 0h-172v307l-87 -91l-114 115l287 286l287 -286l-114 -115l-87 91v-307z" />
    <glyph glyph-name="arrowright" unicode="&#x2192;" horiz-adv-x="718" 
d="M379 170h-343v172h342l-75 72l119 118l275 -276l-275 -277l-119 118z" />
    <glyph glyph-name="arrowdown" unicode="&#x2193;" horiz-adv-x="798" 
d="M392 -113l-287 286l114 115l87 -91v307h172v-307l87 91l114 -115z" />
    <glyph glyph-name="arrowboth" unicode="&#x2194;" horiz-adv-x="990" 
d="M415 97l-119 -118l-275 277l275 276l119 -118l-76 -72h311l-75 72l119 118l275 -276l-275 -277l-119 118l76 73h-312z" />
    <glyph glyph-name="arrowupdn" unicode="&#x2195;" horiz-adv-x="798" 
d="M392 -169l-282 274l114 115l82 -83v235l-82 -82l-114 115l282 274l282 -274l-114 -115l-82 82v-235l82 83l114 -115z" />
    <glyph glyph-name="arrownorthwest" unicode="&#x2196;" horiz-adv-x="798" 
d="M341 91h-168v413h407v-163h-121l233 -233l-122 -122l-229 229v-124z" />
    <glyph glyph-name="arrownortheast" unicode="&#x2197;" horiz-adv-x="798" 
d="M228 -14l-122 122l233 233h-121v163h407v-413h-168v124z" />
    <glyph glyph-name="arrowsoutheast" unicode="&#x2198;" horiz-adv-x="798" 
d="M339 163l-233 233l122 122l229 -229v124h168v-413h-407v163h121z" />
    <glyph glyph-name="arrowsouthwest" unicode="&#x2199;" horiz-adv-x="798" 
d="M580 0h-407v413h168v-124l229 229l122 -122l-233 -233h121v-163z" />
    <glyph glyph-name="partialdiff" unicode="&#x2202;" horiz-adv-x="576" 
d="M30 228q0 96 72 170q74 74 182 74q48 0 74 -18v1q0 36 -23 61.5t-71 25.5q-69 0 -107 -29l-93 127q88 72 220 72q154 0 222 -144q38 -82 38 -208q0 -162 -63 -262q-35 -54 -94 -83.5t-127 -29.5q-110 0 -170 70q-60 71 -60 173zM216 223q0 -28 16 -46t45 -18q41 0 63 33
q16 22 16 51q0 27 -19 44.5t-49 17.5q-29 0 -50.5 -22.5t-21.5 -59.5z" />
    <glyph glyph-name="increment" unicode="&#x2206;" horiz-adv-x="671" 
d="M663 0h-655l328 712zM335 356l-81 -184h162z" />
    <glyph glyph-name="product" unicode="&#x220f;" horiz-adv-x="737" 
d="M311 0h-188v526h-105v171h701v-171h-105v-526h-188v526h-115v-526z" />
    <glyph glyph-name="summation" unicode="&#x2211;" horiz-adv-x="582" 
d="M553 0h-562l223 359l-214 338h541v-180h-229l105 -160l-111 -185h247v-172z" />
    <glyph glyph-name="minus" unicode="&#x2212;" horiz-adv-x="590" 
d="M547 271h-504v156h504v-156z" />
    <glyph glyph-name="radical" unicode="&#x221a;" horiz-adv-x="669" 
d="M148 275l-91 -39l-53 124l237 97l84 -193l179 536h168l-324 -972z" />
    <glyph glyph-name="infinity" unicode="&#x221e;" horiz-adv-x="841" 
d="M217 123q-85 0 -139 55q-54 56 -54 140q0 82 58 140q59 59 145 59q40 0 77 -19q41 -21 58 -37q28 -26 55 -54q104 110 207 110q84 0 138 -56q55 -55 55 -143q0 -78 -59 -137q-58 -58 -146 -58q-36 0 -73 17q-36 18 -56 35q-7 6 -56 53q-107 -105 -210 -105zM514 315
q44 -43 76 -43q25 0 41 13t16 33q0 22 -15.5 35.5t-39.5 13.5q-30 0 -78 -52zM251 272q29 0 79 51q-47 44 -77 44q-25 0 -42 -14.5t-17 -34.5t16 -33t41 -13z" />
    <glyph glyph-name="integral" unicode="&#x222b;" horiz-adv-x="340" 
d="M12 -93v151q25 -5 47 -5q35 0 42 37q7 28 7 96q0 34 -14 176q-13 131 -13 202q0 119 45.5 172t137.5 53q32 0 64 -9v-149q-14 3 -36 3q-25 0 -32.5 -21.5t-7.5 -81.5q0 -62 13 -211q14 -160 14 -197q0 -119 -47.5 -172t-144.5 -53q-35 0 -75 9z" />
    <glyph glyph-name="approxequal" unicode="&#x2248;" horiz-adv-x="502" 
d="M127 388l-98 16q9 77 48 122.5t100 45.5q39 0 84 -22t70 -22q33 0 44 42l98 -16q-21 -175 -150 -175q-38 0 -85 22t-71 22q-34 0 -40 -35zM127 157l-98 16q9 77 48 122.5t100 45.5q39 0 84 -22t70 -22q33 0 44 42l98 -16q-21 -175 -150 -175q-38 0 -85 22t-71 22
q-34 0 -40 -35z" />
    <glyph glyph-name="notequal" unicode="&#x2260;" horiz-adv-x="646" 
d="M204 14l-124 75l42 69h-74v156h168l41 68h-209v156h304l87 143l123 -75l-41 -68h77v-156h-172l-41 -68h213v-156h-307z" />
    <glyph glyph-name="lessequal" unicode="&#x2264;" horiz-adv-x="470" 
d="M423 171l-406 259l406 259v-181l-126 -78l126 -74v-185zM423 0h-376v156h376v-156z" />
    <glyph glyph-name="greaterequal" unicode="&#x2265;" horiz-adv-x="470" 
d="M453 430l-406 -259v185l126 74l-126 78v181zM423 0h-376v156h376v-156z" />
    <glyph glyph-name="triagup" unicode="&#x25b2;" horiz-adv-x="593" 
d="M537 100h-481l233 411z" />
    <glyph glyph-name="triagrt" unicode="&#x25ba;" horiz-adv-x="593" 
d="M520 268l-411 -248v481z" />
    <glyph glyph-name="triagdn" unicode="&#x25bc;" horiz-adv-x="593" 
d="M537 442l-248 -411l-233 411h481z" />
    <glyph glyph-name="triaglf" unicode="&#x25c4;" horiz-adv-x="593" 
d="M484 20l-411 248l411 233v-481z" />
    <glyph glyph-name="lozenge" unicode="&#x25ca;" horiz-adv-x="574" 
d="M573 349l-286 -384l-286 384l286 373zM189 347l98 -125l98 125l-98 123z" />
    <glyph glyph-name="uni25E2" unicode="&#x25e2;" horiz-adv-x="593" 
d="M513 51l-466 115l340 340z" />
    <glyph glyph-name="uni25E3" unicode="&#x25e3;" horiz-adv-x="593" 
d="M546 166l-466 -115l126 455z" />
    <glyph glyph-name="uni25E4" unicode="&#x25e4;" horiz-adv-x="593" 
d="M536 363l-340 -340l-115 466z" />
    <glyph glyph-name="uni25E5" unicode="&#x25e5;" horiz-adv-x="593" 
d="M395 23l-340 340l455 126z" />
    <glyph glyph-name="CR" horiz-adv-x="333" 
 />
    <glyph glyph-name="space.frac" horiz-adv-x="20" 
 />
    <glyph glyph-name="C.alt" horiz-adv-x="712" 
d="M410 707q84 0 159 -36t130 -100l-129 -108q-66 74 -160 74q-80 0 -135 -54t-55 -135t55 -135q56 -53 135 -53q94 0 160 74l129 -108q-55 -64 -130 -100t-159 -36q-159 0 -270 102q-110 102 -110 256t110 256q110 103 270 103z" />
    <glyph glyph-name="G.alt" horiz-adv-x="754" 
d="M410 707q171 0 283 -124l-129 -108q-60 62 -154 62q-80 0 -135 -54t-55 -135t55 -135q56 -53 135 -53q92 0 145 60v47h-180v158h344v-280q-50 -71 -132 -113t-177 -42q-159 0 -270 102q-110 102 -110 256t110 256q110 103 270 103z" />
    <glyph glyph-name="K.alt" horiz-adv-x="710" 
d="M247 0h-190v697h190v-283l238 283h223l-261 -309l270 -388h-224l-177 259l-69 -80v-179z" />
    <glyph glyph-name="M.alt" horiz-adv-x="881" 
d="M187 0h-178l132 728l299 -448l300 448l132 -728h-179l-53 275l-200 -303l-200 303z" />
    <glyph glyph-name="Q.alt" horiz-adv-x="827" 
d="M413 707q159 0 272 -105q112 -105 112 -254q0 -122 -84 -216l57 -64l-125 -108l-61 67q-78 -37 -171 -37q-158 0 -271 104q-112 105 -112 254t112 254t271 105zM224 348q0 -79 55 -134q55 -54 134 -54q29 0 46 4l-74 82l125 108l77 -86q16 31 16 80q0 76 -56 132
q-55 57 -134 57q-78 0 -134 -56q-55 -55 -55 -133z" />
    <glyph glyph-name="S.alt" horiz-adv-x="594" 
d="M-8 138l134 103q28 -39 74 -62.5t100 -23.5q93 0 93 50q0 27 -39 43q-23 9 -41 14q-74 22 -110 35q-161 60 -161 201q0 99 73 154t177 55q172 0 258 -111l-125 -107q-46 55 -126 55q-36 0 -56 -12t-20 -31q0 -28 28 -40q16 -7 35 -12q50 -10 123 -37q89 -32 129 -80.5
t40 -120.5q0 -104 -71 -162.5t-207 -58.5q-117 0 -193 43q-74 43 -115 105z" />
    <glyph glyph-name="W.alt" horiz-adv-x="1027" 
d="M513 279l-164 -316l-348 734h188l179 -358l52 100l-127 258h168l52 -104l52 104h169l-127 -258l52 -100l178 358h189l-348 -734z" />
    <glyph glyph-name="Cacute.alt" horiz-adv-x="712" 
d="M410 707q84 0 159 -36t130 -100l-129 -108q-66 74 -160 74q-80 0 -135 -54t-55 -135t55 -135q56 -53 135 -53q94 0 160 74l129 -108q-55 -64 -130 -100t-159 -36q-159 0 -270 102q-110 102 -110 256t110 256q110 103 270 103zM456 745h-136l49 145h190z" />
    <glyph glyph-name="Ccircumflex.alt" horiz-adv-x="712" 
d="M410 707q84 0 159 -36t130 -100l-129 -108q-66 74 -160 74q-80 0 -135 -54t-55 -135t55 -135q56 -53 135 -53q94 0 160 74l129 -108q-55 -64 -130 -100t-159 -36q-159 0 -270 102q-110 102 -110 256t110 256q110 103 270 103zM359 756h-155l202 159l203 -159h-155l-48 46
z" />
    <glyph glyph-name="Ccaron.alt" horiz-adv-x="712" 
d="M410 707q84 0 159 -36t130 -100l-129 -108q-66 74 -160 74q-80 0 -135 -54t-55 -135t55 -135q56 -53 135 -53q94 0 160 74l129 -108q-55 -64 -130 -100t-159 -36q-159 0 -270 102q-110 102 -110 256t110 256q110 103 270 103zM613 890l-203 -159l-202 159h155l47 -46
l48 46h155z" />
    <glyph glyph-name="Cdotaccent.alt" horiz-adv-x="712" 
d="M410 707q84 0 159 -36t130 -100l-129 -108q-66 74 -160 74q-80 0 -135 -54t-55 -135t55 -135q56 -53 135 -53q94 0 160 74l129 -108q-55 -64 -130 -100t-159 -36q-159 0 -270 102q-110 102 -110 256t110 256q110 103 270 103zM468 757q-25 -24 -60 -24t-60 24t-25 57
t25 57t60 24t60 -24t25 -57t-25 -57z" />
    <glyph glyph-name="Ccedilla.alt" horiz-adv-x="712" 
d="M30 348q0 154 110 256q110 103 270 103q84 0 159 -36t130 -100l-129 -108q-66 74 -160 74q-80 0 -135 -54t-55 -135t55 -135q56 -53 135 -53q94 0 160 74l129 -108q-101 -120 -254 -134h-1l-16 -38q28 0 47 -21.5t19 -54.5q0 -50 -34.5 -78t-94.5 -28q-63 0 -103 30
l34 72q20 -12 44 -12q15 0 24.5 7.5t9.5 20.5q0 34 -53 34l29 70q-137 19 -229 117q-91 98 -91 237z" />
    <glyph glyph-name="Gcircumflex.alt" horiz-adv-x="759" 
d="M410 707q171 0 283 -124l-129 -108q-60 62 -154 62q-80 0 -135 -54t-55 -135t55 -135q56 -53 135 -53q92 0 145 60v47h-180v158h344v-280q-50 -71 -132 -113t-177 -42q-159 0 -270 102q-110 102 -110 256t110 256q110 103 270 103zM358 756h-155l202 159l203 -159h-155
l-48 46z" />
    <glyph glyph-name="Gbreve.alt" horiz-adv-x="759" 
d="M218 892h124q14 -35 62 -35t62 35h124q-9 -61 -58 -104q-47 -43 -128 -43q-80 0 -129 43q-48 43 -57 104zM410 707q171 0 283 -124l-129 -108q-60 62 -154 62q-80 0 -135 -54t-55 -135t55 -135q56 -53 135 -53q92 0 145 60v47h-180v158h344v-280q-50 -71 -132 -113
t-177 -42q-159 0 -270 102q-110 102 -110 256t110 256q110 103 270 103z" />
    <glyph glyph-name="Gdotaccent.alt" horiz-adv-x="759" 
d="M410 707q171 0 283 -124l-129 -108q-60 62 -154 62q-80 0 -135 -54t-55 -135t55 -135q56 -53 135 -53q92 0 145 60v47h-180v158h344v-280q-50 -71 -132 -113t-177 -42q-159 0 -270 102q-110 102 -110 256t110 256q110 103 270 103zM464 757q-25 -24 -60 -24t-60 24
t-25 57t25 57t60 24t60 -24t25 -57t-25 -57z" />
    <glyph glyph-name="Gcommaaccent.alt" horiz-adv-x="759" 
d="M410 707q171 0 283 -124l-129 -108q-60 62 -154 62q-80 0 -135 -54t-55 -135t55 -135q56 -53 135 -53q92 0 145 60v47h-180v158h344v-280q-50 -71 -132 -113t-177 -42q-159 0 -270 102q-110 102 -110 256t110 256q110 103 270 103zM403 -193h-136l49 145h190z" />
    <glyph glyph-name="Kcommaaccent.alt" horiz-adv-x="710" 
d="M247 0h-190v697h190v-283l238 283h223l-261 -309l270 -388h-224l-177 259l-69 -80v-179zM363 -193h-136l49 145h190z" />
    <glyph glyph-name="Sacute.alt" horiz-adv-x="594" 
d="M-8 138l134 103q28 -39 74 -62.5t100 -23.5q93 0 93 50q0 27 -39 43q-23 9 -41 14q-74 22 -110 35q-161 60 -161 201q0 99 73 154t177 55q172 0 258 -111l-125 -107q-46 55 -126 55q-36 0 -56 -12t-20 -31q0 -28 28 -40q16 -7 35 -12q50 -10 123 -37q89 -32 129 -80.5
t40 -120.5q0 -104 -71 -162.5t-207 -58.5q-117 0 -193 43q-74 43 -115 105zM358 745h-136l49 145h190z" />
    <glyph glyph-name="Scircumflex.alt" horiz-adv-x="594" 
d="M253 745h-155l202 170l203 -170h-155l-48 53zM-8 138l134 103q28 -39 74 -62.5t100 -23.5q93 0 93 50q0 27 -39 43q-23 9 -41 14q-74 22 -110 35q-161 60 -161 201q0 99 73 154t177 55q172 0 258 -111l-125 -107q-46 55 -126 55q-36 0 -56 -12t-20 -31q0 -28 28 -40
q16 -7 35 -12q50 -10 123 -37q89 -32 129 -80.5t40 -120.5q0 -104 -71 -162.5t-207 -58.5q-117 0 -193 43q-74 43 -115 105z" />
    <glyph glyph-name="Scaron.alt" horiz-adv-x="594" 
d="M-8 138l134 103q28 -39 74 -62.5t100 -23.5q93 0 93 50q0 27 -39 43q-23 9 -41 14q-74 22 -110 35q-161 60 -161 201q0 99 73 154t177 55q172 0 258 -111l-125 -107q-46 55 -126 55q-36 0 -56 -12t-20 -31q0 -28 28 -40q16 -7 35 -12q50 -10 123 -37q89 -32 129 -80.5
t40 -120.5q0 -104 -71 -162.5t-207 -58.5q-117 0 -193 43q-74 43 -115 105zM505 890l-203 -159l-202 159h155l47 -46l48 46h155z" />
    <glyph glyph-name="Scommaaccent.alt" horiz-adv-x="594" 
d="M-8 138l134 103q28 -39 74 -62.5t100 -23.5q93 0 93 50q0 27 -39 43q-23 9 -41 14q-74 22 -110 35q-161 60 -161 201q0 99 73 154t177 55q172 0 258 -111l-125 -107q-46 55 -126 55q-36 0 -56 -12t-20 -31q0 -28 28 -40q16 -7 35 -12q50 -10 123 -37q89 -32 129 -80.5
t40 -120.5q0 -104 -71 -162.5t-207 -58.5q-117 0 -193 43q-74 43 -115 105zM298 -193h-136l49 145h190z" />
    <glyph glyph-name="Scedilla.alt" horiz-adv-x="594" 
d="M-8 138l134 103q28 -39 74 -62.5t100 -23.5q93 0 93 50q0 27 -39 43q-23 9 -41 14q-74 22 -110 35q-161 60 -161 201q0 99 73 154t177 55q172 0 258 -111l-125 -107q-46 55 -126 55q-36 0 -56 -12t-20 -31q0 -28 28 -40q16 -7 35 -12q50 -10 123 -37q89 -32 129 -80.5
t40 -120.5q0 -94 -59 -151.5t-173 -67.5l-16 -38q28 0 47 -21.5t19 -54.5q0 -50 -34.5 -78t-94.5 -28q-63 0 -103 30l34 72q20 -12 44 -12q15 0 24.5 7.5t9.5 20.5q0 34 -53 34l28 69q-177 16 -259 145z" />
    <glyph glyph-name="Wgrave.alt" horiz-adv-x="1027" 
d="M513 279l-164 -316l-348 734h188l179 -358l52 100l-127 258h168l52 -104l52 104h169l-127 -258l52 -100l178 358h189l-348 -734zM587 745h-136l-103 145h190z" />
    <glyph glyph-name="Wacute.alt" horiz-adv-x="1027" 
d="M513 279l-164 -316l-348 734h188l179 -358l52 100l-127 258h168l52 -104l52 104h169l-127 -258l52 -100l178 358h189l-348 -734zM570 745h-136l49 145h190z" />
    <glyph glyph-name="Wcircumflex.alt" horiz-adv-x="1027" 
d="M466 745h-155l202 170l203 -170h-155l-48 53zM513 279l-164 -316l-348 734h188l179 -358l52 100l-127 258h168l52 -104l52 104h169l-127 -258l52 -100l178 358h189l-348 -734z" />
    <glyph glyph-name="Wdieresis.alt" horiz-adv-x="1027" 
d="M513 279l-164 -316l-348 734h188l179 -358l52 100l-127 258h168l52 -104l52 104h169l-127 -258l52 -100l178 358h189l-348 -734zM618 891q35 0 59 -23t24 -56q2 -32 -24.5 -55.5t-58.5 -23.5t-59 23q-19 17 -23 41t5.5 45t30 35.5t46.5 13.5zM408 891q35 0 59 -23t24 -56
q2 -32 -24.5 -55.5t-58.5 -23.5t-59 23q-19 17 -23 41t5.5 45t30 35.5t46.5 13.5z" />
    <glyph glyph-name="a.alt" horiz-adv-x="569" 
d="M18 144q0 78 54.5 120t174.5 55q51 6 70 12.5t19 21.5q0 26 -49 26q-79 0 -133 -59l-104 90q84 110 234 110q110 0 170 -47.5t60 -133.5v-151q0 -18 6 -27t12 -10.5t17 -1.5h1v-145q-24 -11 -64 -11q-51 0 -80 20q-17 11 -28 33q-48 -58 -170 -58q-85 0 -137.5 42.5
t-52.5 113.5zM196 165q0 -28 44 -28q95 0 95 75v12q-5 -4 -18 -7q-8 -2 -33 -5.5t-33 -4.5q-55 -10 -55 -42z" />
    <glyph glyph-name="c.alt" horiz-adv-x="541" 
d="M308 520q126 0 219 -102l-118 -113q-43 45 -101 45q-42 0 -71.5 -27.5t-29.5 -68.5t29.5 -68.5t71.5 -27.5q58 0 101 45l118 -113q-93 -102 -219 -102q-120 0 -202 76t-82 190t82 190t202 76z" />
    <glyph glyph-name="e.alt" horiz-adv-x="599" 
d="M24 250v5q0 118 80 189q80 72 204 72q120 0 196 -75q76 -73 76 -183q0 -29 -3 -56h-368q2 -27 32.5 -43t79.5 -16q65 0 108 39l105 -100q-93 -93 -223 -93q-128 0 -208 71q-79 72 -79 190zM210 314h186q0 24 -26 42t-62 18q-39 0 -67.5 -17.5t-30.5 -42.5z" />
    <glyph glyph-name="g.alt" horiz-adv-x="635" 
d="M63 -152l83 126q71 -41 137 -41q59 0 93 21q45 26 45 96v2q-31 -54 -147 -54q-107 0 -178 74t-71 180t71 182q70 76 178 76q110 0 139 -59v53h181v-420q0 -87 -21 -146t-70 -97q-74 -61 -189 -61q-154 0 -251 68zM207 252q0 -40 30.5 -67.5t74.5 -27.5q43 0 74 27.5
t31 67.5q0 39 -31 67.5t-74 28.5t-74 -28.5t-31 -67.5z" />
    <glyph glyph-name="j.alt" horiz-adv-x="277" 
d="M36 628q0 42 30 71.5t72 29.5t72 -29.5t30 -71.5q0 -41 -30 -71t-72 -30t-72 30t-30 71zM231 -193h-185v697h185v-697z" />
    <glyph glyph-name="k.alt" horiz-adv-x="582" 
d="M231 0h-185v697h185v-364l147 171h203l-198 -229l213 -275h-203l-128 162l-34 -37v-125z" />
    <glyph glyph-name="l.alt" horiz-adv-x="327" 
d="M42 181v516h185v-490q0 -31 13 -44.5t42 -13.5q20 0 36 3v-156q-37 -8 -87 -8q-189 0 -189 193z" />
    <glyph glyph-name="r.alt" horiz-adv-x="376" 
d="M227 0h-185v324q0 192 207 192q73 0 117 -10v-154q-25 3 -56 3q-45 0 -64 -15.5t-19 -51.5v-288z" />
    <glyph glyph-name="s.alt" horiz-adv-x="502" 
d="M7 61l98 124q54 -45 151 -45q30 0 43 5t13 19q0 11 -22 15q-21 6 -64 12q-41 7 -74 18q-106 37 -106 135q0 85 64 130t152 45q99 0 186 -54l-72 -124q-56 32 -120 32q-45 0 -45 -21q0 -12 12 -17l57 -10q51 -9 91 -23q111 -38 111 -136q0 -86 -59.5 -133.5t-175.5 -47.5
q-140 0 -240 76z" />
    <glyph glyph-name="t.alt" horiz-adv-x="372" 
d="M74 180v163h-69v161h69v193h185v-193h104v-161h-104v-137q0 -30 13 -43.5t42 -13.5q17 0 34 4v-157q-37 -8 -86 -8q-188 0 -188 192z" />
    <glyph glyph-name="u.alt" horiz-adv-x="598" 
d="M42 206v298h185v-276q0 -36 17.5 -57t49.5 -21t53 22.5t21 58.5v273h184v-504h-184v62q-42 -74 -137 -74q-92 0 -140.5 56.5t-48.5 161.5z" />
    <glyph glyph-name="y.alt" 
d="M103 -214v152q17 -7 65 -7q32 0 48 10q11 8 11 24l-2 5l-220 534h186l125 -314l111 314h186l-223 -581q-25 -67 -61 -97q-58 -47 -153 -47q-42 0 -73 7z" />
    <glyph glyph-name="w.alt" horiz-adv-x="873" 
d="M436 185l-139 -212l-311 531h186l144 -238l32 49l-113 189h164l37 -63l38 63h165l-113 -189l32 -49l143 238h186l-310 -531z" />
    <glyph glyph-name="agrave.alt" horiz-adv-x="569" 
d="M373 552h-136l-103 145h190zM514 339v-151q0 -18 6 -27t12 -10.5t17 -1.5h1v-145q-24 -11 -64 -11q-51 0 -80 20q-17 11 -28 33q-48 -58 -170 -58q-85 0 -137.5 42.5t-52.5 113.5q0 78 54.5 120t174.5 55q51 6 70 12.5t19 21.5q0 26 -49 26q-79 0 -133 -59l-104 90
q84 110 234 110q110 0 170 -47.5t60 -133.5zM196 165q0 -28 44 -28q95 0 95 75v12q-5 -4 -18 -7q-8 -2 -33 -5.5t-33 -4.5q-55 -10 -55 -42z" />
    <glyph glyph-name="aacute.alt" horiz-adv-x="569" 
d="M330 552h-136l49 145h190zM514 339v-151q0 -18 6 -27t12 -10.5t17 -1.5h1v-145q-24 -11 -64 -11q-51 0 -80 20q-17 11 -28 33q-48 -58 -170 -58q-85 0 -137.5 42.5t-52.5 113.5q0 78 54.5 120t174.5 55q51 6 70 12.5t19 21.5q0 26 -49 26q-79 0 -133 -59l-104 90
q84 110 234 110q110 0 170 -47.5t60 -133.5zM196 165q0 -28 44 -28q95 0 95 75v12q-5 -4 -18 -7q-8 -2 -33 -5.5t-33 -4.5q-55 -10 -55 -42z" />
    <glyph glyph-name="acircumflex.alt" horiz-adv-x="569" 
d="M235 552h-155l202 159l203 -159h-155l-48 46zM514 339v-151q0 -18 6 -27t12 -10.5t17 -1.5h1v-145q-24 -11 -64 -11q-51 0 -80 20q-17 11 -28 33q-48 -58 -170 -58q-85 0 -137.5 42.5t-52.5 113.5q0 78 54.5 120t174.5 55q51 6 70 12.5t19 21.5q0 26 -49 26
q-79 0 -133 -59l-104 90q84 110 234 110q110 0 170 -47.5t60 -133.5zM196 165q0 -28 44 -28q95 0 95 75v12q-5 -4 -18 -7q-8 -2 -33 -5.5t-33 -4.5q-55 -10 -55 -42z" />
    <glyph glyph-name="atilde.alt" horiz-adv-x="569" 
d="M157 557l-98 16q9 65 48.5 104t99.5 39q41 0 89 -22q50 -22 75 -22q33 0 44 42l98 -16q-23 -150 -150 -150q-41 0 -91 22t-75 22q-34 0 -40 -35zM514 339v-151q0 -18 6 -27t12 -10.5t17 -1.5h1v-145q-24 -11 -64 -11q-51 0 -80 20q-17 11 -28 33q-48 -58 -170 -58
q-85 0 -137.5 42.5t-52.5 113.5q0 78 54.5 120t174.5 55q51 6 70 12.5t19 21.5q0 26 -49 26q-79 0 -133 -59l-104 90q84 110 234 110q110 0 170 -47.5t60 -133.5zM196 165q0 -28 44 -28q95 0 95 75v12q-5 -4 -18 -7q-8 -2 -33 -5.5t-33 -4.5q-55 -10 -55 -42z" />
    <glyph glyph-name="adieresis.alt" horiz-adv-x="569" 
d="M388 698q35 0 59 -23t24 -56q2 -32 -24.5 -55.5t-58.5 -23.5t-59 23q-19 17 -23 41t5.5 45t30 35.5t46.5 13.5zM178 698q35 0 59 -23t24 -56q2 -32 -24.5 -55.5t-58.5 -23.5t-59 23q-19 17 -23 41t5.5 45t30 35.5t46.5 13.5zM514 339v-151q0 -18 6 -27t12 -10.5t17 -1.5
h1v-145q-24 -11 -64 -11q-51 0 -80 20q-17 11 -28 33q-48 -58 -170 -58q-85 0 -137.5 42.5t-52.5 113.5q0 78 54.5 120t174.5 55q51 6 70 12.5t19 21.5q0 26 -49 26q-79 0 -133 -59l-104 90q84 110 234 110q110 0 170 -47.5t60 -133.5zM196 165q0 -28 44 -28q95 0 95 75v12
q-5 -4 -18 -7q-8 -2 -33 -5.5t-33 -4.5q-55 -10 -55 -42z" />
    <glyph glyph-name="amacron.alt" horiz-adv-x="569" 
d="M449 557h-328v109h328v-109zM514 339v-151q0 -18 6 -27t12 -10.5t17 -1.5h1v-145q-24 -11 -64 -11q-51 0 -80 20q-17 11 -28 33q-48 -58 -170 -58q-85 0 -137.5 42.5t-52.5 113.5q0 78 54.5 120t174.5 55q51 6 70 12.5t19 21.5q0 26 -49 26q-79 0 -133 -59l-104 90
q84 110 234 110q110 0 170 -47.5t60 -133.5zM196 165q0 -28 44 -28q95 0 95 75v12q-5 -4 -18 -7q-8 -2 -33 -5.5t-33 -4.5q-55 -10 -55 -42z" />
    <glyph glyph-name="abreve.alt" horiz-adv-x="569" 
d="M97 699h124q14 -35 62 -35t62 35h124q-9 -61 -58 -104q-47 -43 -128 -43q-80 0 -129 43q-48 43 -57 104zM514 339v-151q0 -18 6 -27t12 -10.5t17 -1.5h1v-145q-24 -11 -64 -11q-51 0 -80 20q-17 11 -28 33q-48 -58 -170 -58q-85 0 -137.5 42.5t-52.5 113.5q0 78 54.5 120
t174.5 55q51 6 70 12.5t19 21.5q0 26 -49 26q-79 0 -133 -59l-104 90q84 110 234 110q110 0 170 -47.5t60 -133.5zM196 165q0 -28 44 -28q95 0 95 75v12q-5 -4 -18 -7q-8 -2 -33 -5.5t-33 -4.5q-55 -10 -55 -42z" />
    <glyph glyph-name="aring.alt" horiz-adv-x="569" 
d="M377 579q-37 -36 -93 -36q-54 0 -95 36q-39 37 -39 88t39 87q40 37 95 37q56 0 93 -37q39 -36 39 -87t-39 -88zM259 643q16 -14 34.5 -7.5t23 23t-8.5 32.5q-14 16 -33 9t-24.5 -24t8.5 -33zM514 339v-151q0 -18 6 -27t12 -10.5t17 -1.5h1v-145q-24 -11 -64 -11
q-51 0 -80 20q-17 11 -28 33q-48 -58 -170 -58q-85 0 -137.5 42.5t-52.5 113.5q0 78 54.5 120t174.5 55q51 6 70 12.5t19 21.5q0 26 -49 26q-79 0 -133 -59l-104 90q84 110 234 110q110 0 170 -47.5t60 -133.5zM196 165q0 -28 44 -28q95 0 95 75v12q-5 -4 -18 -7
q-8 -2 -33 -5.5t-33 -4.5q-55 -10 -55 -42z" />
    <glyph glyph-name="aringacute.alt" horiz-adv-x="569" 
d="M377 579q-37 -36 -93 -36q-54 0 -95 36q-39 37 -39 88t39 87q40 37 95 37q56 0 93 -37q39 -36 39 -87t-39 -88zM259 643q16 -14 34.5 -7.5t23 23t-8.5 32.5q-14 16 -33 9t-24.5 -24t8.5 -33zM514 339v-151q0 -18 6 -27t12 -10.5t17 -1.5h1v-145q-24 -11 -64 -11
q-51 0 -80 20q-17 11 -28 33q-48 -58 -170 -58q-85 0 -137.5 42.5t-52.5 113.5q0 78 54.5 120t174.5 55q51 6 70 12.5t19 21.5q0 26 -49 26q-79 0 -133 -59l-104 90q84 110 234 110q110 0 170 -47.5t60 -133.5zM196 165q0 -28 44 -28q95 0 95 75v12q-5 -4 -18 -7
q-8 -2 -33 -5.5t-33 -4.5q-55 -10 -55 -42zM348 821h-136l49 145h190z" />
    <glyph glyph-name="aogonek.alt" horiz-adv-x="576" 
d="M514 339v-151q0 -18 6 -27t12 -10.5t17 -1.5h1v-145q-70 -42 -70 -89q0 -30 50 -30q28 0 58 10l-23 -109q-30 -14 -57 -14q-56 0 -99 33q-42 33 -42 86q0 62 71 107q-17 5 -32 15q-11 8 -15 13q-7 8 -13 20q-48 -58 -170 -58q-85 0 -137.5 42.5t-52.5 113.5
q0 78 54.5 120t174.5 55q51 6 70 12.5t19 21.5q0 26 -49 26q-79 0 -133 -59l-104 90q84 110 234 110q110 0 170 -47.5t60 -133.5zM196 165q0 -28 44 -28q95 0 95 75v12q-5 -4 -18 -7q-8 -2 -33 -5.5t-33 -4.5q-55 -10 -55 -42z" />
    <glyph glyph-name="cacute.alt" horiz-adv-x="541" 
d="M308 520q126 0 219 -102l-118 -113q-43 45 -101 45q-42 0 -71.5 -27.5t-29.5 -68.5t29.5 -68.5t71.5 -27.5q58 0 101 45l118 -113q-93 -102 -219 -102q-120 0 -202 76t-82 190t82 190t202 76zM370 552h-136l49 145h190z" />
    <glyph glyph-name="ccircumflex.alt" horiz-adv-x="541" 
d="M308 520q126 0 219 -102l-118 -113q-43 45 -101 45q-42 0 -71.5 -27.5t-29.5 -68.5t29.5 -68.5t71.5 -27.5q58 0 101 45l118 -113q-93 -102 -219 -102q-120 0 -202 76t-82 190t82 190t202 76zM261 552h-155l202 159l203 -159h-155l-48 46z" />
    <glyph glyph-name="ccaron.alt" horiz-adv-x="541" 
d="M308 520q126 0 219 -102l-118 -113q-43 45 -101 45q-42 0 -71.5 -27.5t-29.5 -68.5t29.5 -68.5t71.5 -27.5q58 0 101 45l118 -113q-93 -102 -219 -102q-120 0 -202 76t-82 190t82 190t202 76zM504 704l-203 -159l-202 159h155l47 -46l48 46h155z" />
    <glyph glyph-name="cdotaccent.alt" horiz-adv-x="541" 
d="M308 520q126 0 219 -102l-118 -113q-43 45 -101 45q-42 0 -71.5 -27.5t-29.5 -68.5t29.5 -68.5t71.5 -27.5q58 0 101 45l118 -113q-93 -102 -219 -102q-120 0 -202 76t-82 190t82 190t202 76zM366 564q-25 -24 -60 -24t-60 24t-25 57t25 57t60 24t60 -24t25 -57t-25 -57z
" />
    <glyph glyph-name="ccedilla.alt" horiz-adv-x="541" 
d="M24 254q0 114 82 190t202 76q126 0 219 -102l-118 -113q-43 45 -101 45q-42 0 -71.5 -27.5t-29.5 -68.5t29.5 -68.5t71.5 -27.5q58 0 101 45l118 -113q-79 -87 -180 -99h-1l-15 -37q28 0 47 -21.5t19 -54.5q0 -50 -34.5 -78t-94.5 -28q-62 0 -103 30l34 72q19 -12 44 -12
q15 0 24.5 7.5t9.5 20.5q0 34 -53 34l29 69q-100 16 -165 89q-64 71 -64 172z" />
    <glyph glyph-name="egrave.alt" horiz-adv-x="599" 
d="M24 250v5q0 118 80 189q80 72 204 72q120 0 196 -75q76 -73 76 -183q0 -29 -3 -56h-368q2 -27 32.5 -43t79.5 -16q65 0 108 39l105 -100q-93 -93 -223 -93q-128 0 -208 71q-79 72 -79 190zM210 314h186q0 24 -26 42t-62 18q-39 0 -67.5 -17.5t-30.5 -42.5zM385 552h-136
l-103 145h190z" />
    <glyph glyph-name="eacute.alt" horiz-adv-x="599" 
d="M24 250v5q0 118 80 189q80 72 204 72q120 0 196 -75q76 -73 76 -183q0 -29 -3 -56h-368q2 -27 32.5 -43t79.5 -16q65 0 108 39l105 -100q-93 -93 -223 -93q-128 0 -208 71q-79 72 -79 190zM210 314h186q0 24 -26 42t-62 18q-39 0 -67.5 -17.5t-30.5 -42.5zM354 552h-136
l49 145h190z" />
    <glyph glyph-name="ecircumflex.alt" horiz-adv-x="599" 
d="M24 250v5q0 118 80 189q80 72 204 72q120 0 196 -75q76 -73 76 -183q0 -29 -3 -56h-368q2 -27 32.5 -43t79.5 -16q65 0 108 39l105 -100q-93 -93 -223 -93q-128 0 -208 71q-79 72 -79 190zM210 314h186q0 24 -26 42t-62 18q-39 0 -67.5 -17.5t-30.5 -42.5zM261 552h-155
l202 159l203 -159h-155l-48 46z" />
    <glyph glyph-name="ecaron.alt" horiz-adv-x="599" 
d="M24 250v5q0 118 80 189q80 72 204 72q120 0 196 -75q76 -73 76 -183q0 -29 -3 -56h-368q2 -27 32.5 -43t79.5 -16q65 0 108 39l105 -100q-93 -93 -223 -93q-128 0 -208 71q-79 72 -79 190zM210 314h186q0 24 -26 42t-62 18q-39 0 -67.5 -17.5t-30.5 -42.5zM509 704
l-203 -159l-202 159h155l47 -46l48 46h155z" />
    <glyph glyph-name="edieresis.alt" horiz-adv-x="599" 
d="M24 250v5q0 118 80 189q80 72 204 72q120 0 196 -75q76 -73 76 -183q0 -29 -3 -56h-368q2 -27 32.5 -43t79.5 -16q65 0 108 39l105 -100q-93 -93 -223 -93q-128 0 -208 71q-79 72 -79 190zM210 314h186q0 24 -26 42t-62 18q-39 0 -67.5 -17.5t-30.5 -42.5zM412 698
q35 0 59 -23t24 -56q2 -32 -24.5 -55.5t-58.5 -23.5t-59 23q-19 17 -23 41t5.5 45t30 35.5t46.5 13.5zM202 698q35 0 59 -23t24 -56q2 -32 -24.5 -55.5t-58.5 -23.5t-59 23q-19 17 -23 41t5.5 45t30 35.5t46.5 13.5z" />
    <glyph glyph-name="emacron.alt" horiz-adv-x="599" 
d="M24 250v5q0 118 80 189q80 72 204 72q120 0 196 -75q76 -73 76 -183q0 -29 -3 -56h-368q2 -27 32.5 -43t79.5 -16q65 0 108 39l105 -100q-93 -93 -223 -93q-128 0 -208 71q-79 72 -79 190zM210 314h186q0 24 -26 42t-62 18q-39 0 -67.5 -17.5t-30.5 -42.5zM472 557h-328
v109h328v-109z" />
    <glyph glyph-name="ebreve.alt" horiz-adv-x="599" 
d="M120 699h124q14 -35 62 -35t62 35h124q-9 -61 -58 -104q-47 -43 -128 -43q-80 0 -129 43q-48 43 -57 104zM24 250v5q0 118 80 189q80 72 204 72q120 0 196 -75q76 -73 76 -183q0 -29 -3 -56h-368q2 -27 32.5 -43t79.5 -16q65 0 108 39l105 -100q-93 -93 -223 -93
q-128 0 -208 71q-79 72 -79 190zM210 314h186q0 24 -26 42t-62 18q-39 0 -67.5 -17.5t-30.5 -42.5z" />
    <glyph glyph-name="edotaccent.alt" horiz-adv-x="599" 
d="M24 250v5q0 118 80 189q80 72 204 72q120 0 196 -75q76 -73 76 -183q0 -29 -3 -56h-368q2 -27 32.5 -43t79.5 -16q65 0 108 39l105 -100q-93 -93 -223 -93q-128 0 -208 71q-79 72 -79 190zM210 314h186q0 24 -26 42t-62 18q-39 0 -67.5 -17.5t-30.5 -42.5zM367 564
q-25 -24 -60 -24t-60 24t-25 57t25 57t60 24t60 -24t25 -57t-25 -57z" />
    <glyph glyph-name="eogonek.alt" horiz-adv-x="599" 
d="M230 -108q0 56 59 97h-1q-120 8 -192 77q-72 71 -72 184v5q0 118 80 189q80 72 204 72q120 0 196 -75q76 -73 76 -183q0 -29 -3 -56h-368q2 -27 32.5 -43t79.5 -16q65 0 108 39l105 -100q-29 -29 -50 -43q-21 -13 -47 -27l-48 -26q-46 -30 -46 -70q0 -30 50 -30
q28 0 58 10l-23 -109q-30 -14 -57 -14q-55 0 -99 33q-42 33 -42 86zM210 314h186q0 24 -26 42t-62 18q-39 0 -67.5 -17.5t-30.5 -42.5z" />
    <glyph glyph-name="gcircumflex.alt" horiz-adv-x="635" 
d="M63 -152l83 126q71 -41 137 -41q59 0 93 21q45 26 45 96v2q-31 -54 -147 -54q-107 0 -178 74t-71 180t71 182q70 76 178 76q110 0 139 -59v53h181v-420q0 -87 -21 -146t-70 -97q-74 -61 -189 -61q-154 0 -251 68zM207 252q0 -40 30.5 -67.5t74.5 -27.5q43 0 74 27.5
t31 67.5q0 39 -31 67.5t-74 28.5t-74 -28.5t-31 -67.5zM288 552h-155l202 159l203 -159h-155l-48 46z" />
    <glyph glyph-name="gbreve.alt" horiz-adv-x="635" 
d="M147 699h124q14 -35 62 -35t62 35h124q-9 -61 -58 -104q-47 -43 -128 -43q-80 0 -129 43q-48 43 -57 104zM63 -152l83 126q71 -41 137 -41q59 0 93 21q45 26 45 96v2q-31 -54 -147 -54q-107 0 -178 74t-71 180t71 182q70 76 178 76q110 0 139 -59v53h181v-420
q0 -87 -21 -146t-70 -97q-74 -61 -189 -61q-154 0 -251 68zM207 252q0 -40 30.5 -67.5t74.5 -27.5q43 0 74 27.5t31 67.5q0 39 -31 67.5t-74 28.5t-74 -28.5t-31 -67.5z" />
    <glyph glyph-name="gdotaccent.alt" horiz-adv-x="635" 
d="M63 -152l83 126q71 -41 137 -41q59 0 93 21q45 26 45 96v2q-31 -54 -147 -54q-107 0 -178 74t-71 180t71 182q70 76 178 76q110 0 139 -59v53h181v-420q0 -87 -21 -146t-70 -97q-74 -61 -189 -61q-154 0 -251 68zM207 252q0 -40 30.5 -67.5t74.5 -27.5q43 0 74 27.5
t31 67.5q0 39 -31 67.5t-74 28.5t-74 -28.5t-31 -67.5zM401 564q-25 -24 -60 -24t-60 24t-25 57t25 57t60 24t60 -24t25 -57t-25 -57z" />
    <glyph glyph-name="gcommaaccent.alt" horiz-adv-x="635" 
d="M63 -152l83 126q71 -41 137 -41q59 0 93 21q45 26 45 96v2q-31 -54 -147 -54q-107 0 -178 74t-71 180t71 182q70 76 178 76q110 0 139 -59v53h181v-420q0 -87 -21 -146t-70 -97q-74 -61 -189 -61q-154 0 -251 68zM207 252q0 -40 30.5 -67.5t74.5 -27.5q43 0 74 27.5
t31 67.5q0 39 -31 67.5t-74 28.5t-74 -28.5t-31 -67.5zM399 552h-136l49 145h190z" />
    <glyph glyph-name="jcircumflex.alt" horiz-adv-x="331" 
d="M130 552h-149l184 159l185 -159h-149l-36 52zM258 -193h-185v697h185v-697z" />
    <glyph glyph-name="kcommaaccent.alt" horiz-adv-x="582" 
d="M231 0h-185v697h185v-364l147 171h203l-198 -229l213 -275h-203l-128 162l-34 -37v-125zM170 -193l49 145h190l-103 -145h-136z" />
    <glyph glyph-name="lacute.alt" horiz-adv-x="327" 
d="M42 181v516h185v-490q0 -31 13 -44.5t42 -13.5q20 0 36 3v-156q-37 -8 -87 -8q-189 0 -189 193zM180 722h-136l49 145h190z" />
    <glyph glyph-name="lcaron.alt" horiz-adv-x="478" 
d="M42 181v516h185v-490q0 -31 13 -44.5t42 -13.5q20 0 36 3v-156q-37 -8 -87 -8q-189 0 -189 193zM380 552h-136l49 145h190z" />
    <glyph glyph-name="lcommaaccent.alt" horiz-adv-x="327" 
d="M42 181v516h185v-490q0 -31 13 -44.5t42 -13.5q20 0 36 3v-156q-37 -8 -87 -8q-189 0 -189 193zM41 -193l49 145h190l-103 -145h-136z" />
    <glyph glyph-name="ldot.alt" horiz-adv-x="454" 
d="M42 181v516h185v-490q0 -31 13 -44.5t42 -13.5q20 0 36 3v-156q-37 -8 -87 -8q-189 0 -189 193zM402 303q-25 -24 -60 -24t-60 24t-25 57t25 57t60 24t60 -24t25 -57t-25 -57z" />
    <glyph glyph-name="lslash.alt" horiz-adv-x="361" 
d="M72 181v53l-68 -36v171l68 36v292h185v-207l89 47v-171l-89 -49v-110q0 -31 13 -44.5t42 -13.5q20 0 36 3v-156q-37 -8 -87 -8q-189 0 -189 193z" />
    <glyph glyph-name="racute.alt" horiz-adv-x="376" 
d="M227 0h-185v324q0 192 207 192q73 0 117 -10v-154q-25 3 -56 3q-45 0 -64 -15.5t-19 -51.5v-288zM252 552h-136l49 145h190z" />
    <glyph glyph-name="rcommaaccent.alt" horiz-adv-x="376" 
d="M227 0h-185v324q0 192 207 192q73 0 117 -10v-154q-25 3 -56 3q-45 0 -64 -15.5t-19 -51.5v-288zM-5 -193l49 145h190l-103 -145h-136z" />
    <glyph glyph-name="rcaron.alt" horiz-adv-x="376" 
d="M399 711l-185 -159l-184 159h149l35 -52l36 52h149zM227 0h-185v324q0 192 207 192q73 0 117 -10v-154q-25 3 -56 3q-45 0 -64 -15.5t-19 -51.5v-288z" />
    <glyph glyph-name="sacute.alt" horiz-adv-x="502" 
d="M7 61l98 124q54 -45 151 -45q30 0 43 5t13 19q0 11 -22 15q-21 6 -64 12q-41 7 -74 18q-106 37 -106 135q0 85 64 130t152 45q99 0 186 -54l-72 -124q-56 32 -120 32q-45 0 -45 -21q0 -12 12 -17l57 -10q51 -9 91 -23q111 -38 111 -136q0 -86 -59.5 -133.5t-175.5 -47.5
q-140 0 -240 76zM301 552h-136l49 145h190z" />
    <glyph glyph-name="scircumflex.alt" horiz-adv-x="502" 
d="M7 61l98 124q54 -45 151 -45q30 0 43 5t13 19q0 11 -22 15q-21 6 -64 12q-41 7 -74 18q-106 37 -106 135q0 85 64 130t152 45q99 0 186 -54l-72 -124q-56 32 -120 32q-45 0 -45 -21q0 -12 12 -17l57 -10q51 -9 91 -23q111 -38 111 -136q0 -86 -59.5 -133.5t-175.5 -47.5
q-140 0 -240 76zM202 552h-155l202 159l203 -159h-155l-48 46z" />
    <glyph glyph-name="scaron.alt" horiz-adv-x="502" 
d="M7 61l98 124q54 -45 151 -45q30 0 43 5t13 19q0 11 -22 15q-21 6 -64 12q-41 7 -74 18q-106 37 -106 135q0 85 64 130t152 45q99 0 186 -54l-72 -124q-56 32 -120 32q-45 0 -45 -21q0 -12 12 -17l57 -10q51 -9 91 -23q111 -38 111 -136q0 -86 -59.5 -133.5t-175.5 -47.5
q-140 0 -240 76zM450 704l-203 -159l-202 159h155l47 -46l48 46h155z" />
    <glyph glyph-name="scommaaccent.alt" horiz-adv-x="502" 
d="M97 -193l49 145h190l-103 -145h-136zM7 61l98 124q54 -45 151 -45q30 0 43 5t13 19q0 11 -22 15q-21 6 -64 12q-41 7 -74 18q-106 37 -106 135q0 85 64 130t152 45q99 0 186 -54l-72 -124q-56 32 -120 32q-45 0 -45 -21q0 -12 12 -17l57 -10q51 -9 91 -23
q111 -38 111 -136q0 -86 -59.5 -133.5t-175.5 -47.5q-140 0 -240 76z" />
    <glyph glyph-name="scedilla.alt" horiz-adv-x="502" 
d="M7 61l98 124q54 -45 151 -45q30 0 43 5t13 19q0 11 -22 15q-21 6 -64 12q-41 7 -74 18q-106 37 -106 135q0 85 64 130t152 45q99 0 186 -54l-72 -124q-56 32 -120 32q-45 0 -45 -21q0 -12 12 -17l57 -10q51 -9 91 -23q111 -38 111 -136q0 -79 -50 -125.5t-148 -54.5
l-14 -32q28 0 47 -21.5t19 -54.5q0 -50 -34.5 -78t-94.5 -28q-63 0 -103 30l34 72q20 -12 44 -12q15 0 24.5 7.5t9.5 20.5q0 34 -53 34l27 64q-106 12 -183 73z" />
    <glyph glyph-name="germandbls.alt" 
d="M595 253q0 -113 -75 -189q-73 -76 -188 -76q-39 0 -71 5v165q15 -4 51 -4q44 0 75.5 29t31.5 70q0 39 -32 68t-75 29q-21 0 -51 -5v112q51 5 51 49q0 16 -12 27.5t-29 11.5t-28.5 -13t-11.5 -31v-501h-185v518q0 82 62 138t154 56t153 -55q63 -54 63 -132q0 -33 -16 -58
q60 -27 96.5 -85t36.5 -129z" />
    <glyph glyph-name="tcaron.alt" horiz-adv-x="505" 
d="M74 180v163h-69v161h69v193h185v-193h104v-161h-104v-137q0 -30 13 -43.5t42 -13.5q17 0 34 4v-157q-37 -8 -86 -8q-188 0 -188 192zM407 552h-136l49 145h190z" />
    <glyph glyph-name="tcommaaccent.alt" horiz-adv-x="372" 
d="M74 180v163h-69v161h69v193h185v-193h104v-161h-104v-137q0 -30 13 -43.5t42 -13.5q17 0 34 4v-157q-37 -8 -86 -8q-188 0 -188 192zM64 -193l49 145h190l-103 -145h-136z" />
    <glyph glyph-name="tbar.alt" horiz-adv-x="376" 
d="M74 180v6h-63v141h63v24h-63v153h63v193h185v-193h99v-153h-99v-24h99v-141h-98v-1q8 -36 54 -36q17 0 34 4v-157q-37 -8 -86 -8q-188 0 -188 192z" />
    <glyph glyph-name="ugrave.alt" horiz-adv-x="598" 
d="M42 206v298h185v-276q0 -36 17.5 -57t49.5 -21t53 22.5t21 58.5v273h184v-504h-184v62q-42 -74 -137 -74q-92 0 -140.5 56.5t-48.5 161.5zM382 552h-136l-103 145h190z" />
    <glyph glyph-name="uacute.alt" horiz-adv-x="598" 
d="M42 206v298h185v-276q0 -36 17.5 -57t49.5 -21t53 22.5t21 58.5v273h184v-504h-184v62q-42 -74 -137 -74q-92 0 -140.5 56.5t-48.5 161.5zM351 552h-136l49 145h190z" />
    <glyph glyph-name="ucircumflex.alt" horiz-adv-x="598" 
d="M42 206v298h185v-276q0 -36 17.5 -57t49.5 -21t53 22.5t21 58.5v273h184v-504h-184v62q-42 -74 -137 -74q-92 0 -140.5 56.5t-48.5 161.5zM252 552h-155l202 159l203 -159h-155l-48 46z" />
    <glyph glyph-name="utilde.alt" horiz-adv-x="598" 
d="M42 206v298h185v-276q0 -36 17.5 -57t49.5 -21t53 22.5t21 58.5v273h184v-504h-184v62q-42 -74 -137 -74q-92 0 -140.5 56.5t-48.5 161.5zM171 557l-98 16q9 65 48.5 104t99.5 39q41 0 89 -22q50 -22 75 -22q33 0 44 42l98 -16q-23 -150 -150 -150q-41 0 -91 22t-75 22
q-34 0 -40 -35z" />
    <glyph glyph-name="udieresis.alt" horiz-adv-x="598" 
d="M42 206v298h185v-276q0 -36 17.5 -57t49.5 -21t53 22.5t21 58.5v273h184v-504h-184v62q-42 -74 -137 -74q-92 0 -140.5 56.5t-48.5 161.5zM401 698q35 0 59 -23t24 -56q2 -32 -24.5 -55.5t-58.5 -23.5t-59 23q-19 17 -23 41t5.5 45t30 35.5t46.5 13.5zM191 698
q35 0 59 -23t24 -56q2 -32 -24.5 -55.5t-58.5 -23.5t-59 23q-19 17 -23 41t5.5 45t30 35.5t46.5 13.5z" />
    <glyph glyph-name="umacron.alt" horiz-adv-x="598" 
d="M42 206v298h185v-276q0 -36 17.5 -57t49.5 -21t53 22.5t21 58.5v273h184v-504h-184v62q-42 -74 -137 -74q-92 0 -140.5 56.5t-48.5 161.5zM461 557h-328v109h328v-109z" />
    <glyph glyph-name="ubreve.alt" horiz-adv-x="598" 
d="M113 699h124q14 -35 62 -35t62 35h124q-9 -61 -58 -104q-47 -43 -128 -43q-80 0 -129 43q-48 43 -57 104zM42 206v298h185v-276q0 -36 17.5 -57t49.5 -21t53 22.5t21 58.5v273h184v-504h-184v62q-42 -74 -137 -74q-92 0 -140.5 56.5t-48.5 161.5z" />
    <glyph glyph-name="uring.alt" horiz-adv-x="598" 
d="M390 579q-38 -36 -93 -36t-95 36q-39 37 -39 88t39 87q40 37 95 37q56 0 93 -37q39 -36 39 -87t-39 -88zM272 643q16 -14 34.5 -7.5t23 23t-8.5 32.5q-14 16 -33 9t-24.5 -24t8.5 -33zM42 206v298h185v-276q0 -36 17.5 -57t49.5 -21t53 22.5t21 58.5v273h184v-504h-184
v62q-42 -74 -137 -74q-92 0 -140.5 56.5t-48.5 161.5z" />
    <glyph glyph-name="uhungarumlaut.alt" horiz-adv-x="598" 
d="M42 206v298h185v-276q0 -36 17.5 -57t49.5 -21t53 22.5t21 58.5v273h184v-504h-184v62q-42 -74 -137 -74q-92 0 -140.5 56.5t-48.5 161.5zM443 552h-127l74 145h179zM248 552h-127l74 145h179z" />
    <glyph glyph-name="uogonek.alt" horiz-adv-x="598" 
d="M42 206v298h185v-276q0 -36 17.5 -57t49.5 -21t53 22.5t21 58.5v273h184v-504q-66 -44 -66 -85q0 -30 50 -30q28 0 58 10l-23 -109q-30 -14 -57 -14q-56 0 -99 33q-42 33 -42 86q0 63 75 109h-80v62q-42 -74 -137 -74q-92 0 -140.5 56.5t-48.5 161.5z" />
    <glyph glyph-name="ygrave.alt" 
d="M103 -214v152q17 -7 65 -7q32 0 48 10q11 8 11 24l-2 5l-220 534h186l125 -314l111 314h186l-223 -581q-25 -67 -61 -97q-58 -47 -153 -47q-42 0 -73 7zM399 552h-136l-103 145h190z" />
    <glyph glyph-name="yacute.alt" 
d="M103 -214v152q17 -7 65 -7q32 0 48 10q11 8 11 24l-2 5l-220 534h186l125 -314l111 314h186l-223 -581q-25 -67 -61 -97q-58 -47 -153 -47q-42 0 -73 7zM363 552h-136l49 145h190z" />
    <glyph glyph-name="ycircumflex.alt" 
d="M103 -214v152q17 -7 65 -7q32 0 48 10q11 8 11 24l-2 5l-220 534h186l125 -314l111 314h186l-223 -581q-25 -67 -61 -97q-58 -47 -153 -47q-42 0 -73 7zM269 552h-155l202 159l203 -159h-155l-48 46z" />
    <glyph glyph-name="ydieresis.alt" 
d="M103 -214v152q17 -7 65 -7q32 0 48 10q11 8 11 24l-2 5l-220 534h186l125 -314l111 314h186l-223 -581q-25 -67 -61 -97q-58 -47 -153 -47q-42 0 -73 7zM420 698q35 0 59 -23t24 -56q2 -32 -24.5 -55.5t-58.5 -23.5t-59 23q-19 17 -23 41t5.5 45t30 35.5t46.5 13.5z
M210 698q35 0 59 -23t24 -56q2 -32 -24.5 -55.5t-58.5 -23.5t-59 23q-19 17 -23 41t5.5 45t30 35.5t46.5 13.5z" />
    <glyph glyph-name="wgrave.alt" horiz-adv-x="873" 
d="M436 185l-139 -212l-311 531h186l144 -238l32 49l-113 189h164l37 -63l38 63h165l-113 -189l32 -49l143 238h186l-310 -531zM517 552h-136l-103 145h190z" />
    <glyph glyph-name="wacute.alt" horiz-adv-x="873" 
d="M436 185l-139 -212l-311 531h186l144 -238l32 49l-113 189h164l37 -63l38 63h165l-113 -189l32 -49l143 238h186l-310 -531zM480 552h-136l49 145h190z" />
    <glyph glyph-name="wcircumflex.alt" horiz-adv-x="873" 
d="M436 185l-139 -212l-311 531h186l144 -238l32 49l-113 189h164l37 -63l38 63h165l-113 -189l32 -49l143 238h186l-310 -531zM389 552h-155l202 159l203 -159h-155l-48 46z" />
    <glyph glyph-name="wdieresis.alt" horiz-adv-x="873" 
d="M436 185l-139 -212l-311 531h186l144 -238l32 49l-113 189h164l37 -63l38 63h165l-113 -189l32 -49l143 238h186l-310 -531zM541 699q35 0 59 -23t24 -56q2 -32 -24.5 -55.5t-58.5 -23.5t-59 23q-19 17 -23 41t5.5 45t30 35.5t46.5 13.5zM331 699q35 0 59 -23t24 -56
q2 -32 -24.5 -55.5t-58.5 -23.5t-59 23q-19 17 -23 41t5.5 45t30 35.5t46.5 13.5z" />
    <glyph glyph-name="fj.alt" horiz-adv-x="679" 
d="M633 -193h-185v536h-157v-343h-185v343h-84v161h84v1q0 62 15 100t48 65q67 41 206 41q40 0 100 -6v-145q-28 5 -73 5q-60 0 -86.5 -12t-26.5 -40v-9h344v-697z" />
    <glyph glyph-name="fl.alt" horiz-adv-x="733" 
d="M290 0h-185v343h-84v161h84v1q0 62 15 100t48 65q50 41 156 41q28 0 70 -6v-145q-17 5 -43 5q-63 0 -63 -52v-9h97v-161h-95v-343zM448 181v516h185v-490q0 -31 13 -44.5t42 -13.5q20 0 36 3v-156q-37 -8 -87 -8q-189 0 -189 193z" />
    <glyph glyph-name="ffj.alt" horiz-adv-x="1020" 
d="M290 0h-185v343h-84v161h84v1q0 206 209 206q28 0 70 -6v-145q-15 5 -38 5q-30 0 -44 -12t-14 -40v-9h159v1q0 62 15 100t48 65q67 41 206 41q40 0 100 -6v-145q-28 5 -73 5q-60 0 -86.5 -12t-26.5 -40v-9h344v-697h-185v536h-157v-343h-185v343h-157v-343z" />
    <glyph glyph-name="ffl.alt" horiz-adv-x="1084" 
d="M290 0h-185v343h-84v161h84v1q0 206 209 206q28 0 70 -6v-145q-15 5 -38 5q-30 0 -44 -12t-14 -40v-9h168v1q0 206 219 206q28 0 70 -6v-145q-17 5 -43 5q-63 0 -63 -52v-9h97v-161h-95v-343h-185v343h-166v-343zM799 181v516h185v-490q0 -31 13 -44.5t42 -13.5
q19 0 36 3v-156q-37 -8 -87 -8q-189 0 -189 193z" />
    <glyph glyph-name="zero.onum" horiz-adv-x="620" 
d="M96 68q-59 62 -59 181q0 121 59 185q83 86 214 86q130 0 213 -86q60 -63 60 -185q0 -119 -60 -181q-81 -84 -213 -84q-133 0 -214 84zM232 180q24 -33 78 -33t78 33q16 20 16 69t-16 69q-25 34 -78 34t-78 -34q-16 -20 -16 -69t16 -69z" />
    <glyph glyph-name="one.onum" horiz-adv-x="437" 
d="M376 0h-188v262l-106 -53l-79 152l373 180v-541z" />
    <glyph glyph-name="two.onum" horiz-adv-x="563" 
d="M538 0h-538l316 264q30 26 30 48q0 21 -20.5 35t-48.5 14q-34 0 -57.5 -22.5t-23.5 -54.5h-167q0 98 74 167q73 70 179 70q96 0 166 -53q70 -52 70 -127q0 -73 -74 -135l-40 -34h134v-172z" />
    <glyph glyph-name="three.onum" horiz-adv-x="567" 
d="M-5 -1l146 99q41 -60 112 -60q43 0 71 19t28 49q0 66 -123 66q-69 0 -113 -10l140 170h-201v172h494l-163 -208h1q66 -10 110 -63q43 -52 43 -121q0 -104 -76 -174t-206 -70q-85 0 -154 35t-109 96z" />
    <glyph glyph-name="four.onum" horiz-adv-x="645" 
d="M399 0h-388l224 504h193l-150 -343h121v127h185v-418h-185v130z" />
    <glyph glyph-name="five.onum" horiz-adv-x="562" 
d="M4 8l151 94q14 -30 42.5 -47t64.5 -17q37 0 61.5 17.5t24.5 46.5q0 61 -131 61q-95 0 -169 -15l64 356h373v-172h-237l-7 -39q27 3 64 3q95 0 163 -59t68 -140q0 -94 -80 -162q-79 -67 -194 -67q-84 0 -153 38t-105 102z" />
    <glyph glyph-name="six.onum" horiz-adv-x="573" 
d="M20 240q0 38 15 79q18 47 32 69q17 28 54 87l144 222h205l-146 -218h2q70 0 144 -58q37 -28 60 -75.5t23 -103.5q0 -103 -79 -176q-77 -73 -190 -73q-109 0 -187 72q-77 74 -77 175zM204 242q0 -33 23.5 -56t56.5 -23t57 23.5t24 55.5t-24 56t-57 24t-56.5 -24t-23.5 -56
z" />
    <glyph glyph-name="seven.onum" horiz-adv-x="557" 
d="M254 -193h-191l240 525h-281v172h546z" />
    <glyph glyph-name="eight.onum" horiz-adv-x="591" 
d="M27 237q0 50 24 93t66 70q-43 37 -43 100q0 86 65 146q64 61 156 61t156 -61q65 -62 65 -146q0 -63 -43 -100q42 -27 66.5 -70t24.5 -93q0 -101 -79 -173q-79 -71 -190 -71q-110 0 -190 71q-78 72 -78 173zM349 500q0 20 -16 33.5t-38 13.5t-38 -13.5t-16 -33.5
q0 -22 15.5 -37t38.5 -15t38.5 15t15.5 37zM215 237q0 -31 24 -52.5t56 -21.5q51 -2 73.5 46.5t-16.5 79.5q-26 23 -57 23t-56.5 -22.5t-23.5 -52.5z" />
    <glyph glyph-name="nine.onum" horiz-adv-x="577" 
d="M310 0h-205l146 218h-2q-69 0 -145 57q-37 29 -59.5 77t-22.5 103q0 103 78 176q79 73 191 73q110 0 186 -73q78 -72 78 -174q0 -39 -16 -80q-16 -43 -31 -69l-54 -86zM371 455q0 33 -23.5 56t-56.5 23t-57 -23.5t-24 -55.5t24 -56t57 -24t56.5 24t23.5 56z" />
    <glyph glyph-name="zero.tnum" horiz-adv-x="579" 
d="M41 204q-3 32 -3 145t3 144q11 92 79 153q70 61 164 61q97 0 170 -62q73 -61 83 -152q3 -31 3 -144t-3 -145q-11 -92 -83 -153q-71 -61 -170 -61q-94 0 -164 61q-68 61 -79 153zM220 225q2 -31 21.5 -51.5t47.5 -20.5q26 0 46 20.5t23 51.5q3 23 3 124q0 95 -3 118
q-3 31 -23 51.5t-46 20.5q-28 0 -47.5 -20.5t-21.5 -51.5q-3 -23 -3 -118q0 -101 3 -124z" />
    <glyph glyph-name="one.tnum" horiz-adv-x="579" 
d="M439 0h-188v455l-106 -53l-79 152l373 180v-734z" />
    <glyph glyph-name="two.tnum" horiz-adv-x="579" 
d="M535 0h-539l331 399q34 43 34 81q0 28 -22 47.5t-54 19.5q-35 0 -60 -26t-25 -64h-167q0 103 74 177q73 73 178 73q102 0 172 -67q71 -66 71 -160q0 -87 -52 -146l-138 -162h197v-172z" />
    <glyph glyph-name="three.tnum" horiz-adv-x="579" 
d="M8 124l146 99q40 -60 112 -60q42 0 70.5 21.5t28.5 56.5q0 76 -123 76q-74 0 -123 -10l150 218h-199v172h492l-173 -246h1q71 -10 117 -70q46 -58 46 -134q0 -108 -76 -181t-206 -73q-85 0 -154 35t-109 96z" />
    <glyph glyph-name="four.tnum" horiz-adv-x="579" 
d="M367 118h-365l214 579h193l-150 -413h108v122h185v-406h-185v118z" />
    <glyph glyph-name="five.tnum" horiz-adv-x="579" 
d="M4 133l151 94q15 -30 45.5 -47t69.5 -17q40 0 67 21t27 53q0 78 -129 78q-101 0 -177 -15l64 397h379v-172h-243l-9 -61q15 4 49 4q105 0 179 -68q75 -68 75 -163q0 -101 -83 -173q-83 -71 -199 -71q-87 0 -158.5 38t-107.5 102z" />
    <glyph glyph-name="six.tnum" horiz-adv-x="579" 
d="M17 252q0 55 23 106q25 53 78 134l134 205h205l-138 -202q5 1 13 1q70 0 147 -59q37 -29 60 -78t23 -105q0 -105 -81 -180q-80 -74 -194 -74q-111 0 -191 74q-79 73 -79 178zM226 314q-25 -25 -25 -60t25 -60q26 -24 61 -24t61 25t26 59t-26 59q-26 26 -60.5 26
t-61.5 -25z" />
    <glyph glyph-name="seven.tnum" horiz-adv-x="579" 
d="M274 0h-191l262 525h-303v172h568z" />
    <glyph glyph-name="eight.tnum" horiz-adv-x="579" 
d="M27 237q0 50 24 93t66 70q-43 37 -43 100q0 86 63 146q62 61 152 61t152 -61q63 -62 63 -146q0 -63 -43 -100q42 -27 66.5 -70t24.5 -93q0 -101 -77 -173q-77 -71 -186 -71t-186 71q-76 72 -76 173zM337 500q0 20 -14 33.5t-34 13.5t-34 -13.5t-14 -33.5q0 -22 14 -37
t34 -15t34 15t14 37zM215 237q0 -31 22 -52.5t52 -21.5q48 -2 68.5 46.5t-16.5 79.5q-31 38 -79.5 16.5t-46.5 -68.5z" />
    <glyph glyph-name="nine.tnum" horiz-adv-x="579" 
d="M322 0h-205l141 209q-5 -1 -13 -1q-67 0 -142 59q-36 29 -58.5 78t-22.5 105q0 106 79 179q79 75 191 75q110 0 187 -74q78 -74 78 -178q0 -38 -15 -82q-15 -41 -32 -71q-16 -29 -54 -87zM292 365q34 0 57.5 25t23.5 60t-24 59.5t-57 24.5q-34 0 -58 -24.5t-24 -59.5
q0 -34 24.5 -59.5t57.5 -25.5z" />
    <glyph glyph-name="four.alt" horiz-adv-x="587" 
d="M6 84v132l486 512v-494h83v-150h-83v-84h-174v84h-312zM318 337l-108 -105h108v105z" />
    <glyph glyph-name="four.onum.alt" horiz-adv-x="580" 
d="M10 0v167l474 368v-385h83v-150h-83v-130h-174v130h-300zM310 241l-121 -93h121v93z" />
    <glyph glyph-name="four.tnum.alt" horiz-adv-x="579" 
d="M10 84v132l474 512v-494h83v-150h-83v-84h-174v84h-300zM310 337l-96 -105h96v105z" />
    <glyph glyph-name="foursuperior.alt" horiz-adv-x="364" 
d="M7 364v76l295 275v-255h45v-96h-45v-36h-111v36h-184zM191 505l-49 -47h49v47z" />
    <glyph glyph-name="four.inferior.alt" horiz-adv-x="364" 
d="M7 36v76l295 275v-255h45v-96h-45v-36h-111v36h-184zM191 177l-49 -47h49v47z" />
    <glyph glyph-name="onequarter.alt" horiz-adv-x="708" 
d="M351 36v76l295 275v-255h45v-96h-45v-36h-111v36h-184zM535 177l-49 -47h49v47zM202 0h-163l486 697h163zM212 328h-133v252h-59v117h192v-369z" />
    <glyph glyph-name="threequarters.alt" horiz-adv-x="731" 
d="M226 0h-163l486 697h163zM144 323q-90 0 -143 65l95 71q24 -21 46 -21q16 0 27.5 7.5t11.5 19.5q0 15 -11 21t-37 6q-29 0 -66 -4l65 92h-99v117h284l-90 -129h1q38 -8 61.5 -36.5t23.5 -65.5q0 -62 -46 -102.5t-123 -40.5zM374 36v76l295 275v-255h45v-96h-45v-36h-111
v36h-184zM558 177l-49 -47h49v47z" />
    <glyph glyph-name="published" horiz-adv-x="807" 
d="M30 348q0 148 106 258q106 112 267 112q95 0 181 -47q87 -47 139 -132q54 -85 54 -191q0 -148 -108 -259q-107 -111 -266 -111q-95 0 -180 45q-83 46 -139 132q-54 85 -54 193zM403 108q102 0 172 70q72 70 72 170q0 99 -72 169q-71 71 -172 71q-99 0 -172 -71
q-71 -71 -71 -169q0 -99 71 -170q71 -70 172 -70zM390 165h-114v355h173q39 0 79 -35q40 -34 40 -96q0 -57 -39 -94q-38 -38 -80 -38h-59v-92zM390 418v-58h40q26 0 26 29t-26 29h-40z" />
    <glyph glyph-name="colon.case" horiz-adv-x="246" 
d="M191 411q-28 -28 -68 -28t-69 28q-28 28 -28 68t28 68q29 28 69 28t68 -28q29 -28 29 -68t-29 -68zM191 149q-28 -28 -68 -28t-69 28q-28 28 -28 68t28 68q29 28 69 28t68 -28q29 -28 29 -68t-29 -68z" />
    <glyph glyph-name="semicolon.case" horiz-adv-x="286" 
d="M219 411q-28 -28 -68 -28t-69 28q-28 28 -28 68t28 68q29 28 69 28t68 -28q29 -28 29 -68t-29 -68zM124 0h-132l87 239h171z" />
    <glyph glyph-name="bullet.case" horiz-adv-x="406" 
d="M203 212q-56 0 -96 40q-41 41 -41 96q0 57 40 96q40 40 97 40q56 0 96 -40q41 -39 41 -96t-40 -97q-39 -39 -97 -39z" />
    <glyph glyph-name="periodcentered.case" horiz-adv-x="226" 
d="M181 280q-28 -28 -68 -28t-69 28q-28 28 -28 68t28 68q29 28 69 28t68 -28q29 -28 29 -68t-29 -68z" />
    <glyph glyph-name="guilsinglleft.case" horiz-adv-x="372" 
d="M345 156h-190l-126 192l126 192h190l-130 -192z" />
    <glyph glyph-name="guilsinglright.case" horiz-adv-x="372" 
d="M217 156h-190l130 192l-130 192h190l126 -192z" />
    <glyph glyph-name="guillemotleft.case" horiz-adv-x="643" 
d="M616 156h-190l-126 192l126 192h190l-130 -192zM345 156h-190l-126 192l126 192h190l-130 -192z" />
    <glyph glyph-name="guillemotright.case" horiz-adv-x="643" 
d="M488 156h-190l130 192l-130 192h190l126 -192zM217 156h-190l130 192l-130 192h190l126 -192z" />
    <glyph glyph-name="slash.case" horiz-adv-x="480" 
d="M158 -81h-164l334 859h164z" />
    <glyph glyph-name="backslash.case" horiz-adv-x="480" 
d="M489 -81h-164l-334 859h164z" />
    <glyph glyph-name="hyphen.case" horiz-adv-x="460" 
d="M423 270h-386v156h386v-156z" />
    <glyph glyph-name="endash.case" horiz-adv-x="587" 
d="M550 270h-513v156h513v-156z" />
    <glyph glyph-name="emdash.case" horiz-adv-x="738" 
d="M701 270h-664v156h664v-156z" />
    <glyph glyph-name="parenleft.case" horiz-adv-x="343" 
d="M345 -46l-81 -88q-231 190 -231 482q0 276 231 479l81 -89q-77 -89 -114 -179q-38 -91 -38 -211q0 -127 37 -214q38 -90 115 -180z" />
    <glyph glyph-name="parenright.case" horiz-adv-x="342" 
d="M78 -134l-81 88q77 90 115 180q37 87 37 214q0 120 -38 211q-37 90 -114 179l81 89q231 -203 231 -479q0 -292 -231 -482z" />
    <glyph glyph-name="bracketleft.case" horiz-adv-x="408" 
d="M402 -125h-346v947h346v-156h-172v-635h172v-156z" />
    <glyph glyph-name="bracketright.case" horiz-adv-x="408" 
d="M6 -125v156h172v635h-172v156h346v-947h-346z" />
    <glyph glyph-name="braceleft.case" horiz-adv-x="390" 
d="M105 42v186q0 51 -40 69q-23 9 -39 9l-6 1v82q24 2 45 10q40 18 40 69v186q0 56 34 92t86 36h130v-149h-34q-49 0 -49 -44v-115q0 -68 -48 -100q-27 -18 -59 -26q32 -8 59 -26q48 -32 48 -100v-115q0 -44 49 -44h34v-149h-130q-52 0 -86 36t-34 92z" />
    <glyph glyph-name="braceright.case" horiz-adv-x="390" 
d="M35 -86v149h34q49 0 49 44v115q0 68 48 100q27 18 59 26q-32 8 -59 26q-48 32 -48 100v115q0 44 -49 44h-34v149h130q52 0 86 -36t34 -92v-186q0 -51 40 -69q23 -9 39 -9l6 -1v-82q-24 -2 -45 -10q-40 -18 -40 -69v-186q0 -56 -34 -92t-86 -36h-130z" />
    <glyph glyph-name="exclamdown.case" horiz-adv-x="312" 
d="M224 543q-28 -28 -68 -28t-69 28q-28 28 -28 68t28 68q29 28 69 28t68 -28q29 -28 29 -68t-29 -68zM264 0h-217l28 490h161z" />
    <glyph glyph-name="questiondown.case" horiz-adv-x="457" 
d="M291 556q-27 -26 -66 -26t-67 26q-27 27 -27 65t27 64q28 27 67 27t66 -27q28 -26 28 -64t-28 -65zM24 153q0 59 26.5 96.5t94.5 66.5q3 1 11.5 4.5t15 6.5t8.5 4q23 9 23 25q0 21 -37 21q-44 0 -76 -20v133q58 26 117 26q75 0 124 -44q48 -44 48 -113q0 -99 -114 -151
q-5 -2 -15 -6.5t-15 -7t-11.5 -6.5t-9 -7.5t-2.5 -7.5q0 -15 37 -15q84 0 161 74v-189q-73 -55 -172 -55q-97 0 -155 45q-59 47 -59 120z" />
    <glyph glyph-name="at.case" horiz-adv-x="804" 
d="M30 351q0 107 55 192t139.5 129t178.5 45q157 0 264 -104t107 -246q0 -108 -52 -167.5t-145 -59.5q-50 0 -85 23t-45 61q-16 -31 -79 -31q-62 0 -103 47q-40 46 -40 113t40 113q41 47 103 47q56 0 69 -31v27h131v-220q0 -14 7 -24t17 -10q47 0 47 112q0 91 -70 155
q-70 65 -166 65q-97 0 -166 -69t-69 -167q0 -97 69 -166t167 -69q51 0 93 19l50 -115q-69 -34 -143 -34q-110 0 -198 54q-85 53 -130.5 135t-45.5 176zM374 378q-11 -10 -11 -25t11 -26q11 -10 27 -10t27 10q24 20 5 44q-17 23 -41 18q-11 -4 -18 -11z" />
    <glyph glyph-name="Agrave.alt1" horiz-adv-x="770" 
d="M467 600h-165l-78 97h207zM197 0h-198l302 583h168l302 -583h-198l-45 91h-286zM385 399l-79 -161h158z" />
    <glyph glyph-name="Aacute.alt1" horiz-adv-x="770" 
d="M470 600h-165l36 97h207zM197 0h-198l302 583h168l302 -583h-198l-45 91h-286zM385 399l-79 -161h158z" />
    <glyph glyph-name="Acircumflex.alt1" horiz-adv-x="770" 
d="M341 600h-167l211 112l212 -112h-167l-45 39zM197 0h-198l302 583h168l302 -583h-198l-45 91h-286zM385 399l-79 -161h158z" />
    <glyph glyph-name="Atilde.alt1" horiz-adv-x="770" 
d="M282 592l-96 13q16 99 120 99q36 0 87 -12q53 -11 62 -11q26 0 30 25l98 -16q-9 -92 -105 -92q-38 0 -93 9q-53 10 -69 10q-27 0 -34 -25zM197 0h-198l302 583h168l302 -583h-198l-45 91h-286zM385 399l-79 -161h158z" />
    <glyph glyph-name="Adieresis.alt1" horiz-adv-x="770" 
d="M197 0h-198l386 744l386 -744h-198l-45 91h-286zM569 733q35 0 59 -23t24 -56q2 -32 -24.5 -55.5t-58.5 -23.5t-59 23q-19 17 -23 41t5.5 45t30 35.5t46.5 13.5zM202 733q35 0 59 -23t24 -56q2 -32 -24.5 -55.5t-58.5 -23.5t-59 23q-19 17 -23 41t5.5 45t30 35.5
t46.5 13.5zM385 399l-79 -161h158z" />
    <glyph glyph-name="Amacron.alt1" horiz-adv-x="770" 
d="M558 600h-346v97h346v-97zM197 0h-198l302 583h168l302 -583h-198l-45 91h-286zM385 399l-79 -161h158z" />
    <glyph glyph-name="Abreve.alt1" horiz-adv-x="770" 
d="M214 697h124q11 -20 47 -20t47 20h124q-9 -41 -54.5 -69t-116.5 -28t-116.5 28t-54.5 69zM197 0h-198l302 583h168l302 -583h-198l-45 91h-286zM385 399l-79 -161h158z" />
    <glyph glyph-name="Aring.alt1" horiz-adv-x="770" 
d="M197 0h-198l266 514q-22 31 -22 69q0 52 41 90q41 37 101 37q59 0 99 -37q41 -38 41 -90q0 -39 -22 -68l268 -515h-198l-45 91h-286zM354 553q13 -11 31 -11t30 11t12 28t-12 28t-30 11t-31 -12q-12 -11 -12 -27t12 -28zM385 399l-79 -161h158z" />
    <glyph glyph-name="Aringacute.alt1" horiz-adv-x="770" 
d="M197 0h-198l250 482q-8 22 -8 41q0 53 42 91q43 38 102 38q15 0 19 -1l21 46h185l-97 -120q14 -26 14 -54q0 -18 -8 -39l252 -484h-198l-45 91h-286zM385 484q16 0 27.5 11.5t11.5 27.5q0 26 -24 36t-44 -9q-18 -17 -8 -41.5t37 -24.5zM385 399l-79 -161h158z" />
    <glyph glyph-name="Aogonek.alt1" horiz-adv-x="770" 
d="M197 0h-198l386 744l304 -585q-41 -20 -41 -49q0 -27 45 -27q28 0 58 10l-20 -99q-33 -14 -80 -14t-81.5 23.5t-34.5 60.5q0 15 8 26l1 1h-302zM385 399l-79 -161h158z" />
    <glyph glyph-name="AEacute.alt1" horiz-adv-x="960" 
d="M605 600h-165l36 97h207zM167 0h-213l481 583h477v-169h-244v-44h225v-150h-225v-54h252v-166h-439v91h-237zM481 384l-121 -146h121v146z" />
    <glyph glyph-name="Cacute.alt1" horiz-adv-x="634" 
d="M442 600h-165l36 97h207zM375 587q131 0 219 -66v-178q-100 74 -219 74q-64 0 -110 -37q-45 -38 -45 -92t45 -92q45 -36 110 -36q119 0 219 74v-178q-93 -66 -219 -66q-145 0 -245 85t-100 213t100 213q101 86 245 86z" />
    <glyph glyph-name="Ccircumflex.alt1" horiz-adv-x="634" 
d="M328 600h-167l211 112l212 -112h-167l-45 39zM375 587q131 0 219 -66v-178q-100 74 -219 74q-64 0 -110 -37q-45 -38 -45 -92t45 -92q45 -36 110 -36q119 0 219 74v-178q-93 -66 -219 -66q-145 0 -245 85t-100 213t100 213q101 86 245 86z" />
    <glyph glyph-name="Ccaron.alt1" horiz-adv-x="634" 
d="M579 697l-212 -106l-211 106h167l44 -39l45 39h167zM375 587q131 0 219 -66v-178q-100 74 -219 74q-64 0 -110 -37q-45 -38 -45 -92t45 -92q45 -36 110 -36q119 0 219 74v-178q-93 -66 -219 -66q-145 0 -245 85t-100 213t100 213q101 86 245 86z" />
    <glyph glyph-name="Cdotaccent.alt1" horiz-adv-x="634" 
d="M366 595q-30 0 -51 19.5t-21 47.5t21 47.5t51 19.5q31 0 52 -19.5t21 -47.5t-21 -47.5t-52 -19.5zM375 587q131 0 219 -66v-178q-100 74 -219 74q-64 0 -110 -37q-45 -38 -45 -92t45 -92q45 -36 110 -36q119 0 219 74v-178q-93 -66 -219 -66q-145 0 -245 85t-100 213
t100 213q101 86 245 86z" />
    <glyph glyph-name="Ccedilla.alt1" horiz-adv-x="634" 
d="M30 408q0 128 100 213q101 86 245 86q131 0 219 -66v-178q-100 74 -219 74q-64 0 -110 -37q-45 -38 -45 -92t45 -92q45 -36 110 -36q119 0 219 74v-178q-84 -60 -196 -66h-1l-7 -15q30 0 50 -14t20 -37q0 -35 -35 -53q-34 -19 -94 -19t-99 30l30 57q20 -12 44 -12
q34 0 34 15q0 19 -53 19l17 35q-119 21 -197 101q-77 80 -77 191z" />
    <glyph glyph-name="Dcaron.alt1" horiz-adv-x="719" 
d="M563 697l-212 -112l-211 112h167l44 -39l45 39h167zM341 0h-284v583h283q169 0 259 -81t90 -212q0 -135 -90 -212.5t-258 -77.5zM247 403v-231h82q100 0 134 31q35 32 35 87q0 54 -35 83q-35 30 -135 30h-81z" />
    <glyph glyph-name="Egrave.alt1" 
d="M420 600h-165l-78 97h207zM579 0h-522v583h514v-169h-324v-44h302v-150h-302v-54h332v-166z" />
    <glyph glyph-name="Eacute.alt1" 
d="M393 600h-165l36 97h207zM579 0h-522v583h514v-169h-324v-44h302v-150h-302v-54h332v-166z" />
    <glyph glyph-name="Ecircumflex.alt1" 
d="M273 600h-167l211 112l212 -112h-167l-45 39zM579 0h-522v583h514v-169h-324v-44h302v-150h-302v-54h332v-166z" />
    <glyph glyph-name="Ecaron.alt1" 
d="M538 697l-212 -112l-211 112h167l44 -39l45 39h167zM579 0h-522v583h514v-169h-324v-44h302v-150h-302v-54h332v-166z" />
    <glyph glyph-name="Edieresis.alt1" 
d="M407 595q-30 0 -51 19.5t-21 47.5t21 47.5t51 19.5q31 0 52 -19.5t21 -47.5t-21 -47.5t-52 -19.5zM226 595q-30 0 -51 19.5t-21 47.5t21 47.5t51 19.5q31 0 52 -19.5t21 -47.5t-21 -47.5t-52 -19.5zM579 0h-522v583h514v-169h-324v-44h302v-150h-302v-54h332v-166z" />
    <glyph glyph-name="Emacron.alt1" 
d="M493 600h-346v97h346v-97zM579 0h-522v583h514v-169h-324v-44h302v-150h-302v-54h332v-166z" />
    <glyph glyph-name="Ebreve.alt1" 
d="M149 697h124q11 -20 47 -20t47 20h124q-9 -41 -54.5 -69t-116.5 -28t-116.5 28t-54.5 69zM579 0h-522v583h514v-169h-324v-44h302v-150h-302v-54h332v-166z" />
    <glyph glyph-name="Edotaccent.alt1" 
d="M324 595q-30 0 -51 19.5t-21 47.5t21 47.5t51 19.5q31 0 52 -19.5t21 -47.5t-21 -47.5t-52 -19.5zM579 0h-522v583h514v-169h-324v-44h302v-150h-302v-54h332v-166z" />
    <glyph glyph-name="Eogonek.alt1" 
d="M445 114h-388v583h514v-169h-324v-44h302v-150h-302v-54h332v-107q-56 -33 -56 -65q0 -25 35 -25q28 0 58 10l-20 -99q-33 -14 -80 -14q-44 0 -75 20.5t-31 53.5q0 31 35 60z" />
    <glyph glyph-name="Gcircumflex.alt1" horiz-adv-x="709" 
d="M330 600h-167l211 112l212 -112h-167l-45 39zM370 589q115 0 199 -41v-170q-84 41 -199 41q-64 0 -107 -37t-43 -93t43 -93q44 -36 107 -36q98 0 150 52v1h-165v153h324v-221q-50 -71 -132 -113t-177 -42q-143 0 -241 85q-99 85 -99 214t99 214q100 86 241 86z" />
    <glyph glyph-name="Gbreve.alt1" horiz-adv-x="709" 
d="M201 697h124q11 -20 47 -20t47 20h124q-9 -41 -54.5 -69t-116.5 -28t-116.5 28t-54.5 69zM370 589q115 0 199 -41v-170q-84 41 -199 41q-64 0 -107 -37t-43 -93t43 -93q44 -36 107 -36q98 0 150 52v1h-165v153h324v-221q-50 -71 -132 -113t-177 -42q-143 0 -241 85
q-99 85 -99 214t99 214q100 86 241 86z" />
    <glyph glyph-name="Gdotaccent.alt1" horiz-adv-x="709" 
d="M367 595q-30 0 -51 19.5t-21 47.5t21 47.5t51 19.5q31 0 52 -19.5t21 -47.5t-21 -47.5t-52 -19.5zM370 589q115 0 199 -41v-170q-84 41 -199 41q-64 0 -107 -37t-43 -93t43 -93q44 -36 107 -36q98 0 150 52v1h-165v153h324v-221q-50 -71 -132 -113t-177 -42
q-143 0 -241 85q-99 85 -99 214t99 214q100 86 241 86z" />
    <glyph glyph-name="Gcommaaccent.alt1" horiz-adv-x="709" 
d="M370 108q-143 0 -241 85q-99 85 -99 214t99 214q100 86 241 86q115 0 199 -41v-170q-84 41 -199 41q-64 0 -107 -37t-43 -93t43 -93q44 -36 107 -36q98 0 150 52v1h-165v153h324v-221q-50 -71 -132 -113t-177 -42zM402 0h-165l36 97h207z" />
    <glyph glyph-name="Hcircumflex.alt1" horiz-adv-x="832" 
d="M377 600h-125l164 112l165 -112h-125l-40 33zM247 0h-190v697h190v-242h338v242h190v-697h-190v281h-338v-281z" />
    <glyph glyph-name="Igrave.alt1" horiz-adv-x="312" 
d="M249 600h-165l-78 97h207zM251 0h-190v583h190v-583z" />
    <glyph glyph-name="Iacute.alt1" horiz-adv-x="312" 
d="M227 600h-165l36 97h207zM251 0h-190v583h190v-583z" />
    <glyph glyph-name="Icircumflex.alt1" horiz-adv-x="312" 
d="M117 600h-125l164 112l165 -112h-125l-40 33zM251 0h-190v583h190v-583z" />
    <glyph glyph-name="Itilde.alt1" horiz-adv-x="352" 
d="M97 592l-96 13q15 99 110 99q29 0 69 -12q42 -11 50 -11q26 0 30 25l98 -16q-9 -92 -105 -92q-28 0 -70 9q-39 10 -52 10q-27 0 -34 -25zM271 0h-190v583h190v-583z" />
    <glyph glyph-name="Idieresis.alt1" horiz-adv-x="312" 
d="M240 595q-30 0 -51 19.5t-21 47.5t21 47.5t51 19.5q31 0 52 -19.5t21 -47.5t-21 -47.5t-52 -19.5zM71 595q-30 0 -51 19.5t-21 47.5t21 47.5t51 19.5q31 0 52 -19.5t21 -47.5t-21 -47.5t-52 -19.5zM251 0h-190v583h190v-583z" />
    <glyph glyph-name="Imacron.alt1" horiz-adv-x="312" 
d="M319 600h-326v97h326v-97zM251 0h-190v583h190v-583z" />
    <glyph glyph-name="Ibreve.alt1" horiz-adv-x="312" 
d="M0 697h109q11 -20 47 -20t47 20h109q-9 -41 -50 -69t-106 -28t-106 28t-50 69zM251 0h-190v583h190v-583z" />
    <glyph glyph-name="Idotaccent.alt1" horiz-adv-x="312" 
d="M156 589q-38 0 -64 20.5t-26 49.5t26 49.5t64 20.5q39 0 65 -20.5t26 -49.5t-26 -49.5t-65 -20.5zM251 0h-190v583h190v-583z" />
    <glyph glyph-name="Iogonek.alt1" horiz-adv-x="312" 
d="M82 54q0 31 35 60h-56v583h190v-524q-56 -33 -56 -65q0 -25 35 -25q28 0 58 10l-20 -99q-33 -14 -80 -14q-44 0 -75 20.5t-31 53.5z" />
    <glyph glyph-name="Jcircumflex.alt1" horiz-adv-x="391" 
d="M211 600h-125l164 112l165 -112h-125l-40 33zM6 -3v168q22 -5 64 -5q50 0 69 21.5t19 66.5v335h190v-322q0 -96 -22 -153q-19 -57 -73.5 -86t-155.5 -32q-49 0 -91 7z" />
    <glyph glyph-name="Kcommaaccent.alt1" horiz-adv-x="747" 
d="M247 0h-190v697h190v-311l259 311h225l-277 -332l299 -365h-224l-282 345v-345zM401 0h-147l36 97h159z" />
    <glyph glyph-name="Lacute.alt1" horiz-adv-x="532" 
d="M222 600h-165l36 97h207zM512 0h-455v583h190v-411h265v-172z" />
    <glyph glyph-name="Lcommaaccent.alt1" horiz-adv-x="532" 
d="M512 114h-455v583h190v-411h265v-172zM316 0h-165l36 97h207z" />
    <glyph glyph-name="Nacute.alt1" horiz-adv-x="778" 
d="M239 0h-182v725l482 -386v358h182v-725l-482 389v-361zM417 600h-146l15 97h248z" />
    <glyph glyph-name="Ncaron.alt1" horiz-adv-x="778" 
d="M239 0h-182v725l482 -386v358h182v-725l-482 389v-361zM538 697l-165 -112l-164 112h125l39 -33l40 33h125z" />
    <glyph glyph-name="Ntilde.alt1" horiz-adv-x="798" 
d="M239 0h-182v714l502 -380v363h182v-725l-502 389v-361zM309 590l-96 15q15 99 110 99q25 0 56 -12q35 -11 43 -11q26 0 30 25l98 -14q-9 -94 -105 -94q-23 0 -57 9q-33 10 -45 10q-25 0 -34 -27z" />
    <glyph glyph-name="Ncommaaccent.alt1" horiz-adv-x="778" 
d="M239 0h-182v725l482 -386v358h182v-725l-482 389v-361zM452 0h-165l36 97h207z" />
    <glyph glyph-name="Ograve.alt1" horiz-adv-x="735" 
d="M465 600h-165l-78 97h207zM367 587q143 0 243 -88q101 -87 101 -211t-101 -211q-100 -87 -243 -87t-243 87t-100 211t100 211q100 88 243 88zM218 288q0 -53 44 -91q43 -37 105 -37q61 0 105 38q45 38 45 90t-45 90q-44 39 -105 39t-105 -38t-44 -91z" />
    <glyph glyph-name="Oacute.alt1" horiz-adv-x="735" 
d="M448 600h-165l36 97h207zM367 587q143 0 243 -88q101 -87 101 -211t-101 -211q-100 -87 -243 -87t-243 87t-100 211t100 211q100 88 243 88zM218 288q0 -53 44 -91q43 -37 105 -37q61 0 105 38q45 38 45 90t-45 90q-44 39 -105 39t-105 -38t-44 -91z" />
    <glyph glyph-name="Ocircumflex.alt1" horiz-adv-x="735" 
d="M323 600h-167l211 112l212 -112h-167l-45 39zM367 587q143 0 243 -88q101 -87 101 -211t-101 -211q-100 -87 -243 -87t-243 87t-100 211t100 211q100 88 243 88zM218 288q0 -53 44 -91q43 -37 105 -37q61 0 105 38q45 38 45 90t-45 90q-44 39 -105 39t-105 -38t-44 -91z
" />
    <glyph glyph-name="Otilde.alt1" horiz-adv-x="735" 
d="M265 592l-96 13q17 99 120 99q35 0 86 -12q53 -11 63 -11q26 0 30 25l98 -16q-9 -92 -105 -92q-37 0 -93 9q-53 10 -69 10q-27 0 -34 -25zM367 587q143 0 243 -88q101 -87 101 -211t-101 -211q-100 -87 -243 -87t-243 87t-100 211t100 211q100 88 243 88zM218 288
q0 -53 44 -91q43 -37 105 -37q61 0 105 38q45 38 45 90t-45 90q-44 39 -105 39t-105 -38t-44 -91z" />
    <glyph glyph-name="Odieresis.alt1" horiz-adv-x="817" 
d="M728 729q31 0 52 -19.5t21 -47.5t-21 -47.5t-52 -19.5q-30 0 -51 19.5t-21 47.5t21 47.5t51 19.5zM88 595q-30 0 -51 19.5t-21 47.5t21 47.5t51 19.5q31 0 52 -19.5t21 -47.5t-21 -47.5t-52 -19.5zM30 348q0 146 110 250q112 104 268 104t268 -104q111 -103 111 -250
q0 -149 -111 -254q-112 -104 -268 -104q-157 0 -268 105q-110 105 -110 253zM224 348q0 -78 54 -134q54 -54 130 -54q74 0 130 56q55 55 55 132q0 74 -55 129t-130 55t-130 -55q-54 -54 -54 -129z" />
    <glyph glyph-name="Omacron.alt1" horiz-adv-x="735" 
d="M540 600h-346v97h346v-97zM367 587q143 0 243 -88q101 -87 101 -211t-101 -211q-100 -87 -243 -87t-243 87t-100 211t100 211q100 88 243 88zM218 288q0 -53 44 -91q43 -37 105 -37q61 0 105 38q45 38 45 90t-45 90q-44 39 -105 39t-105 -38t-44 -91z" />
    <glyph glyph-name="Obreve.alt1" horiz-adv-x="735" 
d="M196 697h124q11 -20 47 -20t47 20h124q-9 -41 -54.5 -69t-116.5 -28t-116.5 28t-54.5 69zM367 587q143 0 243 -88q101 -87 101 -211t-101 -211q-100 -87 -243 -87t-243 87t-100 211t100 211q100 88 243 88zM218 288q0 -53 44 -91q43 -37 105 -37q61 0 105 38q45 38 45 90
t-45 90q-44 39 -105 39t-105 -38t-44 -91z" />
    <glyph glyph-name="Ohungarumlaut.alt1" horiz-adv-x="735" 
d="M525 600h-141l58 97h173zM333 600h-131l48 97h173zM367 587q143 0 243 -88q101 -87 101 -211t-101 -211q-100 -87 -243 -87t-243 87t-100 211t100 211q100 88 243 88zM218 288q0 -53 44 -91q43 -37 105 -37q61 0 105 38q45 38 45 90t-45 90q-44 39 -105 39t-105 -38
t-44 -91z" />
    <glyph glyph-name="Oslashacute.alt1" horiz-adv-x="735" 
d="M455 600h-165l36 97h207zM192 -53l-118 89l40 50q-90 86 -90 202q0 124 100 211q100 88 243 88q67 0 126 -21l49 62l117 -89l-39 -49q91 -85 91 -202q0 -124 -101 -211q-100 -87 -243 -87q-60 0 -125 20zM232 227l150 189q-3 1 -15 1q-61 0 -105 -38t-44 -91
q0 -31 14 -61zM502 349l-150 -189h15q61 0 105 38q45 38 45 90q0 34 -15 61z" />
    <glyph glyph-name="Racute.alt1" horiz-adv-x="680" 
d="M397 600h-165l36 97h207zM247 0h-190v583h332q96 0 166 -62q69 -61 69 -150q0 -57 -28 -103t-76 -67l159 -201h-218l-127 162h-1h-86v-162zM247 411v-99h121q67 0 67 53q0 21 -14.5 33.5t-36.5 12.5h-137z" />
    <glyph glyph-name="Rcaron.alt1" horiz-adv-x="680" 
d="M548 697l-212 -112l-211 112h167l44 -39l45 39h167zM247 0h-190v583h332q96 0 166 -62q69 -61 69 -150q0 -57 -28 -103t-76 -67l159 -201h-218l-127 162h-1h-86v-162zM247 411v-99h121q67 0 67 53q0 21 -14.5 33.5t-36.5 12.5h-137z" />
    <glyph glyph-name="Rcommaaccent.alt1" horiz-adv-x="721" 
d="M247 0h-190v697h358q104 0 177 -70t73 -170q0 -117 -93 -189l147 -268h-203l-119 217h-2h-148v-217zM247 525v-156h147q38 0 60 21.5t22 60.5q0 33 -19 53.5t-47 20.5h-163zM402 0h-147l36 97h171z" />
    <glyph glyph-name="Sacute.alt1" horiz-adv-x="594" 
d="M364 600h-165l36 97h207zM34 31v178q118 -50 246 -50q113 0 113 23q0 5 -21 8l-66 12q-45 8 -84 18q-183 50 -183 182q0 88 78 135q78 48 190 48q113 0 209 -40v-168q-95 40 -219 40q-77 0 -77 -18q0 -12 24 -25q15 -6 31 -8q14 -2 31 -6l40 -8q21 -3 46 -8l44 -11
q28 -7 45 -15q49 -21 69 -48q28 -35 28 -83q0 -94 -72.5 -144.5t-217.5 -50.5q-128 0 -254 39z" />
    <glyph glyph-name="Scircumflex.alt1" horiz-adv-x="594" 
d="M262 600h-167l211 112l212 -112h-167l-45 39zM34 31v178q118 -50 246 -50q113 0 113 23q0 5 -21 8l-66 12q-45 8 -84 18q-183 50 -183 182q0 88 78 135q78 48 190 48q113 0 209 -40v-168q-95 40 -219 40q-77 0 -77 -18q0 -12 24 -25q15 -6 31 -8q14 -2 31 -6l40 -8
q21 -3 46 -8l44 -11q28 -7 45 -15q49 -21 69 -48q28 -35 28 -83q0 -94 -72.5 -144.5t-217.5 -50.5q-128 0 -254 39z" />
    <glyph glyph-name="Scaron.alt1" horiz-adv-x="594" 
d="M513 697l-212 -111l-211 111h167l44 -39l45 39h167zM34 31v178q118 -50 246 -50q113 0 113 25q0 4 -21 7l-66 12q-45 7 -84 18q-183 47 -183 181q0 88 78 135q78 48 190 48q113 0 209 -40v-168q-87 40 -199 40q-97 0 -97 -17q0 -3 0.5 -5t2 -4.5t3 -3.5t4 -3t4 -3t5.5 -3
t5 -3q13 -6 31 -9q14 -2 31 -6l40 -8q21 -3 46 -8l44 -11q28 -7 45 -15q49 -21 69 -48q28 -35 28 -83q0 -94 -72.5 -144.5t-217.5 -50.5q-128 0 -254 39z" />
    <glyph glyph-name="Scommaaccent.alt1" horiz-adv-x="594" 
d="M34 153v178q118 -50 246 -50q113 0 113 25q0 4 -21 7l-66 12q-45 7 -84 18q-183 47 -183 181q0 88 78 135q78 48 190 48q113 0 209 -40v-168q-87 40 -199 40q-97 0 -97 -17q0 -3 0.5 -5t2 -4.5t3 -3.5t4 -3t4 -3t5.5 -3t5 -3q13 -6 31 -9q14 -2 31 -6l40 -8q21 -3 46 -8
l44 -11q28 -7 45 -15q49 -21 69 -48q28 -35 28 -83q0 -94 -72.5 -144.5t-217.5 -50.5q-128 0 -254 39zM335 0h-165l36 97h207z" />
    <glyph glyph-name="Scedilla.alt1" horiz-adv-x="594" 
d="M180 2l30 57q19 -12 44 -12q34 0 34 15q0 19 -53 19l16 33q-114 5 -217 39v178q118 -50 246 -50q113 0 113 25q0 4 -21 7l-66 12q-45 7 -84 18q-183 47 -183 181q0 88 78 135q78 48 190 48q113 0 209 -40v-168q-87 40 -199 40q-97 0 -97 -17q0 -3 0.5 -5t2 -4.5t3 -3.5
t4 -3t4 -3t5.5 -3t5 -3q13 -6 31 -9q14 -2 31 -6l40 -8q21 -3 46 -8l44 -11q28 -7 45 -15q49 -21 69 -48q28 -35 28 -83q0 -83 -58 -132.5t-172 -59.5l-10 -22q30 0 50 -14t20 -37q0 -35 -35 -53q-34 -19 -94 -19t-99 30z" />
    <glyph glyph-name="Tcaron.alt1" horiz-adv-x="572" 
d="M498 697l-212 -112l-211 112h167l44 -39l45 39h167zM383 0h-190v411h-192v172h570v-172h-188v-411z" />
    <glyph glyph-name="Tcommaaccent.alt1" horiz-adv-x="572" 
d="M383 114h-190v411h-192v172h570v-172h-188v-411zM321 0h-165l36 97h207z" />
    <glyph glyph-name="Ugrave.alt1" horiz-adv-x="724" 
d="M252 697h187l36 -97h-145zM49 300v397h190v-377q0 -84 31 -121t92 -37t92 37t31 121v377h190v-397q0 -151 -89 -231q-88 -79 -224 -79t-224 79q-89 80 -89 231z" />
    <glyph glyph-name="Uacute.alt1" horiz-adv-x="724" 
d="M401 600h-145l36 97h187zM49 300v397h190v-377q0 -84 31 -121t92 -37t92 37t31 121v377h190v-397q0 -151 -89 -231q-88 -79 -224 -79t-224 79q-89 80 -89 231z" />
    <glyph glyph-name="Ucircumflex.alt1" horiz-adv-x="785" 
d="M353 600h-113l152 112l153 -112h-113l-40 33zM392 -10q-146 -3 -244.5 78.5t-98.5 231.5v397h190v-377q0 -84 38 -121t115 -37t115.5 37t38.5 121v377h190v-397q0 -102 -48 -174q-92 -136 -296 -136z" />
    <glyph glyph-name="Utilde.alt1" horiz-adv-x="810" 
d="M470 706l98 -16q-9 -92 -105 -92q-21 0 -53 9q-30 10 -39 10q-27 0 -34 -25l-96 13q15 99 110 99q22 0 52 -12q33 -11 40 -11q23 0 27 25zM49 300v397h190v-377q0 -84 41.5 -121t124.5 -37t124.5 37t41.5 121v377h190v-397q0 -101 -50 -174q-96 -136 -306 -136
q-97 0 -178 32q-81 34 -129.5 106.5t-48.5 171.5z" />
    <glyph glyph-name="Udieresis.alt1" horiz-adv-x="804" 
d="M321 729q31 0 52 -19.5t21 -47.5t-21 -47.5t-52 -19.5q-30 0 -51 19.5t-21 47.5t21 47.5t51 19.5zM483 729q31 0 52 -19.5t21 -47.5t-21 -47.5t-52 -19.5q-30 0 -51 19.5t-21 47.5t21 47.5t51 19.5zM49 300v397h190v-377q0 -84 41 -121t122 -37t122 37t41 121v377h190
v-397q0 -101 -50 -174q-93 -136 -303 -136q-97 0 -176 32q-81 34 -129 106.5t-48 171.5z" />
    <glyph glyph-name="Umacron.alt1" horiz-adv-x="784" 
d="M526 600h-267v97h267v-97zM49 300v397h190v-377q0 -84 38 -121t115 -37t115 37t38 121v377h190v-397q0 -150 -98.5 -231.5t-244.5 -78.5q-146 -3 -244.5 78.5t-98.5 231.5z" />
    <glyph glyph-name="Ubreve.alt1" horiz-adv-x="784" 
d="M246 697h99q11 -23 47 -23t47 23h99q-7 -43 -46.5 -73t-99.5 -30t-98.5 29.5t-47.5 73.5zM49 300v397h190v-377q0 -84 38 -121t115 -37t115 37t38 121v377h190v-397q0 -150 -98.5 -231.5t-244.5 -78.5q-146 -3 -244.5 78.5t-98.5 231.5z" />
    <glyph glyph-name="Uring.alt1" horiz-adv-x="784" 
d="M393 710q57 0 97 -37q40 -36 40 -87t-40 -88q-40 -36 -97 -36q-59 0 -99 36q-40 37 -40 88t40 87q40 37 99 37zM393 552q24 -1 33.5 16.5t0 35t-33.5 16.5q-24 1 -34.5 -16.5t0 -35t34.5 -16.5zM49 300v397h190v-377q0 -84 38 -121t115 -37t115 37t38 121v377h190v-397
q0 -150 -98.5 -231.5t-244.5 -78.5q-146 -3 -244.5 78.5t-98.5 231.5z" />
    <glyph glyph-name="Uhungarumlaut.alt1" horiz-adv-x="784" 
d="M49 300v397h190v-377q0 -84 38 -121t115 -37t115 37t38 121v377h190v-397q0 -150 -98.5 -231.5t-244.5 -78.5q-146 -3 -244.5 78.5t-98.5 231.5zM325 600h-84l48 97h126zM453 600h-84l48 97h126z" />
    <glyph glyph-name="Uogonek.alt1" horiz-adv-x="724" 
d="M49 420v277h190v-257q0 -158 123 -158q61 0 92 37t31 121v257h190v-277q0 -163 -109 -247q-6 -5 -30 -23q-29 -26 -26 -42q0 -25 35 -25q28 0 58 10l-20 -99q-33 -14 -80 -14q-31 -2 -58 11t-39.5 33t-6 46t37.5 47q-39 -7 -75 -7q-136 0 -224 79q-89 80 -89 231z" />
    <glyph glyph-name="Wgrave.alt1" horiz-adv-x="995" 
d="M498 285l-220 -315l-265 727h195l130 -354l160 228l160 -228l130 354h195l-265 -727zM610 600h-165l-78 97h207z" />
    <glyph glyph-name="Wacute.alt1" horiz-adv-x="995" 
d="M498 285l-220 -315l-265 727h195l130 -354l160 228l160 -228l130 354h195l-265 -727zM553 600h-165l36 97h207z" />
    <glyph glyph-name="Wcircumflex.alt1" horiz-adv-x="995" 
d="M498 285l-220 -315l-265 727h195l130 -354l160 228l160 -228l130 354h195l-265 -727zM454 600h-167l211 112l212 -112h-167l-45 39z" />
    <glyph glyph-name="Wdieresis.alt1" horiz-adv-x="995" 
d="M498 285l-220 -315l-265 727h195l130 -354l160 228l160 -228l130 354h195l-265 -727zM588 595q-30 0 -51 19.5t-21 47.5t21 47.5t51 19.5q31 0 52 -19.5t21 -47.5t-21 -47.5t-52 -19.5zM407 595q-30 0 -51 19.5t-21 47.5t21 47.5t51 19.5q31 0 52 -19.5t21 -47.5
t-21 -47.5t-52 -19.5z" />
    <glyph glyph-name="Ygrave.alt1" horiz-adv-x="766" 
d="M477 0h-188v238l-291 459h198l187 -291l187 291h198l-291 -459v-238zM489 600h-165l-78 97h207z" />
    <glyph glyph-name="Yacute.alt1" horiz-adv-x="766" 
d="M477 0h-188v238l-291 459h198l187 -291l187 291h198l-291 -459v-238zM450 600h-165l36 97h207z" />
    <glyph glyph-name="Ycircumflex.alt1" horiz-adv-x="786" 
d="M360 600h-99l132 112l133 -112h-100l-33 36zM487 0h-188v231l-301 466h198l197 -307l197 307h198l-301 -466v-231z" />
    <glyph glyph-name="Ydieresis.alt1" horiz-adv-x="786" 
d="M487 0h-188v231l-301 466h198l197 -307l197 307h198l-301 -466v-231zM473 595q-30 0 -51 19.5t-21 47.5t21 47.5t51 19.5q31 0 52 -19.5t21 -47.5t-21 -47.5t-52 -19.5zM311 595q-30 0 -51 19.5t-21 47.5t21 47.5t51 19.5q31 0 52 -19.5t21 -47.5t-21 -47.5t-52 -19.5z
" />
    <glyph glyph-name="Zacute.alt1" horiz-adv-x="656" 
d="M421 600h-165l36 97h207zM630 0h-629l313 411h-246v172h577l-305 -411h290v-172z" />
    <glyph glyph-name="Zcaron.alt1" horiz-adv-x="656" 
d="M576 697l-212 -112l-211 112h167l44 -39l45 39h167zM630 0h-629l313 411h-246v172h577l-305 -411h290v-172z" />
    <glyph glyph-name="Zdotaccent.alt1" horiz-adv-x="656" 
d="M363 595q-30 0 -51 19.5t-21 47.5t21 47.5t51 19.5q31 0 52 -19.5t21 -47.5t-21 -47.5t-52 -19.5zM630 0h-629l313 411h-246v172h577l-305 -411h290v-172z" />
    <glyph glyph-name="Eng.alt1" horiz-adv-x="783" 
d="M239 0h-182v725l499 -376v1v347h184v-411q0 -105 -23 -167q-21 -62 -78.5 -94t-164.5 -35q-55 0 -101 7v168q27 -5 80 -5q37 0 57 10l-271 197v-367z" />
    <glyph glyph-name="Cacute.alt2" horiz-adv-x="652" 
d="M441 600h-165l36 97h207zM375 587q156 0 264 -111l-121 -117q-59 58 -143 58q-64 0 -110 -37q-45 -38 -45 -92t45 -92q45 -36 110 -36q84 0 143 58l121 -117q-108 -111 -264 -111q-145 0 -245 85t-100 213t100 213q101 86 245 86z" />
    <glyph glyph-name="Ccircumflex.alt2" horiz-adv-x="652" 
d="M328 600h-167l211 112l212 -112h-167l-45 39zM375 587q156 0 264 -111l-121 -117q-59 58 -143 58q-64 0 -110 -37q-45 -38 -45 -92t45 -92q45 -36 110 -36q84 0 143 58l121 -117q-108 -111 -264 -111q-145 0 -245 85t-100 213t100 213q101 86 245 86z" />
    <glyph glyph-name="Ccaron.alt2" horiz-adv-x="652" 
d="M585 697l-212 -109l-211 109h167l44 -39l45 39h167zM375 587q156 0 264 -111l-121 -117q-59 58 -143 58q-64 0 -110 -37q-45 -38 -45 -92t45 -92q45 -36 110 -36q84 0 143 58l121 -117q-108 -111 -264 -111q-145 0 -245 85t-100 213t100 213q101 86 245 86z" />
    <glyph glyph-name="Cdotaccent.alt2" horiz-adv-x="652" 
d="M372 595q-30 0 -51 19.5t-21 47.5t21 47.5t51 19.5q31 0 52 -19.5t21 -47.5t-21 -47.5t-52 -19.5zM375 587q156 0 264 -111l-121 -117q-59 58 -143 58q-64 0 -110 -37q-45 -38 -45 -92t45 -92q45 -36 110 -36q84 0 143 58l121 -117q-108 -111 -264 -111q-145 0 -245 85
t-100 213t100 213q101 86 245 86z" />
    <glyph glyph-name="Ccedilla.alt2" horiz-adv-x="652" 
d="M30 408q0 128 100 213q101 86 245 86q156 0 264 -111l-121 -117q-59 58 -143 58q-64 0 -110 -37q-45 -38 -45 -92t45 -92q45 -36 110 -36q84 0 143 58l121 -117q-95 -99 -234 -110h-1l-7 -16q30 0 50 -14t20 -37q0 -35 -35 -53q-34 -19 -94 -19t-99 30l30 57
q19 -12 44 -12q34 0 34 15q0 19 -53 19l16 34q-122 20 -201 100t-79 193z" />
    <glyph glyph-name="Gcircumflex.alt2" horiz-adv-x="709" 
d="M330 600h-167l211 112l212 -112h-167l-45 39zM370 589q156 0 259 -102l-118 -116q-55 48 -141 48q-64 0 -107 -37t-43 -93t43 -93q44 -36 107 -36q98 0 150 52v1h-165v153h324v-221q-50 -71 -132 -113t-177 -42q-143 0 -241 85q-99 85 -99 214t99 214q100 86 241 86z" />
    <glyph glyph-name="Gbreve.alt2" horiz-adv-x="709" 
d="M201 697h124q11 -20 47 -20t47 20h124q-9 -41 -54.5 -69t-116.5 -28t-116.5 28t-54.5 69zM370 589q156 0 259 -102l-118 -116q-55 48 -141 48q-64 0 -107 -37t-43 -93t43 -93q44 -36 107 -36q98 0 150 52v1h-165v153h324v-221q-50 -71 -132 -113t-177 -42q-143 0 -241 85
q-99 85 -99 214t99 214q100 86 241 86z" />
    <glyph glyph-name="Gdotaccent.alt2" horiz-adv-x="709" 
d="M367 595q-30 0 -51 19.5t-21 47.5t21 47.5t51 19.5q31 0 52 -19.5t21 -47.5t-21 -47.5t-52 -19.5zM370 589q156 0 259 -102l-118 -116q-55 48 -141 48q-64 0 -107 -37t-43 -93t43 -93q44 -36 107 -36q98 0 150 52v1h-165v153h324v-221q-50 -71 -132 -113t-177 -42
q-143 0 -241 85q-99 85 -99 214t99 214q100 86 241 86z" />
    <glyph glyph-name="Gcommaaccent.alt2" horiz-adv-x="709" 
d="M370 108q-143 0 -241 85q-99 85 -99 214t99 214q100 86 241 86q156 0 259 -102l-118 -116q-55 48 -141 48q-64 0 -107 -37t-43 -93t43 -93q44 -36 107 -36q98 0 150 52v1h-165v153h324v-221q-50 -71 -132 -113t-177 -42zM402 0h-165l36 97h207z" />
    <glyph glyph-name="Kcommaaccent.alt2" horiz-adv-x="751" 
d="M247 0h-190v697h190v-283l278 283h224l-282 -300l292 -397h-220l-201 271l-91 -92v-179zM404 0h-151l36 97h177z" />
    <glyph glyph-name="Sacute.alt2" horiz-adv-x="588" 
d="M374 600h-165l36 97h207zM2 95l119 115q61 -54 183 -54q83 0 83 20q0 14 -24 21q-25 8 -77 17q-50 8 -89 20q-161 45 -161 168q0 90 72 136q74 47 178 47q134 0 234 -81l-102 -117q-55 37 -135 37q-66 0 -66 -20q0 -14 15 -19q23 -6 68 -14q54 -9 104 -24
q168 -49 168 -164q0 -89 -71 -140t-207 -51q-177 0 -292 103z" />
    <glyph glyph-name="Scircumflex.alt2" horiz-adv-x="588" 
d="M254 600h-167l211 112l212 -112h-167l-45 39zM2 95l119 115q61 -54 183 -54q83 0 83 20q0 14 -24 21q-25 8 -77 17q-50 8 -89 20q-161 45 -161 168q0 90 72 136q74 47 178 47q134 0 234 -81l-102 -117q-55 37 -135 37q-66 0 -66 -20q0 -14 15 -19q23 -6 68 -14
q54 -9 104 -24q168 -49 168 -164q0 -89 -71 -140t-207 -51q-177 0 -292 103z" />
    <glyph glyph-name="Scaron.alt2" horiz-adv-x="588" 
d="M515 697l-212 -109l-211 109h167l44 -39l45 39h167zM2 95l119 115q61 -54 183 -54q83 0 83 20q0 14 -24 21q-25 8 -77 17q-50 8 -89 20q-161 45 -161 168q0 90 72 136q74 47 178 47q134 0 234 -81l-102 -117q-55 37 -135 37q-66 0 -66 -20q0 -14 15 -19q23 -6 68 -14
q54 -9 104 -24q168 -49 168 -164q0 -89 -71 -140t-207 -51q-177 0 -292 103z" />
    <glyph glyph-name="Scommaaccent.alt2" horiz-adv-x="588" 
d="M2 217l119 115q61 -54 183 -54q83 0 83 20q0 14 -24 21q-25 8 -77 17q-50 8 -89 20q-161 45 -161 168q0 90 72 136q74 47 178 47q134 0 234 -81l-102 -117q-55 37 -135 37q-66 0 -66 -20q0 -14 15 -19q23 -6 68 -14q54 -9 104 -24q168 -49 168 -164q0 -89 -71 -140
t-207 -51q-177 0 -292 103zM324 0h-165l36 97h207z" />
    <glyph glyph-name="Scedilla.alt2" horiz-adv-x="588" 
d="M165 2l30 57q19 -12 44 -12q34 0 34 15q0 19 -53 19l17 35q-145 17 -235 101l119 115q61 -54 183 -54q83 0 83 20q0 14 -24 21q-25 8 -77 17q-50 8 -89 20q-161 45 -161 168q0 90 72 136q74 47 178 47q134 0 234 -81l-102 -117q-55 37 -135 37q-66 0 -66 -20
q0 -14 15 -19q23 -6 68 -14q54 -9 104 -24q168 -49 168 -164q0 -83 -61 -133t-178 -57l-10 -20q30 0 50 -14t20 -37q0 -35 -35 -53q-34 -19 -94 -19t-99 30z" />
    <glyph glyph-name="Wgrave.alt2" horiz-adv-x="962" 
d="M579 600h-165l-78 97h207zM481 212l-149 -246l-328 617h183l159 -291l41 69l-127 222h173l48 -83l48 83h173l-127 -222l41 -69l159 291h183l-328 -617z" />
    <glyph glyph-name="Wacute.alt2" horiz-adv-x="962" 
d="M548 600h-165l36 97h207zM481 212l-149 -246l-328 617h183l159 -291l41 69l-127 222h173l48 -83l48 83h173l-127 -222l41 -69l159 291h183l-328 -617z" />
    <glyph glyph-name="Wcircumflex.alt2" horiz-adv-x="962" 
d="M442 600h-125l164 112l165 -112h-125l-40 33zM481 212l-149 -246l-328 617h183l159 -291l41 69l-127 222h173l48 -83l48 83h173l-127 -222l41 -69l159 291h183l-328 -617z" />
    <glyph glyph-name="Wdieresis.alt2" horiz-adv-x="962" 
d="M565 595q-30 0 -51 19.5t-21 47.5t21 47.5t51 19.5q31 0 52 -19.5t21 -47.5t-21 -47.5t-52 -19.5zM396 595q-30 0 -51 19.5t-21 47.5t21 47.5t51 19.5q31 0 52 -19.5t21 -47.5t-21 -47.5t-52 -19.5zM481 212l-149 -246l-328 617h183l159 -291l41 69l-127 222h173l48 -83
l48 83h173l-127 -222l41 -69l159 291h183l-328 -617z" />
    <glyph glyph-name="A.smcp" horiz-adv-x="674" 
d="M185 0h-184l336 590l336 -590h-182l-37 63h-233zM337 297l-57 -108h115z" />
    <glyph glyph-name="B.smcp" horiz-adv-x="575" 
d="M372 0h-315v558h293q66 0 112 -41q46 -40 46 -102q0 -83 -75 -112q57 -11 88 -47.5t31 -90.5q0 -72 -52 -118q-52 -47 -128 -47zM236 415v-77h72q18 0 30 11t12 28q0 16 -12 27t-30 11h-72zM236 228v-83h94q22 0 36 12.5t14 30.5q0 17 -14 28.5t-37 11.5h-93z" />
    <glyph glyph-name="C.smcp" horiz-adv-x="577" 
d="M30 278q0 122 92 205q91 82 224 82q108 0 191 -57v-179q-86 76 -191 76q-56 0 -97 -36q-40 -36 -40 -91q0 -54 40 -90q41 -36 97 -36q105 0 191 76v-178q-83 -57 -191 -57q-132 0 -224 81q-92 83 -92 204z" />
    <glyph glyph-name="D.smcp" horiz-adv-x="657" 
d="M308 0h-251v558h250q156 0 238 -79q82 -78 82 -202q0 -129 -82.5 -203t-236.5 -74zM236 388v-226h60q81 0 116 28.5t35 86.5q0 57 -34.5 84t-116.5 27h-60z" />
    <glyph glyph-name="E.smcp" horiz-adv-x="559" 
d="M519 0h-462v558h455v-159h-278v-51h259v-141h-259v-52h285v-155z" />
    <glyph glyph-name="F.smcp" horiz-adv-x="540" 
d="M236 0h-179v558h450v-161h-271v-58h246v-150h-246v-189z" />
    <glyph glyph-name="G.smcp" horiz-adv-x="659" 
d="M30 278q0 122 92 205q91 82 224 82q104 0 182 -38v-164q-78 42 -182 42q-56 0 -97 -36q-40 -36 -40 -91q0 -54 40 -90q41 -36 97 -36q83 0 126 46v6h-148v147h300v-224q-44 -61 -118 -97.5t-160 -36.5q-132 0 -224 81q-92 83 -92 204z" />
    <glyph glyph-name="H.smcp" horiz-adv-x="675" 
d="M236 0h-179v558h179v-182h203v182h179v-558h-179v212h-203v-212z" />
    <glyph glyph-name="I.smcp" horiz-adv-x="301" 
d="M240 0h-179v558h179v-558z" />
    <glyph glyph-name="J.smcp" horiz-adv-x="368" 
d="M6 -2v156q19 -4 56 -4q43 0 59.5 15.5t16.5 47.5v345h179v-333q0 -79 -20 -131q-40 -101 -208 -101q-43 0 -83 5z" />
    <glyph glyph-name="K.smcp" 
d="M236 0h-179v558h179v-248l174 248h208l-210 -278l220 -280h-215l-177 237v-237z" />
    <glyph glyph-name="L.smcp" horiz-adv-x="479" 
d="M458 0h-401v558h179v-396h222v-162z" />
    <glyph glyph-name="M.smcp" horiz-adv-x="777" 
d="M223 0h-166v581l332 -295l331 295v-581h-166v223l-165 -149l-166 149v-223z" />
    <glyph glyph-name="N.smcp" horiz-adv-x="673" 
d="M228 0h-171v579l389 -280v259h170v-579l-388 280v-259z" />
    <glyph glyph-name="O.smcp" horiz-adv-x="671" 
d="M30 279q0 118 89 202q90 84 216 84t216 -84t90 -202q0 -119 -90 -203q-91 -83 -216 -83q-127 0 -216 83q-89 84 -89 203zM207 279q0 -51 37 -87q38 -35 91 -35q52 0 90 35q38 36 38 87q0 50 -38 86q-37 36 -90 36t-91 -36q-37 -36 -37 -86z" />
    <glyph glyph-name="P.smcp" horiz-adv-x="586" 
d="M236 0h-179v558h294q70 0 137 -50q34 -25 55 -67.5t21 -94.5q0 -91 -68 -151t-145 -60h-115v-135zM236 397v-105h106q6 -1 15 1t19.5 15t11.5 36q-2 23 -12 36.5t-19 15.5t-16 1h-105z" />
    <glyph glyph-name="Q.smcp" horiz-adv-x="670" 
d="M640 278q0 -97 -59 -171l99 -107h-180l-26 27q-65 -34 -139 -34q-126 0 -216 84q-89 84 -89 201q0 116 89 202q89 85 216 85t215 -85q90 -84 90 -202zM201 278q0 -52 40 -89t94 -37h11l-104 102h188l29 -32q10 16 10 56q0 51 -40 88q-41 39 -94 39t-94 -38
q-40 -37 -40 -89z" />
    <glyph glyph-name="R.smcp" horiz-adv-x="604" 
d="M236 0h-179v558h282q90 0 154 -59q64 -58 64 -141q0 -53 -26.5 -96t-72.5 -63l149 -199h-203l-118 159h-1h-49v-159zM236 396v-96h83q61 0 61 52q0 20 -13.5 32t-32.5 12h-98z" />
    <glyph glyph-name="S.smcp" horiz-adv-x="537" 
d="M43 32v167q91 -48 214 -48q41 0 61 3q30 6 30 24q0 10 -75 25q-117 25 -173 68.5t-56 118.5q0 82 69 129q70 46 167 46q99 0 189 -38v-158q-81 38 -197 38q-59 0 -59 -20q0 -12 40 -25l38 -11q14 -3 48 -11.5t35 -8.5q79 -22 113 -56.5t34 -94.5q0 -90 -64 -138.5
t-193 -48.5q-112 0 -221 39z" />
    <glyph glyph-name="T.smcp" horiz-adv-x="510" 
d="M344 0h-178v396h-164v162h506v-162h-164v-396z" />
    <glyph glyph-name="U.smcp" horiz-adv-x="640" 
d="M52 252v306h179v-286q0 -64 21.5 -90.5t67.5 -26.5t67.5 26.5t21.5 90.5v286h179v-306q0 -127 -77 -193t-191 -66q-116 0 -192 66t-76 193z" />
    <glyph glyph-name="V.smcp" horiz-adv-x="675" 
d="M679 558l-342 -592l-341 592h193l148 -249l149 249h193z" />
    <glyph glyph-name="W.smcp" horiz-adv-x="862" 
d="M431 254l-187 -279l-231 583h183l93 -212l142 202l141 -203l94 213h183l-231 -584z" />
    <glyph glyph-name="X.smcp" horiz-adv-x="614" 
d="M194 0h-200l208 293l-191 265h204l92 -131l92 131h204l-191 -265l208 -293h-201l-112 157z" />
    <glyph glyph-name="Y.smcp" horiz-adv-x="630" 
d="M404 0h-177v188l-227 370h192l123 -202l123 202h192l-226 -370v-188z" />
    <glyph glyph-name="Z.smcp" horiz-adv-x="565" 
d="M542 0h-545l262 396h-207v162h502l-259 -396h247v-162z" />
    <glyph glyph-name="Agrave.smcp" horiz-adv-x="674" 
d="M420 596h-163l-81 101h207zM185 0h-184l336 590l336 -590h-182l-37 63h-233zM337 297l-57 -108h115z" />
    <glyph glyph-name="Aacute.smcp" horiz-adv-x="674" 
d="M407 596h-163l37 101h207zM185 0h-184l336 590l336 -590h-182l-37 63h-233zM337 297l-57 -108h115z" />
    <glyph glyph-name="Acircumflex.smcp" horiz-adv-x="674" 
d="M293 596h-158l202 116l203 -116h-158l-45 43zM185 0h-184l336 590l336 -590h-182l-37 63h-233zM337 297l-57 -108h115z" />
    <glyph glyph-name="Atilde.smcp" horiz-adv-x="674" 
d="M220 579l-95 16q8 51 42 82t86 31q37 0 85 -17q49 -17 69 -17q35 0 47 37l95 -16q-18 -115 -130 -115q-37 0 -87 14q-48 15 -69 15q-37 0 -43 -30zM185 0h-184l336 590l336 -590h-182l-37 63h-233zM337 297l-57 -108h115z" />
    <glyph glyph-name="Adieresis.smcp" horiz-adv-x="674" 
d="M387 641q0 28 22 48.5t53 20.5t53 -20t22 -49q0 -27 -22 -47.5t-53 -20.5t-53 20.5t-22 47.5zM137 641q0 28 22 48.5t53 20.5t53 -20t22 -49q0 -27 -22 -47.5t-53 -20.5t-53 20.5t-22 47.5zM185 0h-184l336 590l336 -590h-182l-37 63h-233zM337 297l-57 -108h115z" />
    <glyph glyph-name="Amacron.smcp" horiz-adv-x="674" 
d="M501 596h-328v101h328v-101zM185 0h-184l336 590l336 -590h-182l-37 63h-233zM337 297l-57 -108h115z" />
    <glyph glyph-name="Abreve.smcp" horiz-adv-x="674" 
d="M185 0h-184l328 577q-74 1 -121 35t-57 85h124q13 -30 62 -30t62 30h124q-9 -51 -57 -85t-122 -35l329 -577h-182l-37 63h-233zM337 297l-57 -108h115z" />
    <glyph glyph-name="Aring.smcp" horiz-adv-x="674" 
d="M185 0h-184l276 484q-59 33 -59 91q0 43 35 75q34 31 84 31q49 0 83 -31q35 -32 35 -75q0 -59 -58 -90l276 -485h-182l-37 63h-233zM317 554q12 -11 27 -6t19 18t-7 25q-11 11 -26 6.5t-19 -17.5t6 -26zM337 297l-57 -108h115z" />
    <glyph glyph-name="Aringacute.smcp" horiz-adv-x="674" 
d="M425 715h-151l40 112h195zM185 0h-184l276 484q-59 33 -59 91q0 43 35 75q34 31 84 31q49 0 83 -31q35 -32 35 -75q0 -59 -58 -90l276 -485h-182l-37 63h-233zM317 554q12 -11 27 -6t19 18t-7 25q-11 11 -26 6.5t-19 -17.5t6 -26zM337 297l-57 -108h115z" />
    <glyph glyph-name="Aogonek.smcp" horiz-adv-x="689" 
d="M645 -93q21 0 49 9l-20 -93q-27 -12 -63 -12q-46 0 -78 27t-32 69q0 57 72 93h-82l-37 63h-233l-36 -63h-184l336 590l336 -590q-71 -33 -71 -67q0 -26 43 -26zM337 297l-57 -108h115z" />
    <glyph glyph-name="AE.smcp" horiz-adv-x="836" 
d="M157 0h-200l494 558h338v-159h-208v-51h192v-141h-192v-52h215v-155h-378v53h-210zM418 300l-97 -111h97v111z" />
    <glyph glyph-name="AEacute.smcp" horiz-adv-x="836" 
d="M557 596h-163l37 101h207zM157 0h-200l494 558h338v-159h-208v-51h192v-141h-192v-52h215v-155h-378v53h-210zM418 300l-97 -111h97v111z" />
    <glyph glyph-name="Cacute.smcp" horiz-adv-x="577" 
d="M420 596h-163l37 101h207zM30 278q0 122 92 205q91 82 224 82q108 0 191 -57v-179q-86 76 -191 76q-56 0 -97 -36q-40 -36 -40 -91q0 -54 40 -90q41 -36 97 -36q105 0 191 76v-178q-83 -57 -191 -57q-132 0 -224 81q-92 83 -92 204z" />
    <glyph glyph-name="Ccircumflex.smcp" horiz-adv-x="577" 
d="M296 596h-158l202 116l203 -116h-158l-45 43zM30 278q0 122 92 205q91 82 224 82q108 0 191 -57v-179q-86 76 -191 76q-56 0 -97 -36q-40 -36 -40 -91q0 -54 40 -90q41 -36 97 -36q105 0 191 76v-178q-83 -57 -191 -57q-132 0 -224 81q-92 83 -92 204z" />
    <glyph glyph-name="Ccaron.smcp" horiz-adv-x="577" 
d="M545 697l-203 -116l-202 116h158l44 -43l45 43h158zM30 278q0 122 92 205q91 82 224 82q108 0 191 -57v-179q-86 76 -191 76q-56 0 -97 -36q-40 -36 -40 -91q0 -54 40 -90q41 -36 97 -36q105 0 191 76v-178q-83 -57 -191 -57q-132 0 -224 81q-92 83 -92 204z" />
    <glyph glyph-name="Cdotaccent.smcp" horiz-adv-x="577" 
d="M269 647q0 28 22 48.5t53 20.5t53 -20t22 -49q0 -27 -22 -47.5t-53 -20.5t-53 20.5t-22 47.5zM30 278q0 122 92 205q91 82 224 82q108 0 191 -57v-179q-86 76 -191 76q-56 0 -97 -36q-40 -36 -40 -91q0 -54 40 -90q41 -36 97 -36q105 0 191 76v-178q-83 -57 -191 -57
q-132 0 -224 81q-92 83 -92 204z" />
    <glyph glyph-name="Ccedilla.smcp" horiz-adv-x="577" 
d="M30 278q0 122 92 205q91 82 224 82q108 0 191 -57v-179q-86 76 -191 76q-56 0 -97 -36q-40 -36 -40 -91q0 -54 40 -90q41 -36 97 -36q105 0 191 76v-178q-71 -49 -159 -56h-1l-13 -28q24 0 40 -18t16 -47q0 -42 -29.5 -66t-80.5 -24q-52 0 -87 26l29 61q16 -10 37 -10
q12 0 20.5 6.5t8.5 17.5q0 28 -45 28l23 57q-114 15 -191 93q-75 78 -75 188z" />
    <glyph glyph-name="Dcaron.smcp" horiz-adv-x="657" 
d="M527 697l-203 -116l-202 116h158l44 -43l45 43h158zM308 0h-251v558h250q156 0 238 -79q82 -78 82 -202q0 -129 -82.5 -203t-236.5 -74zM236 388v-226h60q81 0 116 28.5t35 86.5q0 57 -34.5 84t-116.5 27h-60z" />
    <glyph glyph-name="Dcroat.smcp" horiz-adv-x="657" 
d="M57 228h-50v101h50v229h250q156 0 238 -79q82 -78 82 -202q0 -129 -82.5 -203t-236.5 -74h-251v228zM236 228v-66h60q81 0 116 28.5t35 86.5q0 57 -34.5 84t-116.5 27h-60v-59h99v-101h-99z" />
    <glyph glyph-name="Egrave.smcp" horiz-adv-x="559" 
d="M395 596h-163l-81 101h207zM519 0h-462v558h455v-159h-278v-51h259v-141h-259v-52h285v-155z" />
    <glyph glyph-name="Eacute.smcp" horiz-adv-x="559" 
d="M361 596h-163l37 101h207zM519 0h-462v558h455v-159h-278v-51h259v-141h-259v-52h285v-155z" />
    <glyph glyph-name="Ecircumflex.smcp" horiz-adv-x="559" 
d="M241 596h-158l202 116l203 -116h-158l-45 43zM519 0h-462v558h455v-159h-278v-51h259v-141h-259v-52h285v-155z" />
    <glyph glyph-name="Ecaron.smcp" horiz-adv-x="559" 
d="M494 697l-203 -116l-202 116h158l44 -43l45 43h158zM519 0h-462v558h455v-159h-278v-51h259v-141h-259v-52h285v-155z" />
    <glyph glyph-name="Edieresis.smcp" horiz-adv-x="559" 
d="M306 647q0 28 22 48.5t53 20.5t53 -20t22 -49q0 -27 -22 -47.5t-53 -20.5t-53 20.5t-22 47.5zM111 647q0 28 22 48.5t53 20.5t53 -20t22 -49q0 -27 -22 -47.5t-53 -20.5t-53 20.5t-22 47.5zM519 0h-462v558h455v-159h-278v-51h259v-141h-259v-52h285v-155z" />
    <glyph glyph-name="Emacron.smcp" horiz-adv-x="559" 
d="M449 596h-328v101h328v-101zM519 0h-462v558h455v-159h-278v-51h259v-141h-259v-52h285v-155z" />
    <glyph glyph-name="Ebreve.smcp" horiz-adv-x="559" 
d="M102 697h124q13 -30 62 -30q48 0 62 30h124q-9 -51 -59 -85.5t-127 -34.5t-127 34.5t-59 85.5zM519 0h-462v558h455v-159h-278v-51h259v-141h-259v-52h285v-155z" />
    <glyph glyph-name="Edotaccent.smcp" horiz-adv-x="559" 
d="M207 647q0 28 22 48.5t53 20.5t53 -20t22 -49q0 -27 -22 -47.5t-53 -20.5t-53 20.5t-22 47.5zM519 0h-462v558h455v-159h-278v-51h259v-141h-259v-52h285v-155z" />
    <glyph glyph-name="Eogonek.smcp" horiz-adv-x="559" 
d="M425 0h-368v558h455v-161h-276v-47h257v-145h-257v-48h283v-157q-54 -33 -54 -62q0 -11 12 -17.5t30 -6.5q22 0 50 7l-21 -89q-21 -12 -59 -12q-47 0 -81.5 26t-34.5 67q0 51 64 87z" />
    <glyph glyph-name="Gcircumflex.smcp" horiz-adv-x="659" 
d="M299 596h-158l202 116l203 -116h-158l-45 43zM30 278q0 122 92 205q91 82 224 82q104 0 182 -38v-164q-78 42 -182 42q-56 0 -97 -36q-40 -36 -40 -91q0 -54 40 -90q41 -36 97 -36q83 0 126 46v6h-148v147h300v-224q-44 -61 -118 -97.5t-160 -36.5q-132 0 -224 81
q-92 83 -92 204z" />
    <glyph glyph-name="Gbreve.smcp" horiz-adv-x="659" 
d="M157 697h124q13 -30 62 -30t62 30h124q-9 -51 -59 -85.5t-127 -34.5t-127 34.5t-59 85.5zM30 278q0 122 92 205q91 82 224 82q104 0 182 -38v-164q-78 42 -182 42q-56 0 -97 -36q-40 -36 -40 -91q0 -54 40 -90q41 -36 97 -36q83 0 126 46v6h-148v147h300v-224
q-44 -61 -118 -97.5t-160 -36.5q-132 0 -224 81q-92 83 -92 204z" />
    <glyph glyph-name="Gdotaccent.smcp" horiz-adv-x="659" 
d="M272 641q0 28 22 48.5t53 20.5t53 -20t22 -49q0 -27 -22 -47.5t-53 -20.5t-53 20.5t-22 47.5zM30 278q0 122 92 205q91 82 224 82q104 0 182 -38v-164q-78 42 -182 42q-56 0 -97 -36q-40 -36 -40 -91q0 -54 40 -90q41 -36 97 -36q83 0 126 46v6h-148v147h300v-224
q-44 -61 -118 -97.5t-160 -36.5q-132 0 -224 81q-92 83 -92 204z" />
    <glyph glyph-name="Gcommaaccent.smcp" horiz-adv-x="659" 
d="M30 278q0 122 92 205q91 82 224 82q104 0 182 -38v-164q-78 42 -182 42q-56 0 -97 -36q-40 -36 -40 -91q0 -54 40 -90q41 -36 97 -36q83 0 126 46v6h-148v147h300v-224q-44 -61 -118 -97.5t-160 -36.5q-132 0 -224 81q-92 83 -92 204zM204 -145l37 107h207l-83 -107h-161
z" />
    <glyph glyph-name="Hcircumflex.smcp" horiz-adv-x="675" 
d="M293 596h-158l202 116l203 -116h-158l-45 43zM236 0h-179v558h179v-182h203v182h179v-558h-179v212h-203v-212z" />
    <glyph glyph-name="Hbar.smcp" horiz-adv-x="675" 
d="M236 0h-179v403h-50v101h50v54h179v-54h203v54h179v-54h50v-101h-50v-403h-179v212h-203v-212zM236 403v-48h203v48h-203z" />
    <glyph glyph-name="Igrave.smcp" horiz-adv-x="301" 
d="M239 596h-163l-81 101h207zM240 0h-179v558h179v-558z" />
    <glyph glyph-name="Iacute.smcp" horiz-adv-x="301" 
d="M226 596h-163l37 101h207zM240 0h-179v558h179v-558z" />
    <glyph glyph-name="Icircumflex.smcp" horiz-adv-x="301" 
d="M116 596h-158l192 116l193 -116h-158l-35 43zM240 0h-179v558h179v-558z" />
    <glyph glyph-name="Itilde.smcp" horiz-adv-x="301" 
d="M57 579l-95 16q8 51 42 82t86 31q27 0 63 -17t51 -17q35 0 47 37l95 -16q-18 -115 -130 -115q-26 0 -65 14q-36 15 -51 15q-37 0 -43 -30zM240 0h-179v558h179v-558z" />
    <glyph glyph-name="Idieresis.smcp" horiz-adv-x="301" 
d="M165 647q0 28 22 48.5t53 20.5t53 -20t22 -49q0 -27 -22 -47.5t-53 -20.5t-53 20.5t-22 47.5zM-14 647q0 28 22 48.5t53 20.5t53 -20t22 -49q0 -27 -22 -47.5t-53 -20.5t-53 20.5t-22 47.5zM240 0h-179v558h179v-558z" />
    <glyph glyph-name="Imacron.smcp" horiz-adv-x="301" 
d="M314 596h-328v101h328v-101zM240 0h-179v558h179v-558z" />
    <glyph glyph-name="Ibreve.smcp" horiz-adv-x="301" 
d="M-36 697h124q13 -30 62 -30q48 0 62 30h124q-9 -51 -59 -85.5t-127 -34.5t-127 34.5t-59 85.5zM240 0h-179v558h179v-558z" />
    <glyph glyph-name="Idotaccent.smcp" horiz-adv-x="301" 
d="M150 579q-33 0 -56.5 21.5t-23.5 51.5t23.5 52t56.5 22q34 0 57.5 -21.5t23.5 -52.5q0 -30 -23.5 -51.5t-57.5 -21.5zM240 0h-179v558h179v-558z" />
    <glyph glyph-name="Iogonek.smcp" horiz-adv-x="301" 
d="M140 0h-79v558h179v-558q-71 -33 -71 -67q0 -26 43 -26q20 0 49 9l-20 -93q-27 -12 -63 -12q-46 0 -78 27t-32 69q0 57 72 93z" />
    <glyph glyph-name="IJ.smcp" horiz-adv-x="501" 
d="M61 9v159q53 -14 138 -14q42 0 57 10t15 35v359h179v-369q0 -67 -19 -111q-40 -85 -206 -85q-83 0 -164 16zM240 187h-179v371h179v-371z" />
    <glyph glyph-name="Jcircumflex.smcp" horiz-adv-x="368" 
d="M185 596h-148l192 116l193 -116h-148l-45 43zM6 -2v156q19 -4 56 -4q43 0 59.5 15.5t16.5 47.5v345h179v-333q0 -79 -20 -131q-40 -101 -208 -101q-43 0 -83 5z" />
    <glyph glyph-name="Kcommaaccent.smcp" 
d="M236 0h-179v558h179v-248l174 248h208l-210 -278l220 -280h-215l-177 237v-237zM357 -145h-161l37 107h207z" />
    <glyph glyph-name="Lacute.smcp" horiz-adv-x="479" 
d="M222 596h-163l37 101h207zM458 0h-401v558h179v-396h222v-162z" />
    <glyph glyph-name="Lcaron.smcp" horiz-adv-x="479" 
d="M458 0h-401v558h179v-396h222v-162zM403 451h-150l40 107h194z" />
    <glyph glyph-name="Lcommaaccent.smcp" horiz-adv-x="479" 
d="M458 0h-401v558h179v-396h222v-162zM286 -145h-161l37 107h207z" />
    <glyph glyph-name="Ldot.smcp" horiz-adv-x="479" 
d="M458 0h-401v558h179v-396h222v-162zM360 428q34 0 57.5 -21.5t23.5 -52.5q0 -30 -23.5 -51.5t-57.5 -21.5q-33 0 -56.5 21.5t-23.5 51.5t23.5 52t56.5 22z" />
    <glyph glyph-name="Lslash.smcp" horiz-adv-x="479" 
d="M57 173l-50 -23v152l50 23v233h179v-162l123 58v-152l-123 -58v-82h222v-162h-401v173z" />
    <glyph glyph-name="Nacute.smcp" horiz-adv-x="673" 
d="M402 596h-163l37 101h207zM228 0h-171v579l389 -280v259h170v-579l-388 280v-259z" />
    <glyph glyph-name="Ncaron.smcp" horiz-adv-x="673" 
d="M546 697l-203 -116l-202 116h158l44 -43l45 43h158zM228 0h-171v579l389 -280v259h170v-579l-388 280v-259z" />
    <glyph glyph-name="Ntilde.smcp" horiz-adv-x="673" 
d="M222 579l-95 16q8 51 42 82t86 31q37 0 85 -17q49 -17 69 -17q35 0 47 37l95 -16q-18 -115 -130 -115q-37 0 -87 14q-48 15 -69 15q-37 0 -43 -30zM228 0h-171v579l389 -280v259h170v-579l-388 280v-259z" />
    <glyph glyph-name="Ncommaaccent.smcp" horiz-adv-x="673" 
d="M228 0h-171v579l389 -280v259h170v-579l-388 280v-259zM382 -145h-161l37 107h207z" />
    <glyph glyph-name="Ograve.smcp" horiz-adv-x="671" 
d="M421 596h-163l-81 101h207zM30 279q0 118 89 202q90 84 216 84t216 -84t90 -202q0 -119 -90 -203q-91 -83 -216 -83q-127 0 -216 83q-89 84 -89 203zM207 279q0 -51 37 -87q38 -35 91 -35q52 0 90 35q38 36 38 87q0 50 -38 86q-37 36 -90 36t-91 -36q-37 -36 -37 -86z
" />
    <glyph glyph-name="Oacute.smcp" horiz-adv-x="671" 
d="M417 596h-163l37 101h207zM30 279q0 118 89 202q90 84 216 84t216 -84t90 -202q0 -119 -90 -203q-91 -83 -216 -83q-127 0 -216 83q-89 84 -89 203zM207 279q0 -51 37 -87q38 -35 91 -35q52 0 90 35q38 36 38 87q0 50 -38 86q-37 36 -90 36t-91 -36q-37 -36 -37 -86z" />
    <glyph glyph-name="Ocircumflex.smcp" horiz-adv-x="671" 
d="M291 596h-158l202 116l203 -116h-158l-45 43zM30 279q0 118 89 202q90 84 216 84t216 -84t90 -202q0 -119 -90 -203q-91 -83 -216 -83q-127 0 -216 83q-89 84 -89 203zM207 279q0 -51 37 -87q38 -35 91 -35q52 0 90 35q38 36 38 87q0 50 -38 86q-37 36 -90 36t-91 -36
q-37 -36 -37 -86z" />
    <glyph glyph-name="Otilde.smcp" horiz-adv-x="671" 
d="M217 579l-95 16q8 51 42 82t86 31q37 0 85 -17q49 -17 69 -17q35 0 47 37l95 -16q-18 -115 -130 -115q-36 0 -87 14q-49 15 -69 15q-37 0 -43 -30zM30 279q0 118 89 202q90 84 216 84t216 -84t90 -202q0 -119 -90 -203q-91 -83 -216 -83q-127 0 -216 83q-89 84 -89 203z
M207 279q0 -51 37 -87q38 -35 91 -35q52 0 90 35q38 36 38 87q0 50 -38 86q-37 36 -90 36t-91 -36q-37 -36 -37 -86z" />
    <glyph glyph-name="Odieresis.smcp" horiz-adv-x="671" 
d="M385 641q0 28 22 48.5t53 20.5t53 -20t22 -49q0 -27 -22 -47.5t-53 -20.5t-53 20.5t-22 47.5zM135 641q0 28 22 48.5t53 20.5t53 -20t22 -49q0 -27 -22 -47.5t-53 -20.5t-53 20.5t-22 47.5zM30 279q0 118 89 202q90 84 216 84t216 -84t90 -202q0 -119 -90 -203
q-91 -83 -216 -83q-127 0 -216 83q-89 84 -89 203zM207 279q0 -51 37 -87q38 -35 91 -35q52 0 90 35q38 36 38 87q0 50 -38 86q-37 36 -90 36t-91 -36q-37 -36 -37 -86z" />
    <glyph glyph-name="Omacron.smcp" horiz-adv-x="671" 
d="M499 596h-328v101h328v-101zM30 279q0 118 89 202q90 84 216 84t216 -84t90 -202q0 -119 -90 -203q-91 -83 -216 -83q-127 0 -216 83q-89 84 -89 203zM207 279q0 -51 37 -87q38 -35 91 -35q52 0 90 35q38 36 38 87q0 50 -38 86q-37 36 -90 36t-91 -36q-37 -36 -37 -86z
" />
    <glyph glyph-name="Obreve.smcp" horiz-adv-x="671" 
d="M149 697h124q13 -30 62 -30t62 30h124q-9 -51 -59 -85.5t-127 -34.5t-127 34.5t-59 85.5zM30 279q0 118 89 202q90 84 216 84t216 -84t90 -202q0 -119 -90 -203q-91 -83 -216 -83q-127 0 -216 83q-89 84 -89 203zM207 279q0 -51 37 -87q38 -35 91 -35q52 0 90 35
q38 36 38 87q0 50 -38 86q-37 36 -90 36t-91 -36q-37 -36 -37 -86z" />
    <glyph glyph-name="Ohungarumlaut.smcp" horiz-adv-x="671" 
d="M495 596h-139l41 101h191zM298 596h-139l41 101h191zM30 279q0 118 89 202q90 84 216 84t216 -84t90 -202q0 -119 -90 -203q-91 -83 -216 -83q-127 0 -216 83q-89 84 -89 203zM207 279q0 -51 37 -87q38 -35 91 -35q52 0 90 35q38 36 38 87q0 50 -38 86q-37 36 -90 36
t-91 -36q-37 -36 -37 -86z" />
    <glyph glyph-name="Oslash.smcp" horiz-adv-x="671" 
d="M143 -47l-101 87l52 62q-64 76 -64 177q0 118 89 202q90 84 216 84q69 0 132 -29l57 67l102 -87l-52 -60q67 -77 67 -177q0 -119 -90 -203q-91 -83 -216 -83q-74 0 -134 28zM214 236l141 163q-18 2 -20 2q-53 0 -91 -36q-37 -36 -37 -86q0 -26 7 -43zM454 323l-142 -164
q22 -2 23 -2q52 0 90 35q38 36 38 87q0 23 -9 44z" />
    <glyph glyph-name="Oslashacute.smcp" horiz-adv-x="671" 
d="M417 596h-163l37 101h207zM143 -47l-101 87l52 62q-64 76 -64 177q0 118 89 202q90 84 216 84q69 0 132 -29l57 67l102 -87l-52 -60q67 -77 67 -177q0 -119 -90 -203q-91 -83 -216 -83q-74 0 -134 28zM214 236l141 163q-18 2 -20 2q-53 0 -91 -36q-37 -36 -37 -86
q0 -26 7 -43zM454 323l-142 -164q22 -2 23 -2q52 0 90 35q38 36 38 87q0 23 -9 44z" />
    <glyph glyph-name="OE.smcp" horiz-adv-x="870" 
d="M323 565q68 0 118 -30v23h382v-161h-206v-47h190v-145h-190v-48h213v-157h-389v23q-50 -30 -118 -30q-121 0 -207 84t-86 202t86 202t207 84zM207 279q0 -51 37 -87q38 -35 91 -35q52 0 90 35q38 36 38 87q0 50 -38 86q-37 36 -90 36t-91 -36q-37 -36 -37 -86z" />
    <glyph glyph-name="Racute.smcp" horiz-adv-x="604" 
d="M367 596h-163l37 101h207zM236 0h-179v558h282q90 0 154 -59q64 -58 64 -141q0 -53 -26.5 -96t-72.5 -63l149 -199h-203l-118 159h-1h-49v-159zM236 396v-96h83q61 0 61 52q0 20 -13.5 32t-32.5 12h-98z" />
    <glyph glyph-name="Rcaron.smcp" horiz-adv-x="604" 
d="M494 697l-203 -116l-202 116h158l44 -43l45 43h158zM236 0h-179v558h282q90 0 154 -59q64 -58 64 -141q0 -53 -26.5 -96t-72.5 -63l149 -199h-203l-118 159h-1h-49v-159zM236 396v-96h83q61 0 61 52q0 20 -13.5 32t-32.5 12h-98z" />
    <glyph glyph-name="Rcommaaccent.smcp" horiz-adv-x="604" 
d="M236 0h-179v558h282q90 0 154 -59q64 -58 64 -141q0 -53 -26.5 -96t-72.5 -63l149 -199h-203l-118 159h-1h-49v-159zM236 396v-96h83q61 0 61 52q0 20 -13.5 32t-32.5 12h-98zM345 -145h-161l37 107h207z" />
    <glyph glyph-name="Sacute.smcp" horiz-adv-x="537" 
d="M351 596h-163l37 101h207zM43 32v167q91 -48 214 -48q41 0 61 3q30 6 30 24q0 10 -75 25q-117 25 -173 68.5t-56 118.5q0 82 69 129q70 46 167 46q99 0 189 -38v-158q-81 38 -197 38q-59 0 -59 -20q0 -12 40 -25l38 -11q14 -3 48 -11.5t35 -8.5q79 -22 113 -56.5
t34 -94.5q0 -90 -64 -138.5t-193 -48.5q-112 0 -221 39z" />
    <glyph glyph-name="Scircumflex.smcp" horiz-adv-x="537" 
d="M233 596h-158l202 116l203 -116h-158l-45 43zM43 32v167q91 -48 214 -48q41 0 61 3q30 6 30 24q0 10 -75 25q-117 25 -173 68.5t-56 118.5q0 82 69 129q70 46 167 46q99 0 189 -38v-158q-81 38 -197 38q-59 0 -59 -20q0 -12 40 -25l38 -11q14 -3 48 -11.5t35 -8.5
q79 -22 113 -56.5t34 -94.5q0 -90 -64 -138.5t-193 -48.5q-112 0 -221 39z" />
    <glyph glyph-name="Scaron.smcp" horiz-adv-x="537" 
d="M485 697l-203 -116l-202 116h158l44 -43l45 43h158zM43 32v167q91 -48 214 -48q41 0 61 3q30 6 30 24q0 10 -75 25q-117 25 -173 68.5t-56 118.5q0 82 69 129q70 46 167 46q99 0 189 -38v-158q-81 38 -197 38q-59 0 -59 -20q0 -12 40 -25l38 -11q14 -3 48 -11.5t35 -8.5
q79 -22 113 -56.5t34 -94.5q0 -90 -64 -138.5t-193 -48.5q-112 0 -221 39z" />
    <glyph glyph-name="Scommaaccent.smcp" horiz-adv-x="537" 
d="M43 32v167q91 -48 214 -48q41 0 61 3q30 6 30 24q0 10 -75 25q-117 25 -173 68.5t-56 118.5q0 82 69 129q70 46 167 46q99 0 189 -38v-158q-81 38 -197 38q-59 0 -59 -20q0 -12 40 -25l38 -11q14 -3 48 -11.5t35 -8.5q79 -22 113 -56.5t34 -94.5q0 -90 -64 -138.5
t-193 -48.5q-112 0 -221 39zM313 -145h-161l37 107h207z" />
    </font>
</defs>
</svg>
